<svg xmlns="http://www.w3.org/2000/svg" xmlns:xlink="http://www.w3.org/1999/xlink" contentStyleType="text/css" data-diagram-type="ACTIVITY" height="470px" preserveAspectRatio="none" style="width:507px;height:470px;background:#FFFFFF;" version="1.1" viewBox="0 0 507 470" width="507px" zoomAndPan="magnify"><defs/><g><ellipse cx="257.8203" cy="20" fill="#222222" rx="10" ry="10" style="stroke:#222222;stroke-width:1;"/><rect fill="#F1F1F1" height="33.9688" rx="12.5" ry="12.5" style="stroke:#181818;stroke-width:0.5;" width="221.4453" x="147.0977" y="50"/><text fill="#000000" font-family="sans-serif" font-size="12" lengthAdjust="spacing" textLength="201.4453" x="157.0977" y="71.1387">&#1056;&#1072;&#1073;&#1086;&#1090;&#1086;&#1076;&#1072;&#1090;&#1077;&#1083;&#1100; &#1074;&#1099;&#1073;&#1080;&#1088;&#1072;&#1077;&#1090; &#1086;&#1090;&#1082;&#1083;&#1080;&#1082;</text><rect fill="#F1F1F1" height="33.9688" rx="12.5" ry="12.5" style="stroke:#181818;stroke-width:0.5;" width="146.123" x="184.7588" y="103.9688"/><text fill="#000000" font-family="sans-serif" font-size="12" lengthAdjust="spacing" textLength="126.123" x="194.7588" y="125.1074">&#1053;&#1072;&#1078;&#1080;&#1084;&#1072;&#1077;&#1090; "&#1053;&#1072;&#1085;&#1103;&#1090;&#1100;"</text><rect fill="#F1F1F1" height="33.9688" rx="12.5" ry="12.5" style="stroke:#181818;stroke-width:0.5;" width="190.1621" x="162.7393" y="157.9375"/><text fill="#000000" font-family="sans-serif" font-size="12" lengthAdjust="spacing" textLength="170.1621" x="172.7393" y="179.0762">&#1057;&#1080;&#1089;&#1090;&#1077;&#1084;&#1072; &#1089;&#1086;&#1079;&#1076;&#1072;&#1105;&#1090; &#1082;&#1086;&#1085;&#1090;&#1088;&#1072;&#1082;&#1090;</text><rect fill="#F1F1F1" height="33.9688" rx="12.5" ry="12.5" style="stroke:#181818;stroke-width:0.5;" width="298.8887" x="108.376" y="211.9063"/><text fill="#000000" font-family="sans-serif" font-size="12" lengthAdjust="spacing" textLength="278.8887" x="118.376" y="233.0449">&#1056;&#1072;&#1073;&#1086;&#1090;&#1086;&#1076;&#1072;&#1090;&#1077;&#1083;&#1100; &#1087;&#1077;&#1088;&#1077;&#1074;&#1086;&#1076;&#1080;&#1090; &#1089;&#1088;&#1077;&#1076;&#1089;&#1090;&#1074;&#1072; &#1074; &#1101;&#1089;&#1082;&#1088;&#1086;&#1091;</text><polygon fill="#F1F1F1" points="206.5103,265.875,309.1304,265.875,321.1304,277.875,309.1304,289.875,206.5103,289.875,194.5103,277.875,206.5103,265.875" style="stroke:#181818;stroke-width:0.5;"/><text fill="#000000" font-family="sans-serif" font-size="11" lengthAdjust="spacing" textLength="102.6201" x="206.5103" y="281.6831">&#1054;&#1087;&#1083;&#1072;&#1090;&#1072; &#1091;&#1089;&#1087;&#1077;&#1096;&#1085;&#1072;?</text><text fill="#000000" font-family="sans-serif" font-size="11" lengthAdjust="spacing" textLength="15.3345" x="179.1758" y="275.2808">&#1044;&#1072;</text><text fill="#000000" font-family="sans-serif" font-size="11" lengthAdjust="spacing" textLength="21.4468" x="321.1304" y="275.2808">&#1053;&#1077;&#1090;</text><rect fill="#F1F1F1" height="33.9688" rx="12.5" ry="12.5" style="stroke:#181818;stroke-width:0.5;" width="240.9453" x="11" y="299.875"/><text fill="#000000" font-family="sans-serif" font-size="12" lengthAdjust="spacing" textLength="220.9453" x="21" y="321.0137">&#1060;&#1088;&#1080;&#1083;&#1072;&#1085;&#1089;&#1077;&#1088; &#1087;&#1086;&#1083;&#1091;&#1095;&#1072;&#1077;&#1090; &#1091;&#1074;&#1077;&#1076;&#1086;&#1084;&#1083;&#1077;&#1085;&#1080;&#1077;</text><rect fill="#F1F1F1" height="33.9688" rx="12.5" ry="12.5" style="stroke:#181818;stroke-width:0.5;" width="222.0137" x="20.4658" y="353.8438"/><text fill="#000000" font-family="sans-serif" font-size="12" lengthAdjust="spacing" textLength="202.0137" x="30.4658" y="374.9824">&#1053;&#1072;&#1095;&#1080;&#1085;&#1072;&#1077;&#1090;&#1089;&#1103; &#1074;&#1099;&#1087;&#1086;&#1083;&#1085;&#1077;&#1085;&#1080;&#1077; &#1079;&#1072;&#1082;&#1072;&#1079;&#1072;</text><rect fill="#F1F1F1" height="33.9688" rx="12.5" ry="12.5" style="stroke:#181818;stroke-width:0.5;" width="224.4453" x="271.9453" y="299.875"/><text fill="#000000" font-family="sans-serif" font-size="12" lengthAdjust="spacing" textLength="204.4453" x="281.9453" y="321.0137">&#1054;&#1090;&#1086;&#1073;&#1088;&#1072;&#1079;&#1080;&#1090;&#1100; &#1086;&#1096;&#1080;&#1073;&#1082;&#1091; &#1090;&#1088;&#1072;&#1085;&#1079;&#1072;&#1082;&#1094;&#1080;&#1080;</text><polygon fill="#F1F1F1" points="257.8203,393.8125,269.8203,405.8125,257.8203,417.8125,245.8203,405.8125,257.8203,393.8125" style="stroke:#181818;stroke-width:0.5;"/><ellipse cx="257.8203" cy="448.8125" fill="none" rx="11" ry="11" style="stroke:#222222;stroke-width:1;"/><ellipse cx="257.8203" cy="448.8125" fill="#222222" rx="6" ry="6" style="stroke:#222222;stroke-width:1;"/><line style="stroke:#181818;stroke-width:1;" x1="257.8203" x2="257.8203" y1="30" y2="50"/><polygon fill="#181818" points="253.8203,40,257.8203,50,261.8203,40,257.8203,44" style="stroke:#181818;stroke-width:1;"/><line style="stroke:#181818;stroke-width:1;" x1="257.8203" x2="257.8203" y1="83.9688" y2="103.9688"/><polygon fill="#181818" points="253.8203,93.9688,257.8203,103.9688,261.8203,93.9688,257.8203,97.9688" style="stroke:#181818;stroke-width:1;"/><line style="stroke:#181818;stroke-width:1;" x1="257.8203" x2="257.8203" y1="137.9375" y2="157.9375"/><polygon fill="#181818" points="253.8203,147.9375,257.8203,157.9375,261.8203,147.9375,257.8203,151.9375" style="stroke:#181818;stroke-width:1;"/><line style="stroke:#181818;stroke-width:1;" x1="257.8203" x2="257.8203" y1="191.9063" y2="211.9063"/><polygon fill="#181818" points="253.8203,201.9063,257.8203,211.9063,261.8203,201.9063,257.8203,205.9063" style="stroke:#181818;stroke-width:1;"/><line style="stroke:#181818;stroke-width:1;" x1="131.4727" x2="131.4727" y1="333.8438" y2="353.8438"/><polygon fill="#181818" points="127.4727,343.8438,131.4727,353.8438,135.4727,343.8438,131.4727,347.8438" style="stroke:#181818;stroke-width:1;"/><line style="stroke:#181818;stroke-width:1;" x1="194.5103" x2="131.4727" y1="277.875" y2="277.875"/><line style="stroke:#181818;stroke-width:1;" x1="131.4727" x2="131.4727" y1="277.875" y2="299.875"/><polygon fill="#181818" points="127.4727,289.875,131.4727,299.875,135.4727,289.875,131.4727,293.875" style="stroke:#181818;stroke-width:1;"/><line style="stroke:#181818;stroke-width:1;" x1="321.1304" x2="384.168" y1="277.875" y2="277.875"/><line style="stroke:#181818;stroke-width:1;" x1="384.168" x2="384.168" y1="277.875" y2="299.875"/><polygon fill="#181818" points="380.168,289.875,384.168,299.875,388.168,289.875,384.168,293.875" style="stroke:#181818;stroke-width:1;"/><line style="stroke:#181818;stroke-width:1;" x1="131.4727" x2="131.4727" y1="387.8125" y2="405.8125"/><line style="stroke:#181818;stroke-width:1;" x1="131.4727" x2="245.8203" y1="405.8125" y2="405.8125"/><polygon fill="#181818" points="235.8203,401.8125,245.8203,405.8125,235.8203,409.8125,239.8203,405.8125" style="stroke:#181818;stroke-width:1;"/><line style="stroke:#181818;stroke-width:1;" x1="384.168" x2="384.168" y1="333.8438" y2="405.8125"/><line style="stroke:#181818;stroke-width:1;" x1="384.168" x2="269.8203" y1="405.8125" y2="405.8125"/><polygon fill="#181818" points="279.8203,401.8125,269.8203,405.8125,279.8203,409.8125,275.8203,405.8125" style="stroke:#181818;stroke-width:1;"/><line style="stroke:#181818;stroke-width:1;" x1="257.8203" x2="257.8203" y1="245.875" y2="265.875"/><polygon fill="#181818" points="253.8203,255.875,257.8203,265.875,261.8203,255.875,257.8203,259.875" style="stroke:#181818;stroke-width:1;"/><line style="stroke:#181818;stroke-width:1;" x1="257.8203" x2="257.8203" y1="417.8125" y2="437.8125"/><polygon fill="#181818" points="253.8203,427.8125,257.8203,437.8125,261.8203,427.8125,257.8203,431.8125" style="stroke:#181818;stroke-width:1;"/><!--SRC=[VP1HIiDG44N_iuf7l-mMp8Th4Kon85LC5j0ae8AL8lZRek02qj3OnsiJjp2p8y-yvjkFnsFktBdtpkJ5zMEHNCgdDBAJGIiPP2yDVoT7NJbfzPM6roM4JYiNEK6EuYMa36x0VoXEOtyIaLxNMkbgOemlfiie2CTfYSCXUhoRNA3iuPf-q2hzByil3akADZOyumWRi8y6BVBIEdt38u0FMgV9VEOkPCleCIeHeAPjIY_IItCrTSLjje3p8SqKysy6lP59LPgVsGxur_eyhgWrLfW2ds1sw7ZfncF0yYPiJ5AjpnUC4i0Zrt41rkNnfqbsbsSasDYCPTZ6rNVn9WVRqvOV2EovIz3QZVVgppBwHCCZixYPpvAyk7_u0m00]--></g></svg>