<svg xmlns="http://www.w3.org/2000/svg" xmlns:xlink="http://www.w3.org/1999/xlink" contentStyleType="text/css" data-diagram-type="ACTIVITY" height="416px" preserveAspectRatio="none" style="width:578px;height:416px;background:#FFFFFF;" version="1.1" viewBox="0 0 578 416" width="578px" zoomAndPan="magnify"><defs/><g><ellipse cx="314.3311" cy="20" fill="#222222" rx="10" ry="10" style="stroke:#222222;stroke-width:1;"/><rect fill="#F1F1F1" height="33.9688" rx="12.5" ry="12.5" style="stroke:#181818;stroke-width:0.5;" width="176.7676" x="225.9473" y="50"/><text fill="#000000" font-family="sans-serif" font-size="12" lengthAdjust="spacing" textLength="156.7676" x="235.9473" y="71.1387">&#1054;&#1090;&#1082;&#1088;&#1099;&#1090;&#1100; &#1087;&#1072;&#1085;&#1077;&#1083;&#1100; &#1079;&#1072;&#1082;&#1072;&#1079;&#1086;&#1074;</text><rect fill="#F1F1F1" height="33.9688" rx="12.5" ry="12.5" style="stroke:#181818;stroke-width:0.5;" width="173.8027" x="227.4297" y="103.9688"/><text fill="#000000" font-family="sans-serif" font-size="12" lengthAdjust="spacing" textLength="153.8027" x="237.4297" y="125.1074">&#1053;&#1072;&#1078;&#1072;&#1090;&#1100; "&#1057;&#1086;&#1079;&#1076;&#1072;&#1090;&#1100; &#1079;&#1072;&#1082;&#1072;&#1079;"</text><rect fill="#F1F1F1" height="33.9688" rx="12.5" ry="12.5" style="stroke:#181818;stroke-width:0.5;" width="314.5039" x="157.0791" y="157.9375"/><text fill="#000000" font-family="sans-serif" font-size="12" lengthAdjust="spacing" textLength="294.5039" x="167.0791" y="179.0762">&#1042;&#1074;&#1077;&#1089;&#1090;&#1080; &#1076;&#1072;&#1085;&#1085;&#1099;&#1077; (&#1085;&#1072;&#1079;&#1074;&#1072;&#1085;&#1080;&#1077;, &#1086;&#1087;&#1080;&#1089;&#1072;&#1085;&#1080;&#1077;, &#1073;&#1102;&#1076;&#1078;&#1077;&#1090;)</text><polygon fill="#F1F1F1" points="231.3611,211.9063,397.301,211.9063,409.301,223.9063,397.301,235.9063,231.3611,235.9063,219.3611,223.9063,231.3611,211.9063" style="stroke:#181818;stroke-width:0.5;"/><text fill="#000000" font-family="sans-serif" font-size="11" lengthAdjust="spacing" textLength="165.9399" x="231.3611" y="227.7144">&#1055;&#1086;&#1083;&#1103; &#1079;&#1072;&#1087;&#1086;&#1083;&#1085;&#1077;&#1085;&#1099; &#1082;&#1086;&#1088;&#1088;&#1077;&#1082;&#1090;&#1085;&#1086;?</text><text fill="#000000" font-family="sans-serif" font-size="11" lengthAdjust="spacing" textLength="15.3345" x="204.0266" y="221.312">&#1044;&#1072;</text><text fill="#000000" font-family="sans-serif" font-size="11" lengthAdjust="spacing" textLength="21.4468" x="409.301" y="221.312">&#1053;&#1077;&#1090;</text><rect fill="#F1F1F1" height="33.9688" rx="12.5" ry="12.5" style="stroke:#181818;stroke-width:0.5;" width="158.3398" x="91.0039" y="245.9063"/><text fill="#000000" font-family="sans-serif" font-size="12" lengthAdjust="spacing" textLength="138.3398" x="101.0039" y="267.0449">&#1057;&#1086;&#1093;&#1088;&#1072;&#1085;&#1080;&#1090;&#1100; &#1079;&#1072;&#1082;&#1072;&#1079; &#1074; &#1041;&#1044;</text><rect fill="#F1F1F1" height="33.9688" rx="12.5" ry="12.5" style="stroke:#181818;stroke-width:0.5;" width="318.3477" x="11" y="299.875"/><text fill="#000000" font-family="sans-serif" font-size="12" lengthAdjust="spacing" textLength="298.3477" x="21" y="321.0137">&#1054;&#1090;&#1086;&#1073;&#1088;&#1072;&#1079;&#1080;&#1090;&#1100; &#1089;&#1086;&#1086;&#1073;&#1097;&#1077;&#1085;&#1080;&#1077; &#1086;&#1073; &#1091;&#1089;&#1087;&#1077;&#1096;&#1085;&#1086;&#1084; &#1089;&#1086;&#1079;&#1076;&#1072;&#1085;&#1080;&#1080;</text><rect fill="#F1F1F1" height="33.9688" rx="12.5" ry="12.5" style="stroke:#181818;stroke-width:0.5;" width="218.2813" x="349.3477" y="245.9063"/><text fill="#000000" font-family="sans-serif" font-size="12" lengthAdjust="spacing" textLength="198.2813" x="359.3477" y="267.0449">&#1042;&#1099;&#1074;&#1077;&#1089;&#1090;&#1080; &#1089;&#1086;&#1086;&#1073;&#1097;&#1077;&#1085;&#1080;&#1077; &#1086;&#1073; &#1086;&#1096;&#1080;&#1073;&#1082;&#1077;</text><rect fill="#F1F1F1" height="33.9688" rx="12.5" ry="12.5" style="stroke:#181818;stroke-width:0.5;" width="193.0508" x="361.9629" y="299.875"/><text fill="#000000" font-family="sans-serif" font-size="12" lengthAdjust="spacing" textLength="173.0508" x="371.9629" y="321.0137">&#1047;&#1072;&#1087;&#1088;&#1086;&#1089;&#1080;&#1090;&#1100; &#1087;&#1086;&#1074;&#1090;&#1086;&#1088;&#1085;&#1099;&#1081; &#1074;&#1074;&#1086;&#1076;</text><polygon fill="#F1F1F1" points="314.3311,339.8438,326.3311,351.8438,314.3311,363.8438,302.3311,351.8438,314.3311,339.8438" style="stroke:#181818;stroke-width:0.5;"/><ellipse cx="314.3311" cy="394.8438" fill="none" rx="11" ry="11" style="stroke:#222222;stroke-width:1;"/><ellipse cx="314.3311" cy="394.8438" fill="#222222" rx="6" ry="6" style="stroke:#222222;stroke-width:1;"/><line style="stroke:#181818;stroke-width:1;" x1="314.3311" x2="314.3311" y1="30" y2="50"/><polygon fill="#181818" points="310.3311,40,314.3311,50,318.3311,40,314.3311,44" style="stroke:#181818;stroke-width:1;"/><line style="stroke:#181818;stroke-width:1;" x1="314.3311" x2="314.3311" y1="83.9688" y2="103.9688"/><polygon fill="#181818" points="310.3311,93.9688,314.3311,103.9688,318.3311,93.9688,314.3311,97.9688" style="stroke:#181818;stroke-width:1;"/><line style="stroke:#181818;stroke-width:1;" x1="314.3311" x2="314.3311" y1="137.9375" y2="157.9375"/><polygon fill="#181818" points="310.3311,147.9375,314.3311,157.9375,318.3311,147.9375,314.3311,151.9375" style="stroke:#181818;stroke-width:1;"/><line style="stroke:#181818;stroke-width:1;" x1="170.1738" x2="170.1738" y1="279.875" y2="299.875"/><polygon fill="#181818" points="166.1738,289.875,170.1738,299.875,174.1738,289.875,170.1738,293.875" style="stroke:#181818;stroke-width:1;"/><line style="stroke:#181818;stroke-width:1;" x1="458.4883" x2="458.4883" y1="279.875" y2="299.875"/><polygon fill="#181818" points="454.4883,289.875,458.4883,299.875,462.4883,289.875,458.4883,293.875" style="stroke:#181818;stroke-width:1;"/><line style="stroke:#181818;stroke-width:1;" x1="219.3611" x2="170.1738" y1="223.9063" y2="223.9063"/><line style="stroke:#181818;stroke-width:1;" x1="170.1738" x2="170.1738" y1="223.9063" y2="245.9063"/><polygon fill="#181818" points="166.1738,235.9063,170.1738,245.9063,174.1738,235.9063,170.1738,239.9063" style="stroke:#181818;stroke-width:1;"/><line style="stroke:#181818;stroke-width:1;" x1="409.301" x2="458.4883" y1="223.9063" y2="223.9063"/><line style="stroke:#181818;stroke-width:1;" x1="458.4883" x2="458.4883" y1="223.9063" y2="245.9063"/><polygon fill="#181818" points="454.4883,235.9063,458.4883,245.9063,462.4883,235.9063,458.4883,239.9063" style="stroke:#181818;stroke-width:1;"/><line style="stroke:#181818;stroke-width:1;" x1="170.1738" x2="170.1738" y1="333.8438" y2="351.8438"/><line style="stroke:#181818;stroke-width:1;" x1="170.1738" x2="302.3311" y1="351.8438" y2="351.8438"/><polygon fill="#181818" points="292.3311,347.8438,302.3311,351.8438,292.3311,355.8438,296.3311,351.8438" style="stroke:#181818;stroke-width:1;"/><line style="stroke:#181818;stroke-width:1;" x1="458.4883" x2="458.4883" y1="333.8438" y2="351.8438"/><line style="stroke:#181818;stroke-width:1;" x1="458.4883" x2="326.3311" y1="351.8438" y2="351.8438"/><polygon fill="#181818" points="336.3311,347.8438,326.3311,351.8438,336.3311,355.8438,332.3311,351.8438" style="stroke:#181818;stroke-width:1;"/><line style="stroke:#181818;stroke-width:1;" x1="314.3311" x2="314.3311" y1="191.9063" y2="211.9063"/><polygon fill="#181818" points="310.3311,201.9063,314.3311,211.9063,318.3311,201.9063,314.3311,205.9063" style="stroke:#181818;stroke-width:1;"/><line style="stroke:#181818;stroke-width:1;" x1="314.3311" x2="314.3311" y1="363.8438" y2="383.8438"/><polygon fill="#181818" points="310.3311,373.8438,314.3311,383.8438,318.3311,373.8438,314.3311,377.8438" style="stroke:#181818;stroke-width:1;"/><!--SRC=[TP5XIiD048N_vnHBVndm1EQ7Pn5CiI1LJ0wGHeHAHL4A_ghY3PBGD6jgDbTuSoFVR28LGK8WR_9stZUpINfsamOdU9CShMIoabmU37eKw51ZhwAXQFasSAWYcZSKEnJUEi47omssepwu9sfzGOLQ5knkZNhOjPCLQdF4BsrP-Pf5VMpOfuULnQzAAOyyjMEBF8o2sPJ7tcdRozCGrAlmfEngcEiuGqRPCh63EmrDUX7FUMoD8YGFOUME3X_n1zYWCdZ6EXhtuHYVUSZ1IJBdY_UQfuIAN1gvvP-UZ4kDnDTWRCPnBMmKn9T9J8YD7qJNmXqS5lDVOx8kgKhYrGhrgXCJoV60_RaetecoigoB_UGGV1os39sVpwP1abvTVmC0]--></g></svg>