<svg xmlns="http://www.w3.org/2000/svg" xmlns:xlink="http://www.w3.org/1999/xlink" contentStyleType="text/css" data-diagram-type="ACTIVITY" height="470px" preserveAspectRatio="none" style="width:534px;height:470px;background:#FFFFFF;" version="1.1" viewBox="0 0 534 470" width="534px" zoomAndPan="magnify"><defs/><g><ellipse cx="281.2358" cy="20" fill="#222222" rx="10" ry="10" style="stroke:#222222;stroke-width:1;"/><rect fill="#F1F1F1" height="33.9688" rx="12.5" ry="12.5" style="stroke:#181818;stroke-width:0.5;" width="201.0723" x="180.6997" y="50"/><text fill="#000000" font-family="sans-serif" font-size="12" lengthAdjust="spacing" textLength="181.0723" x="190.6997" y="71.1387">&#1060;&#1088;&#1080;&#1083;&#1072;&#1085;&#1089;&#1077;&#1088; &#1079;&#1072;&#1074;&#1077;&#1088;&#1096;&#1072;&#1077;&#1090; &#1079;&#1072;&#1082;&#1072;&#1079;</text><rect fill="#F1F1F1" height="33.9688" rx="12.5" ry="12.5" style="stroke:#181818;stroke-width:0.5;" width="156.9805" x="202.7456" y="103.9688"/><text fill="#000000" font-family="sans-serif" font-size="12" lengthAdjust="spacing" textLength="136.9805" x="212.7456" y="125.1074">&#1047;&#1072;&#1075;&#1088;&#1091;&#1078;&#1072;&#1077;&#1090; &#1088;&#1077;&#1079;&#1091;&#1083;&#1100;&#1090;&#1072;&#1090;</text><rect fill="#F1F1F1" height="33.9688" rx="12.5" ry="12.5" style="stroke:#181818;stroke-width:0.5;" width="226.332" x="168.0698" y="157.9375"/><text fill="#000000" font-family="sans-serif" font-size="12" lengthAdjust="spacing" textLength="206.332" x="178.0698" y="179.0762">&#1056;&#1072;&#1073;&#1086;&#1090;&#1086;&#1076;&#1072;&#1090;&#1077;&#1083;&#1100; &#1087;&#1088;&#1086;&#1074;&#1077;&#1088;&#1103;&#1077;&#1090; &#1088;&#1072;&#1073;&#1086;&#1090;&#1091;</text><polygon fill="#F1F1F1" points="172.9653,211.9063,389.5063,211.9063,401.5063,223.9063,389.5063,235.9063,172.9653,235.9063,160.9653,223.9063,172.9653,211.9063" style="stroke:#181818;stroke-width:0.5;"/><text fill="#000000" font-family="sans-serif" font-size="11" lengthAdjust="spacing" textLength="216.541" x="172.9653" y="227.7144">&#1056;&#1072;&#1073;&#1086;&#1090;&#1072; &#1091;&#1076;&#1086;&#1074;&#1083;&#1077;&#1090;&#1074;&#1086;&#1088;&#1103;&#1077;&#1090; &#1090;&#1088;&#1077;&#1073;&#1086;&#1074;&#1072;&#1085;&#1080;&#1103;&#1084;?</text><text fill="#000000" font-family="sans-serif" font-size="11" lengthAdjust="spacing" textLength="15.3345" x="145.6309" y="221.312">&#1044;&#1072;</text><text fill="#000000" font-family="sans-serif" font-size="11" lengthAdjust="spacing" textLength="21.4468" x="401.5063" y="221.312">&#1053;&#1077;&#1090;</text><rect fill="#F1F1F1" height="33.9688" rx="12.5" ry="12.5" style="stroke:#181818;stroke-width:0.5;" width="184.8945" x="55.6895" y="245.9063"/><text fill="#000000" font-family="sans-serif" font-size="12" lengthAdjust="spacing" textLength="164.8945" x="65.6895" y="267.0449">&#1055;&#1086;&#1076;&#1090;&#1074;&#1077;&#1088;&#1076;&#1080;&#1090;&#1100; &#1079;&#1072;&#1074;&#1077;&#1088;&#1096;&#1077;&#1085;&#1080;&#1077;</text><rect fill="#F1F1F1" height="33.9688" rx="12.5" ry="12.5" style="stroke:#181818;stroke-width:0.5;" width="274.2734" x="11" y="299.875"/><text fill="#000000" font-family="sans-serif" font-size="12" lengthAdjust="spacing" textLength="254.2734" x="21" y="321.0137">&#1057;&#1080;&#1089;&#1090;&#1077;&#1084;&#1072; &#1087;&#1077;&#1088;&#1077;&#1074;&#1086;&#1076;&#1080;&#1090; &#1086;&#1087;&#1083;&#1072;&#1090;&#1091; &#1092;&#1088;&#1080;&#1083;&#1072;&#1085;&#1089;&#1077;&#1088;&#1091;</text><rect fill="#F1F1F1" height="33.9688" rx="12.5" ry="12.5" style="stroke:#181818;stroke-width:0.5;" width="222.9512" x="36.6611" y="353.8438"/><text fill="#000000" font-family="sans-serif" font-size="12" lengthAdjust="spacing" textLength="202.9512" x="46.6611" y="374.9824">&#1054;&#1073;&#1077; &#1089;&#1090;&#1086;&#1088;&#1086;&#1085;&#1099; &#1086;&#1089;&#1090;&#1072;&#1074;&#1083;&#1103;&#1102;&#1090; &#1086;&#1090;&#1079;&#1099;&#1074;&#1099;</text><rect fill="#F1F1F1" height="33.9688" rx="12.5" ry="12.5" style="stroke:#181818;stroke-width:0.5;" width="156.8164" x="335.9268" y="245.9063"/><text fill="#000000" font-family="sans-serif" font-size="12" lengthAdjust="spacing" textLength="136.8164" x="345.9268" y="267.0449">&#1047;&#1072;&#1087;&#1088;&#1086;&#1089;&#1080;&#1090;&#1100; &#1076;&#1086;&#1088;&#1072;&#1073;&#1086;&#1090;&#1082;&#1091;</text><rect fill="#F1F1F1" height="33.9688" rx="12.5" ry="12.5" style="stroke:#181818;stroke-width:0.5;" width="218.123" x="305.2734" y="299.875"/><text fill="#000000" font-family="sans-serif" font-size="12" lengthAdjust="spacing" textLength="198.123" x="315.2734" y="321.0137">&#1042;&#1077;&#1088;&#1085;&#1091;&#1090;&#1100;&#1089;&#1103; &#1082; &#1101;&#1090;&#1072;&#1087;&#1091; &#1074;&#1099;&#1087;&#1086;&#1083;&#1085;&#1077;&#1085;&#1080;&#1103;</text><polygon fill="#F1F1F1" points="281.2358,393.8125,293.2358,405.8125,281.2358,417.8125,269.2358,405.8125,281.2358,393.8125" style="stroke:#181818;stroke-width:0.5;"/><ellipse cx="281.2358" cy="448.8125" fill="none" rx="11" ry="11" style="stroke:#222222;stroke-width:1;"/><ellipse cx="281.2358" cy="448.8125" fill="#222222" rx="6" ry="6" style="stroke:#222222;stroke-width:1;"/><line style="stroke:#181818;stroke-width:1;" x1="281.2358" x2="281.2358" y1="30" y2="50"/><polygon fill="#181818" points="277.2358,40,281.2358,50,285.2358,40,281.2358,44" style="stroke:#181818;stroke-width:1;"/><line style="stroke:#181818;stroke-width:1;" x1="281.2358" x2="281.2358" y1="83.9688" y2="103.9688"/><polygon fill="#181818" points="277.2358,93.9688,281.2358,103.9688,285.2358,93.9688,281.2358,97.9688" style="stroke:#181818;stroke-width:1;"/><line style="stroke:#181818;stroke-width:1;" x1="281.2358" x2="281.2358" y1="137.9375" y2="157.9375"/><polygon fill="#181818" points="277.2358,147.9375,281.2358,157.9375,285.2358,147.9375,281.2358,151.9375" style="stroke:#181818;stroke-width:1;"/><line style="stroke:#181818;stroke-width:1;" x1="148.1367" x2="148.1367" y1="279.875" y2="299.875"/><polygon fill="#181818" points="144.1367,289.875,148.1367,299.875,152.1367,289.875,148.1367,293.875" style="stroke:#181818;stroke-width:1;"/><line style="stroke:#181818;stroke-width:1;" x1="148.1367" x2="148.1367" y1="333.8438" y2="353.8438"/><polygon fill="#181818" points="144.1367,343.8438,148.1367,353.8438,152.1367,343.8438,148.1367,347.8438" style="stroke:#181818;stroke-width:1;"/><line style="stroke:#181818;stroke-width:1;" x1="414.335" x2="414.335" y1="279.875" y2="299.875"/><polygon fill="#181818" points="410.335,289.875,414.335,299.875,418.335,289.875,414.335,293.875" style="stroke:#181818;stroke-width:1;"/><line style="stroke:#181818;stroke-width:1;" x1="160.9653" x2="148.1367" y1="223.9063" y2="223.9063"/><line style="stroke:#181818;stroke-width:1;" x1="148.1367" x2="148.1367" y1="223.9063" y2="245.9063"/><polygon fill="#181818" points="144.1367,235.9063,148.1367,245.9063,152.1367,235.9063,148.1367,239.9063" style="stroke:#181818;stroke-width:1;"/><line style="stroke:#181818;stroke-width:1;" x1="401.5063" x2="414.335" y1="223.9063" y2="223.9063"/><line style="stroke:#181818;stroke-width:1;" x1="414.335" x2="414.335" y1="223.9063" y2="245.9063"/><polygon fill="#181818" points="410.335,235.9063,414.335,245.9063,418.335,235.9063,414.335,239.9063" style="stroke:#181818;stroke-width:1;"/><line style="stroke:#181818;stroke-width:1;" x1="148.1367" x2="148.1367" y1="387.8125" y2="405.8125"/><line style="stroke:#181818;stroke-width:1;" x1="148.1367" x2="269.2358" y1="405.8125" y2="405.8125"/><polygon fill="#181818" points="259.2358,401.8125,269.2358,405.8125,259.2358,409.8125,263.2358,405.8125" style="stroke:#181818;stroke-width:1;"/><line style="stroke:#181818;stroke-width:1;" x1="414.335" x2="414.335" y1="333.8438" y2="405.8125"/><line style="stroke:#181818;stroke-width:1;" x1="414.335" x2="293.2358" y1="405.8125" y2="405.8125"/><polygon fill="#181818" points="303.2358,401.8125,293.2358,405.8125,303.2358,409.8125,299.2358,405.8125" style="stroke:#181818;stroke-width:1;"/><line style="stroke:#181818;stroke-width:1;" x1="281.2358" x2="281.2358" y1="191.9063" y2="211.9063"/><polygon fill="#181818" points="277.2358,201.9063,281.2358,211.9063,285.2358,201.9063,281.2358,205.9063" style="stroke:#181818;stroke-width:1;"/><line style="stroke:#181818;stroke-width:1;" x1="281.2358" x2="281.2358" y1="417.8125" y2="437.8125"/><polygon fill="#181818" points="277.2358,427.8125,281.2358,437.8125,285.2358,427.8125,281.2358,431.8125" style="stroke:#181818;stroke-width:1;"/><!--SRC=[NL1DJeDG4DvpYhUKAvI5Pp6HnYQc6k40BRWmeKhIcBZoB_40jFA4G7bSOUP6VZEynfy5OTxCzpUJf6StQJ2Z3rvHIprLDF2QBAyCDNZifUGxL9QpgTNXQo9Gdb1yOfhJbvz3mrA3HiyRpgZYJ71lcEx8eU6ebYP001WQWNVUeZmAU2pdKR2OcvDVxCf0kLP6BsZytGypK_ETZh44jHWSJaEJNiHBo3nI5IBBgsHGAamXreAt-Rkg5J9PIVwE-Lhp7k1EevAi-4vKWsAKeqbUmxV_RoXBpEW5gQnH8QSR3ro0gGsnxRda1nL3e-62zbn4GNoPnCZzBDk5_jfwC4ZxrBNg7S_JJMvR3JbmBXXub8Owm_VgDIAbg2EqGyvXsfLBk2tF5_CWIQ-klm40]--></g></svg>