<svg xmlns="http://www.w3.org/2000/svg" xmlns:xlink="http://www.w3.org/1999/xlink" contentStyleType="text/css" data-diagram-type="ACTIVITY" height="667px" preserveAspectRatio="none" style="width:2064px;height:667px;background:#FFFFFF;" version="1.1" viewBox="0 0 2064 667" width="2064px" zoomAndPan="magnify"><defs/><g><ellipse cx="1110.7961" cy="20" fill="#222222" rx="10" ry="10" style="stroke:#222222;stroke-width:1;"/><rect fill="#F1F1F1" height="33.9688" rx="12.5" ry="12.5" style="stroke:#181818;stroke-width:0.5;" width="272.2051" x="974.6936" y="50"/><text fill="#000000" font-family="sans-serif" font-size="12" lengthAdjust="spacing" textLength="252.2051" x="984.6936" y="71.1387">&#1054;&#1090;&#1082;&#1088;&#1099;&#1090;&#1100; &#1089;&#1090;&#1088;&#1072;&#1085;&#1080;&#1094;&#1091; &#1074;&#1093;&#1086;&#1076;&#1072; / &#1088;&#1077;&#1075;&#1080;&#1089;&#1090;&#1088;&#1072;&#1094;&#1080;&#1080;</text><polygon fill="#F1F1F1" points="1003.6294,103.9688,1217.9629,103.9688,1229.9629,115.9688,1217.9629,127.9688,1003.6294,127.9688,991.6294,115.9688,1003.6294,103.9688" style="stroke:#181818;stroke-width:0.5;"/><text fill="#000000" font-family="sans-serif" font-size="11" lengthAdjust="spacing" textLength="214.3335" x="1003.6294" y="119.7769">"&#1055;&#1086;&#1083;&#1100;&#1079;&#1086;&#1074;&#1072;&#1090;&#1077;&#1083;&#1100; &#1074;&#1099;&#1073;&#1080;&#1088;&#1072;&#1077;&#1090; &#1076;&#1077;&#1081;&#1089;&#1090;&#1074;&#1080;&#1077;"?</text><text fill="#000000" font-family="sans-serif" font-size="11" lengthAdjust="spacing" textLength="28.3916" x="963.2378" y="113.3745">&#1042;&#1093;&#1086;&#1076;</text><text fill="#000000" font-family="sans-serif" font-size="11" lengthAdjust="spacing" textLength="73.7612" x="1229.9629" y="113.3745">&#1056;&#1077;&#1075;&#1080;&#1089;&#1090;&#1088;&#1072;&#1094;&#1080;&#1103;</text><rect fill="#F1F1F1" height="33.9688" rx="12.5" ry="12.5" style="stroke:#181818;stroke-width:0.5;" width="164.9316" x="514.1177" y="137.9688"/><text fill="#000000" font-family="sans-serif" font-size="12" lengthAdjust="spacing" textLength="144.9316" x="524.1177" y="159.1074">&#1055;&#1086;&#1082;&#1072;&#1079;&#1072;&#1090;&#1100; &#1092;&#1086;&#1088;&#1084;&#1091; &#1074;&#1093;&#1086;&#1076;&#1072;</text><rect fill="#F1F1F1" height="33.9688" rx="12.5" ry="12.5" style="stroke:#181818;stroke-width:0.5;" width="258.3242" x="467.4214" y="191.9375"/><text fill="#000000" font-family="sans-serif" font-size="12" lengthAdjust="spacing" textLength="238.3242" x="477.4214" y="213.0762">&#1055;&#1086;&#1083;&#1100;&#1079;&#1086;&#1074;&#1072;&#1090;&#1077;&#1083;&#1100; &#1074;&#1074;&#1086;&#1076;&#1080;&#1090; e-mail &#1080; &#1087;&#1072;&#1088;&#1086;&#1083;&#1100;</text><polygon fill="#F1F1F1" points="497.1646,245.9063,696.0024,245.9063,708.0024,257.9063,696.0024,269.9063,497.1646,269.9063,485.1646,257.9063,497.1646,245.9063" style="stroke:#181818;stroke-width:0.5;"/><text fill="#000000" font-family="sans-serif" font-size="11" lengthAdjust="spacing" textLength="198.8379" x="497.1646" y="261.7144">"&#1042;&#1089;&#1077; &#1087;&#1086;&#1083;&#1103; &#1079;&#1072;&#1087;&#1086;&#1083;&#1085;&#1077;&#1085;&#1099; &#1082;&#1086;&#1088;&#1088;&#1077;&#1082;&#1090;&#1085;&#1086;?"</text><text fill="#000000" font-family="sans-serif" font-size="11" lengthAdjust="spacing" textLength="15.3345" x="469.8301" y="255.312">&#1044;&#1072;</text><text fill="#000000" font-family="sans-serif" font-size="11" lengthAdjust="spacing" textLength="21.4468" x="708.0024" y="255.312">&#1053;&#1077;&#1090;</text><rect fill="#F1F1F1" height="33.9688" rx="12.5" ry="12.5" style="stroke:#181818;stroke-width:0.5;" width="292.3848" x="178.0469" y="279.9063"/><text fill="#000000" font-family="sans-serif" font-size="12" lengthAdjust="spacing" textLength="272.3848" x="188.0469" y="301.0449">&#1054;&#1090;&#1087;&#1088;&#1072;&#1074;&#1080;&#1090;&#1100; &#1079;&#1072;&#1087;&#1088;&#1086;&#1089; &#1085;&#1072; &#1089;&#1077;&#1088;&#1074;&#1077;&#1088; /api/auth/login</text><polygon fill="#F1F1F1" points="254.936,333.875,393.5425,333.875,405.5425,345.875,393.5425,357.875,254.936,357.875,242.936,345.875,254.936,333.875" style="stroke:#181818;stroke-width:0.5;"/><text fill="#000000" font-family="sans-serif" font-size="11" lengthAdjust="spacing" textLength="138.6064" x="254.936" y="349.6831">"&#1057;&#1077;&#1088;&#1074;&#1077;&#1088; &#1074;&#1077;&#1088;&#1085;&#1091;&#1083; &#1091;&#1089;&#1087;&#1077;&#1093;?"</text><text fill="#000000" font-family="sans-serif" font-size="11" lengthAdjust="spacing" textLength="15.3345" x="227.6016" y="343.2808">&#1044;&#1072;</text><text fill="#000000" font-family="sans-serif" font-size="11" lengthAdjust="spacing" textLength="21.4468" x="405.5425" y="343.2808">&#1053;&#1077;&#1090;</text><rect fill="#F1F1F1" height="33.9688" rx="12.5" ry="12.5" style="stroke:#181818;stroke-width:0.5;" width="147.2598" x="80.9229" y="367.875"/><text fill="#000000" font-family="sans-serif" font-size="12" lengthAdjust="spacing" textLength="127.2598" x="90.9229" y="389.0137">&#1055;&#1086;&#1083;&#1091;&#1095;&#1080;&#1090;&#1100; JWT &#1090;&#1086;&#1082;&#1077;&#1085;</text><rect fill="#F1F1F1" height="33.9688" rx="12.5" ry="12.5" style="stroke:#181818;stroke-width:0.5;" width="287.1055" x="11" y="421.8438"/><text fill="#000000" font-family="sans-serif" font-size="12" lengthAdjust="spacing" textLength="267.1055" x="21" y="442.9824">&#1057;&#1086;&#1093;&#1088;&#1072;&#1085;&#1080;&#1090;&#1100; &#1090;&#1086;&#1082;&#1077;&#1085; &#1074; &#1083;&#1086;&#1082;&#1072;&#1083;&#1100;&#1085;&#1086;&#1084; &#1093;&#1088;&#1072;&#1085;&#1080;&#1083;&#1080;&#1097;&#1077;</text><rect fill="#F1F1F1" height="33.9688" rx="12.5" ry="12.5" style="stroke:#181818;stroke-width:0.5;" width="213.7109" x="47.6973" y="490.8125"/><text fill="#000000" font-family="sans-serif" font-size="12" lengthAdjust="spacing" textLength="193.7109" x="57.6973" y="511.9512">&#1055;&#1077;&#1088;&#1077;&#1093;&#1086;&#1076; &#1085;&#1072; &#1075;&#1083;&#1072;&#1074;&#1085;&#1091;&#1102; &#1089;&#1090;&#1088;&#1072;&#1085;&#1080;&#1094;&#1091;</text><rect fill="#F1F1F1" height="33.9688" rx="12.5" ry="12.5" style="stroke:#181818;stroke-width:0.5;" width="351.6406" x="318.1055" y="367.875"/><text fill="#000000" font-family="sans-serif" font-size="12" lengthAdjust="spacing" textLength="331.6406" x="328.1055" y="389.0137">&#1055;&#1086;&#1082;&#1072;&#1079;&#1072;&#1090;&#1100; &#1089;&#1086;&#1086;&#1073;&#1097;&#1077;&#1085;&#1080;&#1077; &#171;&#1053;&#1077;&#1074;&#1077;&#1088;&#1085;&#1099;&#1081; &#1083;&#1086;&#1075;&#1080;&#1085; &#1080;&#1083;&#1080; &#1087;&#1072;&#1088;&#1086;&#1083;&#1100;&#187;</text><rect fill="#F1F1F1" height="33.9688" rx="12.5" ry="12.5" style="stroke:#181818;stroke-width:0.5;" width="168.5" x="409.6758" y="421.8438"/><text fill="#000000" font-family="sans-serif" font-size="12" lengthAdjust="spacing" textLength="148.5" x="419.6758" y="442.9824">&#1042;&#1086;&#1079;&#1074;&#1088;&#1072;&#1090; &#1082; &#1092;&#1086;&#1088;&#1084;&#1077; &#1074;&#1093;&#1086;&#1076;&#1072;</text><polygon fill="#F1F1F1" points="324.2393,530.7813,336.2393,542.7813,324.2393,554.7813,312.2393,542.7813,324.2393,530.7813" style="stroke:#181818;stroke-width:0.5;"/><rect fill="#F1F1F1" height="33.9688" rx="12.5" ry="12.5" style="stroke:#181818;stroke-width:0.5;" width="338.3633" x="699.7461" y="279.9063"/><text fill="#000000" font-family="sans-serif" font-size="12" lengthAdjust="spacing" textLength="318.3633" x="709.7461" y="301.0449">&#1055;&#1086;&#1082;&#1072;&#1079;&#1072;&#1090;&#1100; &#1087;&#1088;&#1077;&#1076;&#1091;&#1087;&#1088;&#1077;&#1078;&#1076;&#1077;&#1085;&#1080;&#1077; &#171;&#1047;&#1072;&#1087;&#1086;&#1083;&#1085;&#1080;&#1090;&#1077; &#1074;&#1089;&#1077; &#1087;&#1086;&#1083;&#1103;&#187;</text><rect fill="#F1F1F1" height="33.9688" rx="12.5" ry="12.5" style="stroke:#181818;stroke-width:0.5;" width="168.5" x="784.6777" y="333.875"/><text fill="#000000" font-family="sans-serif" font-size="12" lengthAdjust="spacing" textLength="148.5" x="794.6777" y="355.0137">&#1042;&#1086;&#1079;&#1074;&#1088;&#1072;&#1090; &#1082; &#1092;&#1086;&#1088;&#1084;&#1077; &#1074;&#1093;&#1086;&#1076;&#1072;</text><polygon fill="#F1F1F1" points="596.5835,560.7813,608.5835,572.7813,596.5835,584.7813,584.5835,572.7813,596.5835,560.7813" style="stroke:#181818;stroke-width:0.5;"/><rect fill="#F1F1F1" height="33.9688" rx="12.5" ry="12.5" style="stroke:#181818;stroke-width:0.5;" width="209.1934" x="1520.4121" y="137.9688"/><text fill="#000000" font-family="sans-serif" font-size="12" lengthAdjust="spacing" textLength="189.1934" x="1530.4121" y="159.1074">&#1055;&#1086;&#1082;&#1072;&#1079;&#1072;&#1090;&#1100; &#1092;&#1086;&#1088;&#1084;&#1091; &#1088;&#1077;&#1075;&#1080;&#1089;&#1090;&#1088;&#1072;&#1094;&#1080;&#1080;</text><rect fill="#F1F1F1" height="33.9688" rx="12.5" ry="12.5" style="stroke:#181818;stroke-width:0.5;" width="290.0234" x="1479.9971" y="191.9375"/><text fill="#000000" font-family="sans-serif" font-size="12" lengthAdjust="spacing" textLength="270.0234" x="1489.9971" y="213.0762">&#1055;&#1086;&#1083;&#1100;&#1079;&#1086;&#1074;&#1072;&#1090;&#1077;&#1083;&#1100; &#1074;&#1074;&#1086;&#1076;&#1080;&#1090; &#1080;&#1084;&#1103;, e-mail &#1080; &#1087;&#1072;&#1088;&#1086;&#1083;&#1100;</text><polygon fill="#F1F1F1" points="1558.05,245.9063,1691.9675,245.9063,1703.9675,257.9063,1691.9675,269.9063,1558.05,269.9063,1546.05,257.9063,1558.05,245.9063" style="stroke:#181818;stroke-width:0.5;"/><text fill="#000000" font-family="sans-serif" font-size="11" lengthAdjust="spacing" textLength="133.9175" x="1558.05" y="261.7144">"&#1042;&#1089;&#1077; &#1087;&#1086;&#1083;&#1103; &#1082;&#1086;&#1088;&#1088;&#1077;&#1082;&#1090;&#1085;&#1099;?"</text><text fill="#000000" font-family="sans-serif" font-size="11" lengthAdjust="spacing" textLength="15.3345" x="1530.7156" y="255.312">&#1044;&#1072;</text><text fill="#000000" font-family="sans-serif" font-size="11" lengthAdjust="spacing" textLength="21.4468" x="1703.9675" y="255.312">&#1053;&#1077;&#1090;</text><rect fill="#F1F1F1" height="33.9688" rx="12.5" ry="12.5" style="stroke:#181818;stroke-width:0.5;" width="243.1953" x="1241.3545" y="279.9063"/><text fill="#000000" font-family="sans-serif" font-size="12" lengthAdjust="spacing" textLength="223.1953" x="1251.3545" y="301.0449">&#1054;&#1090;&#1087;&#1088;&#1072;&#1074;&#1080;&#1090;&#1100; &#1079;&#1072;&#1087;&#1088;&#1086;&#1089; /api/auth/register</text><polygon fill="#F1F1F1" points="1291.0869,333.875,1434.8174,333.875,1446.8174,345.875,1434.8174,357.875,1291.0869,357.875,1279.0869,345.875,1291.0869,333.875" style="stroke:#181818;stroke-width:0.5;"/><text fill="#000000" font-family="sans-serif" font-size="11" lengthAdjust="spacing" textLength="143.7305" x="1291.0869" y="349.6831">"&#1056;&#1077;&#1075;&#1080;&#1089;&#1090;&#1088;&#1072;&#1094;&#1080;&#1103; &#1091;&#1089;&#1087;&#1077;&#1096;&#1085;&#1072;?"</text><text fill="#000000" font-family="sans-serif" font-size="11" lengthAdjust="spacing" textLength="15.3345" x="1263.7524" y="343.2808">&#1044;&#1072;</text><text fill="#000000" font-family="sans-serif" font-size="11" lengthAdjust="spacing" textLength="21.4468" x="1446.8174" y="343.2808">&#1053;&#1077;&#1090;</text><rect fill="#F1F1F1" height="33.9688" rx="12.5" ry="12.5" style="stroke:#181818;stroke-width:0.5;" width="238.2031" x="1088.1094" y="367.875"/><text fill="#000000" font-family="sans-serif" font-size="12" lengthAdjust="spacing" textLength="218.2031" x="1098.1094" y="389.0137">&#1055;&#1086;&#1083;&#1091;&#1095;&#1080;&#1090;&#1100; &#1087;&#1086;&#1076;&#1090;&#1074;&#1077;&#1088;&#1078;&#1076;&#1077;&#1085;&#1080;&#1077; &#1080; &#1090;&#1086;&#1082;&#1077;&#1085;</text><rect fill="#F1F1F1" height="33.9688" rx="12.5" ry="12.5" style="stroke:#181818;stroke-width:0.5;" width="213.7109" x="1100.3555" y="421.8438"/><text fill="#000000" font-family="sans-serif" font-size="12" lengthAdjust="spacing" textLength="193.7109" x="1110.3555" y="442.9824">&#1055;&#1077;&#1088;&#1077;&#1093;&#1086;&#1076; &#1085;&#1072; &#1075;&#1083;&#1072;&#1074;&#1085;&#1091;&#1102; &#1089;&#1090;&#1088;&#1072;&#1085;&#1080;&#1094;&#1091;</text><rect fill="#F1F1F1" height="33.9688" rx="12.5" ry="12.5" style="stroke:#181818;stroke-width:0.5;" width="344.7617" x="1346.3125" y="367.875"/><text fill="#000000" font-family="sans-serif" font-size="12" lengthAdjust="spacing" textLength="324.7617" x="1356.3125" y="389.0137">&#1055;&#1086;&#1082;&#1072;&#1079;&#1072;&#1090;&#1100; &#1086;&#1096;&#1080;&#1073;&#1082;&#1091; &#171;&#1055;&#1086;&#1083;&#1100;&#1079;&#1086;&#1074;&#1072;&#1090;&#1077;&#1083;&#1100; &#1091;&#1078;&#1077; &#1089;&#1091;&#1097;&#1077;&#1089;&#1090;&#1074;&#1091;&#1077;&#1090;&#187;</text><rect fill="#F1F1F1" height="33.9688" rx="12.5" ry="12.5" style="stroke:#181818;stroke-width:0.5;" width="212.7617" x="1412.3125" y="421.8438"/><text fill="#000000" font-family="sans-serif" font-size="12" lengthAdjust="spacing" textLength="192.7617" x="1422.3125" y="442.9824">&#1042;&#1086;&#1079;&#1074;&#1088;&#1072;&#1090; &#1082; &#1092;&#1086;&#1088;&#1084;&#1077; &#1088;&#1077;&#1075;&#1080;&#1089;&#1090;&#1088;&#1072;&#1094;&#1080;&#1080;</text><polygon fill="#F1F1F1" points="1362.9521,461.8125,1374.9521,473.8125,1362.9521,485.8125,1350.9521,473.8125,1362.9521,461.8125" style="stroke:#181818;stroke-width:0.5;"/><rect fill="#F1F1F1" height="33.9688" rx="12.5" ry="12.5" style="stroke:#181818;stroke-width:0.5;" width="331.9824" x="1721.0742" y="279.9063"/><text fill="#000000" font-family="sans-serif" font-size="12" lengthAdjust="spacing" textLength="311.9824" x="1731.0742" y="301.0449">&#1055;&#1086;&#1082;&#1072;&#1079;&#1072;&#1090;&#1100; &#1089;&#1086;&#1086;&#1073;&#1097;&#1077;&#1085;&#1080;&#1077; &#171;&#1055;&#1086;&#1083;&#1103; &#1079;&#1072;&#1087;&#1086;&#1083;&#1085;&#1077;&#1085;&#1099; &#1085;&#1077;&#1074;&#1077;&#1088;&#1085;&#1086;&#187;</text><rect fill="#F1F1F1" height="33.9688" rx="12.5" ry="12.5" style="stroke:#181818;stroke-width:0.5;" width="212.7617" x="1780.6846" y="333.875"/><text fill="#000000" font-family="sans-serif" font-size="12" lengthAdjust="spacing" textLength="192.7617" x="1790.6846" y="355.0137">&#1042;&#1086;&#1079;&#1074;&#1088;&#1072;&#1090; &#1082; &#1092;&#1086;&#1088;&#1084;&#1077; &#1088;&#1077;&#1075;&#1080;&#1089;&#1090;&#1088;&#1072;&#1094;&#1080;&#1080;</text><polygon fill="#F1F1F1" points="1625.0088,491.8125,1637.0088,503.8125,1625.0088,515.8125,1613.0088,503.8125,1625.0088,491.8125" style="stroke:#181818;stroke-width:0.5;"/><polygon fill="#F1F1F1" points="1110.7961,590.7813,1122.7961,602.7813,1110.7961,614.7813,1098.7961,602.7813,1110.7961,590.7813" style="stroke:#181818;stroke-width:0.5;"/><ellipse cx="1110.7961" cy="645.7813" fill="none" rx="11" ry="11" style="stroke:#222222;stroke-width:1;"/><ellipse cx="1110.7961" cy="645.7813" fill="#222222" rx="6" ry="6" style="stroke:#222222;stroke-width:1;"/><line style="stroke:#181818;stroke-width:1;" x1="1110.7961" x2="1110.7961" y1="30" y2="50"/><polygon fill="#181818" points="1106.7961,40,1110.7961,50,1114.7961,40,1110.7961,44" style="stroke:#181818;stroke-width:1;"/><line style="stroke:#181818;stroke-width:1;" x1="596.5835" x2="596.5835" y1="171.9375" y2="191.9375"/><polygon fill="#181818" points="592.5835,181.9375,596.5835,191.9375,600.5835,181.9375,596.5835,185.9375" style="stroke:#181818;stroke-width:1;"/><line style="stroke:#181818;stroke-width:1;" x1="154.5527" x2="154.5527" y1="401.8438" y2="421.8438"/><polygon fill="#181818" points="150.5527,411.8438,154.5527,421.8438,158.5527,411.8438,154.5527,415.8438" style="stroke:#181818;stroke-width:1;"/><line style="stroke:#181818;stroke-width:1;" x1="154.5527" x2="154.5527" y1="455.8125" y2="490.8125"/><polygon fill="#181818" points="150.5527,480.8125,154.5527,490.8125,158.5527,480.8125,154.5527,484.8125" style="stroke:#181818;stroke-width:1;"/><line style="stroke:#181818;stroke-width:1;" x1="493.9258" x2="493.9258" y1="401.8438" y2="421.8438"/><polygon fill="#181818" points="489.9258,411.8438,493.9258,421.8438,497.9258,411.8438,493.9258,415.8438" style="stroke:#181818;stroke-width:1;"/><line style="stroke:#181818;stroke-width:1;" x1="242.936" x2="154.5527" y1="345.875" y2="345.875"/><line style="stroke:#181818;stroke-width:1;" x1="154.5527" x2="154.5527" y1="345.875" y2="367.875"/><polygon fill="#181818" points="150.5527,357.875,154.5527,367.875,158.5527,357.875,154.5527,361.875" style="stroke:#181818;stroke-width:1;"/><line style="stroke:#181818;stroke-width:1;" x1="405.5425" x2="493.9258" y1="345.875" y2="345.875"/><line style="stroke:#181818;stroke-width:1;" x1="493.9258" x2="493.9258" y1="345.875" y2="367.875"/><polygon fill="#181818" points="489.9258,357.875,493.9258,367.875,497.9258,357.875,493.9258,361.875" style="stroke:#181818;stroke-width:1;"/><line style="stroke:#181818;stroke-width:1;" x1="154.5527" x2="154.5527" y1="524.7813" y2="542.7813"/><line style="stroke:#181818;stroke-width:1;" x1="154.5527" x2="312.2393" y1="542.7813" y2="542.7813"/><polygon fill="#181818" points="302.2393,538.7813,312.2393,542.7813,302.2393,546.7813,306.2393,542.7813" style="stroke:#181818;stroke-width:1;"/><line style="stroke:#181818;stroke-width:1;" x1="493.9258" x2="493.9258" y1="455.8125" y2="542.7813"/><line style="stroke:#181818;stroke-width:1;" x1="493.9258" x2="336.2393" y1="542.7813" y2="542.7813"/><polygon fill="#181818" points="346.2393,538.7813,336.2393,542.7813,346.2393,546.7813,342.2393,542.7813" style="stroke:#181818;stroke-width:1;"/><line style="stroke:#181818;stroke-width:1;" x1="324.2393" x2="324.2393" y1="313.875" y2="333.875"/><polygon fill="#181818" points="320.2393,323.875,324.2393,333.875,328.2393,323.875,324.2393,327.875" style="stroke:#181818;stroke-width:1;"/><line style="stroke:#181818;stroke-width:1;" x1="868.9277" x2="868.9277" y1="313.875" y2="333.875"/><polygon fill="#181818" points="864.9277,323.875,868.9277,333.875,872.9277,323.875,868.9277,327.875" style="stroke:#181818;stroke-width:1;"/><line style="stroke:#181818;stroke-width:1;" x1="485.1646" x2="324.2393" y1="257.9063" y2="257.9063"/><line style="stroke:#181818;stroke-width:1;" x1="324.2393" x2="324.2393" y1="257.9063" y2="279.9063"/><polygon fill="#181818" points="320.2393,269.9063,324.2393,279.9063,328.2393,269.9063,324.2393,273.9063" style="stroke:#181818;stroke-width:1;"/><line style="stroke:#181818;stroke-width:1;" x1="708.0024" x2="868.9277" y1="257.9063" y2="257.9063"/><line style="stroke:#181818;stroke-width:1;" x1="868.9277" x2="868.9277" y1="257.9063" y2="279.9063"/><polygon fill="#181818" points="864.9277,269.9063,868.9277,279.9063,872.9277,269.9063,868.9277,273.9063" style="stroke:#181818;stroke-width:1;"/><line style="stroke:#181818;stroke-width:1;" x1="324.2393" x2="324.2393" y1="554.7813" y2="572.7813"/><line style="stroke:#181818;stroke-width:1;" x1="324.2393" x2="584.5835" y1="572.7813" y2="572.7813"/><polygon fill="#181818" points="574.5835,568.7813,584.5835,572.7813,574.5835,576.7813,578.5835,572.7813" style="stroke:#181818;stroke-width:1;"/><line style="stroke:#181818;stroke-width:1;" x1="868.9277" x2="868.9277" y1="367.8438" y2="572.7813"/><line style="stroke:#181818;stroke-width:1;" x1="868.9277" x2="608.5835" y1="572.7813" y2="572.7813"/><polygon fill="#181818" points="618.5835,568.7813,608.5835,572.7813,618.5835,576.7813,614.5835,572.7813" style="stroke:#181818;stroke-width:1;"/><line style="stroke:#181818;stroke-width:1;" x1="596.5835" x2="596.5835" y1="225.9063" y2="245.9063"/><polygon fill="#181818" points="592.5835,235.9063,596.5835,245.9063,600.5835,235.9063,596.5835,239.9063" style="stroke:#181818;stroke-width:1;"/><line style="stroke:#181818;stroke-width:1;" x1="1625.0088" x2="1625.0088" y1="171.9375" y2="191.9375"/><polygon fill="#181818" points="1621.0088,181.9375,1625.0088,191.9375,1629.0088,181.9375,1625.0088,185.9375" style="stroke:#181818;stroke-width:1;"/><line style="stroke:#181818;stroke-width:1;" x1="1207.2109" x2="1207.2109" y1="401.8438" y2="421.8438"/><polygon fill="#181818" points="1203.2109,411.8438,1207.2109,421.8438,1211.2109,411.8438,1207.2109,415.8438" style="stroke:#181818;stroke-width:1;"/><line style="stroke:#181818;stroke-width:1;" x1="1518.6934" x2="1518.6934" y1="401.8438" y2="421.8438"/><polygon fill="#181818" points="1514.6934,411.8438,1518.6934,421.8438,1522.6934,411.8438,1518.6934,415.8438" style="stroke:#181818;stroke-width:1;"/><line style="stroke:#181818;stroke-width:1;" x1="1279.0869" x2="1207.2109" y1="345.875" y2="345.875"/><line style="stroke:#181818;stroke-width:1;" x1="1207.2109" x2="1207.2109" y1="345.875" y2="367.875"/><polygon fill="#181818" points="1203.2109,357.875,1207.2109,367.875,1211.2109,357.875,1207.2109,361.875" style="stroke:#181818;stroke-width:1;"/><line style="stroke:#181818;stroke-width:1;" x1="1446.8174" x2="1518.6934" y1="345.875" y2="345.875"/><line style="stroke:#181818;stroke-width:1;" x1="1518.6934" x2="1518.6934" y1="345.875" y2="367.875"/><polygon fill="#181818" points="1514.6934,357.875,1518.6934,367.875,1522.6934,357.875,1518.6934,361.875" style="stroke:#181818;stroke-width:1;"/><line style="stroke:#181818;stroke-width:1;" x1="1207.2109" x2="1207.2109" y1="455.8125" y2="473.8125"/><line style="stroke:#181818;stroke-width:1;" x1="1207.2109" x2="1350.9521" y1="473.8125" y2="473.8125"/><polygon fill="#181818" points="1340.9521,469.8125,1350.9521,473.8125,1340.9521,477.8125,1344.9521,473.8125" style="stroke:#181818;stroke-width:1;"/><line style="stroke:#181818;stroke-width:1;" x1="1518.6934" x2="1518.6934" y1="455.8125" y2="473.8125"/><line style="stroke:#181818;stroke-width:1;" x1="1518.6934" x2="1374.9521" y1="473.8125" y2="473.8125"/><polygon fill="#181818" points="1384.9521,469.8125,1374.9521,473.8125,1384.9521,477.8125,1380.9521,473.8125" style="stroke:#181818;stroke-width:1;"/><line style="stroke:#181818;stroke-width:1;" x1="1362.9521" x2="1362.9521" y1="313.875" y2="333.875"/><polygon fill="#181818" points="1358.9521,323.875,1362.9521,333.875,1366.9521,323.875,1362.9521,327.875" style="stroke:#181818;stroke-width:1;"/><line style="stroke:#181818;stroke-width:1;" x1="1887.0654" x2="1887.0654" y1="313.875" y2="333.875"/><polygon fill="#181818" points="1883.0654,323.875,1887.0654,333.875,1891.0654,323.875,1887.0654,327.875" style="stroke:#181818;stroke-width:1;"/><line style="stroke:#181818;stroke-width:1;" x1="1546.05" x2="1362.9521" y1="257.9063" y2="257.9063"/><line style="stroke:#181818;stroke-width:1;" x1="1362.9521" x2="1362.9521" y1="257.9063" y2="279.9063"/><polygon fill="#181818" points="1358.9521,269.9063,1362.9521,279.9063,1366.9521,269.9063,1362.9521,273.9063" style="stroke:#181818;stroke-width:1;"/><line style="stroke:#181818;stroke-width:1;" x1="1703.9675" x2="1887.0654" y1="257.9063" y2="257.9063"/><line style="stroke:#181818;stroke-width:1;" x1="1887.0654" x2="1887.0654" y1="257.9063" y2="279.9063"/><polygon fill="#181818" points="1883.0654,269.9063,1887.0654,279.9063,1891.0654,269.9063,1887.0654,273.9063" style="stroke:#181818;stroke-width:1;"/><line style="stroke:#181818;stroke-width:1;" x1="1362.9521" x2="1362.9521" y1="485.8125" y2="503.8125"/><line style="stroke:#181818;stroke-width:1;" x1="1362.9521" x2="1613.0088" y1="503.8125" y2="503.8125"/><polygon fill="#181818" points="1603.0088,499.8125,1613.0088,503.8125,1603.0088,507.8125,1607.0088,503.8125" style="stroke:#181818;stroke-width:1;"/><line style="stroke:#181818;stroke-width:1;" x1="1887.0654" x2="1887.0654" y1="367.8438" y2="503.8125"/><line style="stroke:#181818;stroke-width:1;" x1="1887.0654" x2="1637.0088" y1="503.8125" y2="503.8125"/><polygon fill="#181818" points="1647.0088,499.8125,1637.0088,503.8125,1647.0088,507.8125,1643.0088,503.8125" style="stroke:#181818;stroke-width:1;"/><line style="stroke:#181818;stroke-width:1;" x1="1625.0088" x2="1625.0088" y1="225.9063" y2="245.9063"/><polygon fill="#181818" points="1621.0088,235.9063,1625.0088,245.9063,1629.0088,235.9063,1625.0088,239.9063" style="stroke:#181818;stroke-width:1;"/><line style="stroke:#181818;stroke-width:1;" x1="991.6294" x2="596.5835" y1="115.9688" y2="115.9688"/><line style="stroke:#181818;stroke-width:1;" x1="596.5835" x2="596.5835" y1="115.9688" y2="137.9688"/><polygon fill="#181818" points="592.5835,127.9688,596.5835,137.9688,600.5835,127.9688,596.5835,131.9688" style="stroke:#181818;stroke-width:1;"/><line style="stroke:#181818;stroke-width:1;" x1="1229.9629" x2="1625.0088" y1="115.9688" y2="115.9688"/><line style="stroke:#181818;stroke-width:1;" x1="1625.0088" x2="1625.0088" y1="115.9688" y2="137.9688"/><polygon fill="#181818" points="1621.0088,127.9688,1625.0088,137.9688,1629.0088,127.9688,1625.0088,131.9688" style="stroke:#181818;stroke-width:1;"/><line style="stroke:#181818;stroke-width:1;" x1="596.5835" x2="596.5835" y1="584.7813" y2="602.7813"/><line style="stroke:#181818;stroke-width:1;" x1="596.5835" x2="1098.7961" y1="602.7813" y2="602.7813"/><polygon fill="#181818" points="1088.7961,598.7813,1098.7961,602.7813,1088.7961,606.7813,1092.7961,602.7813" style="stroke:#181818;stroke-width:1;"/><line style="stroke:#181818;stroke-width:1;" x1="1625.0088" x2="1625.0088" y1="515.8125" y2="602.7813"/><line style="stroke:#181818;stroke-width:1;" x1="1625.0088" x2="1122.7961" y1="602.7813" y2="602.7813"/><polygon fill="#181818" points="1132.7961,598.7813,1122.7961,602.7813,1132.7961,606.7813,1128.7961,602.7813" style="stroke:#181818;stroke-width:1;"/><line style="stroke:#181818;stroke-width:1;" x1="1110.7961" x2="1110.7961" y1="83.9688" y2="103.9688"/><polygon fill="#181818" points="1106.7961,93.9688,1110.7961,103.9688,1114.7961,93.9688,1110.7961,97.9688" style="stroke:#181818;stroke-width:1;"/><line style="stroke:#181818;stroke-width:1;" x1="1110.7961" x2="1110.7961" y1="614.7813" y2="634.7813"/><polygon fill="#181818" points="1106.7961,624.7813,1110.7961,634.7813,1114.7961,624.7813,1110.7961,628.7813" style="stroke:#181818;stroke-width:1;"/><!--SRC=[jLHDRzf04BtxLumu9L8hxl4XzvuhzOnK9x54IGJk7N19Kpag4ghKKvlct0jG71m-Z9HVCFEF-cQNsgQO5YfLI3RUdPttPkQzRGMrPk0u9_nLkZoJjaJIbLkI3bvj7lAI4xcMa7WiFKvvmaEg4dPY_e6TTPHSSyA9w_XdT5JXEyJDvPQdU8-nsKKmlZL5n2ESqhonT0dPOdxK98XBEAwS7bDmuJNeY0SMxTWXEZ49PpWprMHAxXsdIBBOeELceUNO-6bS0bpl-PkQNoTEY5U8QTipci0MC90EnxgdwtrINFk1RiIyb8X01mnC6sR0M79wMicuV-AXybOwsjILgNUio4h495DCwH0E3ad1y3tM9rLhLtwrzZQugDOlp_s6Q_9OLlU5CFi2bP3d925IhB3GAoEHToMKzsiIBrwz933Jhg8UDukx1wjUDdRJwYmAc8GEs4beYr4qBoYFnsOY7pXs2x1AChOJiiL2DNFJ3L2NZrioisUzUij32LzK99j5RAYWWuMKHuffy6Dw-gw7ikP4_6WfGwfQWA6uCVEdUSvsWAKfzAHwXZPdcSnK2nio0yF6Q__CAMEwpTDCE-O9PcN_FHZTPum_5zILg60LhIZ0NoGFeMW9hkbzstQhzFzghLqctzjc25z8_zd1TllDMnBzaxTo9pMzSxyLUCsYcKfRaZlfHiMwhviCyucvn5HtnV6YvZAV_LzZeFmRe8_Glb05jcjO4EG3E08gL0_PUnYBIBwlBtPhv32Fb7lvxWyNy3BtEQVxEMGtsRLRpDDf1PTNFm40]--></g></svg>