<svg xmlns="http://www.w3.org/2000/svg" xmlns:xlink="http://www.w3.org/1999/xlink" contentStyleType="text/css" data-diagram-type="ACTIVITY" height="416px" preserveAspectRatio="none" style="width:517px;height:416px;background:#FFFFFF;" version="1.1" viewBox="0 0 517 416" width="517px" zoomAndPan="magnify"><defs/><g><ellipse cx="275.8804" cy="20" fill="#222222" rx="10" ry="10" style="stroke:#222222;stroke-width:1;"/><rect fill="#F1F1F1" height="33.9688" rx="12.5" ry="12.5" style="stroke:#181818;stroke-width:0.5;" width="203.4629" x="174.1489" y="50"/><text fill="#000000" font-family="sans-serif" font-size="12" lengthAdjust="spacing" textLength="183.4629" x="184.1489" y="71.1387">&#1054;&#1090;&#1082;&#1088;&#1099;&#1090;&#1100; &#1089;&#1090;&#1088;&#1072;&#1085;&#1080;&#1094;&#1091; &#1089; &#1079;&#1072;&#1082;&#1072;&#1079;&#1086;&#1084;</text><rect fill="#F1F1F1" height="33.9688" rx="12.5" ry="12.5" style="stroke:#181818;stroke-width:0.5;" width="199.7539" x="176.0034" y="103.9688"/><text fill="#000000" font-family="sans-serif" font-size="12" lengthAdjust="spacing" textLength="179.7539" x="186.0034" y="125.1074">&#1053;&#1072;&#1078;&#1072;&#1090;&#1100; "&#1054;&#1090;&#1087;&#1088;&#1072;&#1074;&#1080;&#1090;&#1100; &#1086;&#1090;&#1082;&#1083;&#1080;&#1082;"</text><rect fill="#F1F1F1" height="33.9688" rx="12.5" ry="12.5" style="stroke:#181818;stroke-width:0.5;" width="241.5488" x="155.106" y="157.9375"/><text fill="#000000" font-family="sans-serif" font-size="12" lengthAdjust="spacing" textLength="221.5488" x="165.106" y="179.0762">&#1047;&#1072;&#1087;&#1086;&#1083;&#1085;&#1080;&#1090;&#1100; &#1086;&#1087;&#1080;&#1089;&#1072;&#1085;&#1080;&#1077;, &#1094;&#1077;&#1085;&#1091; &#1080; &#1089;&#1088;&#1086;&#1082;&#1080;</text><polygon fill="#F1F1F1" points="226.4717,211.9063,325.2891,211.9063,337.2891,223.9063,325.2891,235.9063,226.4717,235.9063,214.4717,223.9063,226.4717,211.9063" style="stroke:#181818;stroke-width:0.5;"/><text fill="#000000" font-family="sans-serif" font-size="11" lengthAdjust="spacing" textLength="98.8174" x="226.4717" y="227.7144">&#1042;&#1074;&#1086;&#1076; &#1082;&#1086;&#1088;&#1088;&#1077;&#1082;&#1090;&#1077;&#1085;?</text><text fill="#000000" font-family="sans-serif" font-size="11" lengthAdjust="spacing" textLength="15.3345" x="199.1372" y="221.312">&#1044;&#1072;</text><text fill="#000000" font-family="sans-serif" font-size="11" lengthAdjust="spacing" textLength="21.4468" x="337.2891" y="221.312">&#1053;&#1077;&#1090;</text><rect fill="#F1F1F1" height="33.9688" rx="12.5" ry="12.5" style="stroke:#181818;stroke-width:0.5;" width="167.9199" x="63.0313" y="245.9063"/><text fill="#000000" font-family="sans-serif" font-size="12" lengthAdjust="spacing" textLength="147.9199" x="73.0313" y="267.0449">&#1057;&#1086;&#1093;&#1088;&#1072;&#1085;&#1080;&#1090;&#1100; &#1086;&#1090;&#1082;&#1083;&#1080;&#1082; &#1074; &#1041;&#1044;</text><rect fill="#F1F1F1" height="33.9688" rx="12.5" ry="12.5" style="stroke:#181818;stroke-width:0.5;" width="271.9824" x="11" y="299.875"/><text fill="#000000" font-family="sans-serif" font-size="12" lengthAdjust="spacing" textLength="251.9824" x="21" y="321.0137">&#1054;&#1090;&#1087;&#1088;&#1072;&#1074;&#1080;&#1090;&#1100; &#1091;&#1074;&#1077;&#1076;&#1086;&#1084;&#1083;&#1077;&#1085;&#1080;&#1077; &#1088;&#1072;&#1073;&#1086;&#1090;&#1086;&#1076;&#1072;&#1090;&#1077;&#1083;&#1102;</text><rect fill="#F1F1F1" height="33.9688" rx="12.5" ry="12.5" style="stroke:#181818;stroke-width:0.5;" width="203.5742" x="302.9824" y="245.9063"/><text fill="#000000" font-family="sans-serif" font-size="12" lengthAdjust="spacing" textLength="183.5742" x="312.9824" y="267.0449">&#1055;&#1086;&#1082;&#1072;&#1079;&#1072;&#1090;&#1100; &#1086;&#1096;&#1080;&#1073;&#1082;&#1091; &#1074;&#1072;&#1083;&#1080;&#1076;&#1072;&#1094;&#1080;&#1080;</text><polygon fill="#F1F1F1" points="275.8804,339.8438,287.8804,351.8438,275.8804,363.8438,263.8804,351.8438,275.8804,339.8438" style="stroke:#181818;stroke-width:0.5;"/><ellipse cx="275.8804" cy="394.8438" fill="none" rx="11" ry="11" style="stroke:#222222;stroke-width:1;"/><ellipse cx="275.8804" cy="394.8438" fill="#222222" rx="6" ry="6" style="stroke:#222222;stroke-width:1;"/><line style="stroke:#181818;stroke-width:1;" x1="275.8804" x2="275.8804" y1="30" y2="50"/><polygon fill="#181818" points="271.8804,40,275.8804,50,279.8804,40,275.8804,44" style="stroke:#181818;stroke-width:1;"/><line style="stroke:#181818;stroke-width:1;" x1="275.8804" x2="275.8804" y1="83.9688" y2="103.9688"/><polygon fill="#181818" points="271.8804,93.9688,275.8804,103.9688,279.8804,93.9688,275.8804,97.9688" style="stroke:#181818;stroke-width:1;"/><line style="stroke:#181818;stroke-width:1;" x1="275.8804" x2="275.8804" y1="137.9375" y2="157.9375"/><polygon fill="#181818" points="271.8804,147.9375,275.8804,157.9375,279.8804,147.9375,275.8804,151.9375" style="stroke:#181818;stroke-width:1;"/><line style="stroke:#181818;stroke-width:1;" x1="146.9912" x2="146.9912" y1="279.875" y2="299.875"/><polygon fill="#181818" points="142.9912,289.875,146.9912,299.875,150.9912,289.875,146.9912,293.875" style="stroke:#181818;stroke-width:1;"/><line style="stroke:#181818;stroke-width:1;" x1="214.4717" x2="146.9912" y1="223.9063" y2="223.9063"/><line style="stroke:#181818;stroke-width:1;" x1="146.9912" x2="146.9912" y1="223.9063" y2="245.9063"/><polygon fill="#181818" points="142.9912,235.9063,146.9912,245.9063,150.9912,235.9063,146.9912,239.9063" style="stroke:#181818;stroke-width:1;"/><line style="stroke:#181818;stroke-width:1;" x1="337.2891" x2="404.7695" y1="223.9063" y2="223.9063"/><line style="stroke:#181818;stroke-width:1;" x1="404.7695" x2="404.7695" y1="223.9063" y2="245.9063"/><polygon fill="#181818" points="400.7695,235.9063,404.7695,245.9063,408.7695,235.9063,404.7695,239.9063" style="stroke:#181818;stroke-width:1;"/><line style="stroke:#181818;stroke-width:1;" x1="146.9912" x2="146.9912" y1="333.8438" y2="351.8438"/><line style="stroke:#181818;stroke-width:1;" x1="146.9912" x2="263.8804" y1="351.8438" y2="351.8438"/><polygon fill="#181818" points="253.8804,347.8438,263.8804,351.8438,253.8804,355.8438,257.8804,351.8438" style="stroke:#181818;stroke-width:1;"/><line style="stroke:#181818;stroke-width:1;" x1="404.7695" x2="404.7695" y1="279.875" y2="351.8438"/><line style="stroke:#181818;stroke-width:1;" x1="404.7695" x2="287.8804" y1="351.8438" y2="351.8438"/><polygon fill="#181818" points="297.8804,347.8438,287.8804,351.8438,297.8804,355.8438,293.8804,351.8438" style="stroke:#181818;stroke-width:1;"/><line style="stroke:#181818;stroke-width:1;" x1="275.8804" x2="275.8804" y1="191.9063" y2="211.9063"/><polygon fill="#181818" points="271.8804,201.9063,275.8804,211.9063,279.8804,201.9063,275.8804,205.9063" style="stroke:#181818;stroke-width:1;"/><line style="stroke:#181818;stroke-width:1;" x1="275.8804" x2="275.8804" y1="363.8438" y2="383.8438"/><polygon fill="#181818" points="271.8804,373.8438,275.8804,383.8438,279.8804,373.8438,275.8804,377.8438" style="stroke:#181818;stroke-width:1;"/><!--SRC=[NL1DIiD05Dxd58-kB7W2i_0iWYajI1MJ0wGfXe8YA0LNLRn16ZfscDZq2j-xaT-RgA2BC9dtlj_9YulR8Zd3grO8MkgzLleWkk1Hei41NcjTSY3OynxuxT7ZCoLdmyi7ciWOHOLZ9BKasGozYQA3HnWPuONB8zbTr1qW77XT35Pmfw8r70wqXBSO9H41Farc4pd1CxLxx8IZdc5BGWCzI3WVIp7DviIiqOpfzKx4tM-7_t44hU09w_Ix-j_WkkIlmywA4k-6R18nsoZ345QSgquVqoIxoZDQR-2qClEtcDgUglcnNb5YoxGird9ZAKoYvibssVnoDadoulhc2m00]--></g></svg>