<svg xmlns="http://www.w3.org/2000/svg" xmlns:xlink="http://www.w3.org/1999/xlink" contentStyleType="text/css" data-diagram-type="CLASS" height="760px" preserveAspectRatio="none" style="width:1320px;height:760px;background:#FFFFFF;" version="1.1" viewBox="0 0 1320 760" width="1320px" zoomAndPan="magnify"><defs/><g><!--class User--><g class="entity" data-entity="User" data-source-line="4" data-uid="ent0002" id="entity_User"><rect fill="#F1F1F1" height="210.9688" rx="2.5" ry="2.5" style="stroke:#181818;stroke-width:0.5;" width="171.9473" x="29.5" y="156"/><ellipse cx="95.2686" cy="172" fill="#ADD1B2" rx="11" ry="11" style="stroke:#181818;stroke-width:1;"/><path d="M98.2373,177.6406 Q97.6592,177.9375 97.0186,178.0781 Q96.3779,178.2344 95.6748,178.2344 Q93.1748,178.2344 91.8467,176.5938 Q90.5342,174.9375 90.5342,171.8125 Q90.5342,168.6875 91.8467,167.0313 Q93.1748,165.375 95.6748,165.375 Q96.3779,165.375 97.0186,165.5313 Q97.6748,165.6875 98.2373,165.9844 L98.2373,168.7031 Q97.6123,168.125 97.0186,167.8594 Q96.4248,167.5781 95.7998,167.5781 Q94.4561,167.5781 93.7686,168.6563 Q93.0811,169.7188 93.0811,171.8125 Q93.0811,173.9063 93.7686,174.9844 Q94.4561,176.0469 95.7998,176.0469 Q96.4248,176.0469 97.0186,175.7813 Q97.6123,175.5 98.2373,174.9219 L98.2373,177.6406 Z " fill="#000000"/><text fill="#000000" font-family="sans-serif" font-size="14" lengthAdjust="spacing" textLength="31.9102" x="115.7686" y="176.8467">User</text><line style="stroke:#181818;stroke-width:0.5;" x1="30.5" x2="200.4473" y1="188" y2="188"/><text fill="#000000" font-family="sans-serif" font-size="14" lengthAdjust="spacing" textLength="63.082" x="35.5" y="204.9951">+Long id</text><text fill="#000000" font-family="sans-serif" font-size="14" lengthAdjust="spacing" textLength="97.665" x="35.5" y="221.292">+String name</text><text fill="#000000" font-family="sans-serif" font-size="14" lengthAdjust="spacing" textLength="96.5713" x="35.5" y="237.5889">+String email</text><text fill="#000000" font-family="sans-serif" font-size="14" lengthAdjust="spacing" textLength="159.9473" x="35.5" y="253.8857">+String passwordHash</text><text fill="#000000" font-family="sans-serif" font-size="14" lengthAdjust="spacing" textLength="73.8008" x="35.5" y="270.1826">+Role role</text><text fill="#000000" font-family="sans-serif" font-size="14" lengthAdjust="spacing" textLength="105.3691" x="35.5" y="286.4795">+double rating</text><line style="stroke:#181818;stroke-width:1;" x1="30.5" x2="200.4473" y1="293.7813" y2="293.7813"/><text fill="#000000" font-family="sans-serif" font-size="14" lengthAdjust="spacing" textLength="76.9521" x="35.5" y="310.7764">+register()</text><text fill="#000000" font-family="sans-serif" font-size="14" lengthAdjust="spacing" textLength="56.7588" x="35.5" y="327.0732">+login()</text><text fill="#000000" font-family="sans-serif" font-size="14" lengthAdjust="spacing" textLength="66.9238" x="35.5" y="343.3701">+logout()</text><text fill="#000000" font-family="sans-serif" font-size="14" lengthAdjust="spacing" textLength="116.0674" x="35.5" y="359.667">+updateProfile()</text></g><!--class Profile--><g class="entity" data-entity="Profile" data-source-line="18" data-uid="ent0003" id="entity_Profile"><rect fill="#F1F1F1" height="162.0781" rx="2.5" ry="2.5" style="stroke:#181818;stroke-width:0.5;" width="216.9688" x="7" y="435"/><ellipse cx="89.1919" cy="451" fill="#ADD1B2" rx="11" ry="11" style="stroke:#181818;stroke-width:1;"/><path d="M92.1606,456.6406 Q91.5825,456.9375 90.9419,457.0781 Q90.3013,457.2344 89.5981,457.2344 Q87.0981,457.2344 85.77,455.5938 Q84.4575,453.9375 84.4575,450.8125 Q84.4575,447.6875 85.77,446.0313 Q87.0981,444.375 89.5981,444.375 Q90.3013,444.375 90.9419,444.5313 Q91.5981,444.6875 92.1606,444.9844 L92.1606,447.7031 Q91.5356,447.125 90.9419,446.8594 Q90.3481,446.5781 89.7231,446.5781 Q88.3794,446.5781 87.6919,447.6563 Q87.0044,448.7188 87.0044,450.8125 Q87.0044,452.9063 87.6919,453.9844 Q88.3794,455.0469 89.7231,455.0469 Q90.3481,455.0469 90.9419,454.7813 Q91.5356,454.5 92.1606,453.9219 L92.1606,456.6406 Z " fill="#000000"/><text fill="#000000" font-family="sans-serif" font-size="14" lengthAdjust="spacing" textLength="44.085" x="109.6919" y="455.8467">Profile</text><line style="stroke:#181818;stroke-width:0.5;" x1="8" x2="222.9688" y1="467" y2="467"/><text fill="#000000" font-family="sans-serif" font-size="14" lengthAdjust="spacing" textLength="63.082" x="13" y="483.9951">+Long id</text><text fill="#000000" font-family="sans-serif" font-size="14" lengthAdjust="spacing" textLength="79.3037" x="13" y="500.292">+String bio</text><text fill="#000000" font-family="sans-serif" font-size="14" lengthAdjust="spacing" textLength="140.2598" x="13" y="516.5889">+List&lt;String&gt; skills</text><text fill="#000000" font-family="sans-serif" font-size="14" lengthAdjust="spacing" textLength="204.9688" x="13" y="532.8857">+List&lt;Attachment&gt; portfolio</text><line style="stroke:#181818;stroke-width:1;" x1="8" x2="222.9688" y1="540.1875" y2="540.1875"/><text fill="#000000" font-family="sans-serif" font-size="14" lengthAdjust="spacing" textLength="71.5928" x="13" y="557.1826">+editBio()</text><text fill="#000000" font-family="sans-serif" font-size="14" lengthAdjust="spacing" textLength="77.6699" x="13" y="573.4795">+addSkill()</text><text fill="#000000" font-family="sans-serif" font-size="14" lengthAdjust="spacing" textLength="138.9678" x="13" y="589.7764">+addPortfolioItem()</text></g><!--class JobPost--><g class="entity" data-entity="JobPost" data-source-line="29" data-uid="ent0004" id="entity_JobPost"><rect fill="#F1F1F1" height="227.2656" rx="2.5" ry="2.5" style="stroke:#181818;stroke-width:0.5;" width="153.9141" x="395.5" y="148"/><ellipse cx="442.521" cy="164" fill="#ADD1B2" rx="11" ry="11" style="stroke:#181818;stroke-width:1;"/><path d="M445.4897,169.6406 Q444.9116,169.9375 444.271,170.0781 Q443.6304,170.2344 442.9272,170.2344 Q440.4272,170.2344 439.0991,168.5938 Q437.7866,166.9375 437.7866,163.8125 Q437.7866,160.6875 439.0991,159.0313 Q440.4272,157.375 442.9272,157.375 Q443.6304,157.375 444.271,157.5313 Q444.9272,157.6875 445.4897,157.9844 L445.4897,160.7031 Q444.8647,160.125 444.271,159.8594 Q443.6772,159.5781 443.0522,159.5781 Q441.7085,159.5781 441.021,160.6563 Q440.3335,161.7188 440.3335,163.8125 Q440.3335,165.9063 441.021,166.9844 Q441.7085,168.0469 443.0522,168.0469 Q443.6772,168.0469 444.271,167.7813 Q444.8647,167.5 445.4897,166.9219 L445.4897,169.6406 Z " fill="#000000"/><text fill="#000000" font-family="sans-serif" font-size="14" lengthAdjust="spacing" textLength="51.3721" x="463.021" y="168.8467">JobPost</text><line style="stroke:#181818;stroke-width:0.5;" x1="396.5" x2="548.4141" y1="180" y2="180"/><text fill="#000000" font-family="sans-serif" font-size="14" lengthAdjust="spacing" textLength="63.082" x="401.5" y="196.9951">+Long id</text><text fill="#000000" font-family="sans-serif" font-size="14" lengthAdjust="spacing" textLength="85.333" x="401.5" y="213.292">+String title</text><text fill="#000000" font-family="sans-serif" font-size="14" lengthAdjust="spacing" textLength="135.8027" x="401.5" y="229.5889">+String description</text><text fill="#000000" font-family="sans-serif" font-size="14" lengthAdjust="spacing" textLength="112.2324" x="401.5" y="245.8857">+Money budget</text><text fill="#000000" font-family="sans-serif" font-size="14" lengthAdjust="spacing" textLength="125.3916" x="401.5" y="262.1826">+JobStatus status</text><text fill="#000000" font-family="sans-serif" font-size="14" lengthAdjust="spacing" textLength="112.4443" x="401.5" y="278.4795">+Date postedAt</text><line style="stroke:#181818;stroke-width:1;" x1="396.5" x2="548.4141" y1="285.7813" y2="285.7813"/><text fill="#000000" font-family="sans-serif" font-size="14" lengthAdjust="spacing" textLength="67.4023" x="401.5" y="302.7764">+create()</text><text fill="#000000" font-family="sans-serif" font-size="14" lengthAdjust="spacing" textLength="49.5332" x="401.5" y="319.0732">+edit()</text><text fill="#000000" font-family="sans-serif" font-size="14" lengthAdjust="spacing" textLength="73.2471" x="401.5" y="335.3701">+publish()</text><text fill="#000000" font-family="sans-serif" font-size="14" lengthAdjust="spacing" textLength="58.7139" x="401.5" y="351.667">+close()</text><text fill="#000000" font-family="sans-serif" font-size="14" lengthAdjust="spacing" textLength="141.9141" x="401.5" y="367.9639">+assignFreelancer()</text></g><!--class Offer--><g class="entity" data-entity="Offer" data-source-line="44" data-uid="ent0005" id="entity_Offer"><rect fill="#F1F1F1" height="178.375" rx="2.5" ry="2.5" style="stroke:#181818;stroke-width:0.5;" width="151.0566" x="585" y="172.5"/><ellipse cx="638.6553" cy="188.5" fill="#ADD1B2" rx="11" ry="11" style="stroke:#181818;stroke-width:1;"/><path d="M641.624,194.1406 Q641.0459,194.4375 640.4053,194.5781 Q639.7646,194.7344 639.0615,194.7344 Q636.5615,194.7344 635.2334,193.0938 Q633.9209,191.4375 633.9209,188.3125 Q633.9209,185.1875 635.2334,183.5313 Q636.5615,181.875 639.0615,181.875 Q639.7646,181.875 640.4053,182.0313 Q641.0615,182.1875 641.624,182.4844 L641.624,185.2031 Q640.999,184.625 640.4053,184.3594 Q639.8115,184.0781 639.1865,184.0781 Q637.8428,184.0781 637.1553,185.1563 Q636.4678,186.2188 636.4678,188.3125 Q636.4678,190.4063 637.1553,191.4844 Q637.8428,192.5469 639.1865,192.5469 Q639.8115,192.5469 640.4053,192.2813 Q640.999,192 641.624,191.4219 L641.624,194.1406 Z " fill="#000000"/><text fill="#000000" font-family="sans-serif" font-size="14" lengthAdjust="spacing" textLength="35.2461" x="659.1553" y="193.3467">Offer</text><line style="stroke:#181818;stroke-width:0.5;" x1="586" x2="735.0566" y1="204.5" y2="204.5"/><text fill="#000000" font-family="sans-serif" font-size="14" lengthAdjust="spacing" textLength="63.082" x="591" y="221.4951">+Long id</text><text fill="#000000" font-family="sans-serif" font-size="14" lengthAdjust="spacing" textLength="97.4395" x="591" y="237.792">+Money price</text><text fill="#000000" font-family="sans-serif" font-size="14" lengthAdjust="spacing" textLength="138.6396" x="591" y="254.0889">+String coverLetter</text><text fill="#000000" font-family="sans-serif" font-size="14" lengthAdjust="spacing" textLength="139.0566" x="591" y="270.3857">+OfferStatus status</text><line style="stroke:#181818;stroke-width:1;" x1="586" x2="735.0566" y1="277.6875" y2="277.6875"/><text fill="#000000" font-family="sans-serif" font-size="14" lengthAdjust="spacing" textLength="70.7246" x="591" y="294.6826">+submit()</text><text fill="#000000" font-family="sans-serif" font-size="14" lengthAdjust="spacing" textLength="68.0039" x="591" y="310.9795">+cancel()</text><text fill="#000000" font-family="sans-serif" font-size="14" lengthAdjust="spacing" textLength="69.6172" x="591" y="327.2764">+accept()</text><text fill="#000000" font-family="sans-serif" font-size="14" lengthAdjust="spacing" textLength="62.7129" x="591" y="343.5732">+reject()</text></g><!--class Order--><g class="entity" data-entity="Order" data-source-line="56" data-uid="ent0006" id="entity_Order"><rect fill="#F1F1F1" height="162.0781" rx="2.5" ry="2.5" style="stroke:#181818;stroke-width:0.5;" width="158.3301" x="771.5" y="180.5"/><ellipse cx="826.3994" cy="196.5" fill="#ADD1B2" rx="11" ry="11" style="stroke:#181818;stroke-width:1;"/><path d="M829.3682,202.1406 Q828.79,202.4375 828.1494,202.5781 Q827.5088,202.7344 826.8057,202.7344 Q824.3057,202.7344 822.9775,201.0938 Q821.665,199.4375 821.665,196.3125 Q821.665,193.1875 822.9775,191.5313 Q824.3057,189.875 826.8057,189.875 Q827.5088,189.875 828.1494,190.0313 Q828.8057,190.1875 829.3682,190.4844 L829.3682,193.2031 Q828.7432,192.625 828.1494,192.3594 Q827.5557,192.0781 826.9307,192.0781 Q825.5869,192.0781 824.8994,193.1563 Q824.2119,194.2188 824.2119,196.3125 Q824.2119,198.4063 824.8994,199.4844 Q825.5869,200.5469 826.9307,200.5469 Q827.5557,200.5469 828.1494,200.2813 Q828.7432,200 829.3682,199.4219 L829.3682,202.1406 Z " fill="#000000"/><text fill="#000000" font-family="sans-serif" font-size="14" lengthAdjust="spacing" textLength="40.0313" x="846.8994" y="201.3467">Order</text><line style="stroke:#181818;stroke-width:0.5;" x1="772.5" x2="928.8301" y1="212.5" y2="212.5"/><text fill="#000000" font-family="sans-serif" font-size="14" lengthAdjust="spacing" textLength="63.082" x="777.5" y="229.4951">+Long id</text><text fill="#000000" font-family="sans-serif" font-size="14" lengthAdjust="spacing" textLength="146.3301" x="777.5" y="245.792">+Money agreedPrice</text><text fill="#000000" font-family="sans-serif" font-size="14" lengthAdjust="spacing" textLength="143.8418" x="777.5" y="262.0889">+OrderStatus status</text><line style="stroke:#181818;stroke-width:1;" x1="772.5" x2="928.8301" y1="269.3906" y2="269.3906"/><text fill="#000000" font-family="sans-serif" font-size="14" lengthAdjust="spacing" textLength="67.4023" x="777.5" y="286.3857">+create()</text><text fill="#000000" font-family="sans-serif" font-size="14" lengthAdjust="spacing" textLength="91.5332" x="777.5" y="302.6826">+startWork()</text><text fill="#000000" font-family="sans-serif" font-size="14" lengthAdjust="spacing" textLength="88.0469" x="777.5" y="318.9795">+complete()</text><text fill="#000000" font-family="sans-serif" font-size="14" lengthAdjust="spacing" textLength="110.6123" x="777.5" y="335.2764">+raiseDispute()</text></g><!--class Payment--><g class="entity" data-entity="Payment" data-source-line="67" data-uid="ent0007" id="entity_Payment"><rect fill="#F1F1F1" height="145.7813" rx="2.5" ry="2.5" style="stroke:#181818;stroke-width:0.5;" width="177.7305" x="1135.5" y="188.5"/><ellipse cx="1189.1553" cy="204.5" fill="#ADD1B2" rx="11" ry="11" style="stroke:#181818;stroke-width:1;"/><path d="M1192.124,210.1406 Q1191.5459,210.4375 1190.9053,210.5781 Q1190.2646,210.7344 1189.5615,210.7344 Q1187.0615,210.7344 1185.7334,209.0938 Q1184.4209,207.4375 1184.4209,204.3125 Q1184.4209,201.1875 1185.7334,199.5313 Q1187.0615,197.875 1189.5615,197.875 Q1190.2646,197.875 1190.9053,198.0313 Q1191.5615,198.1875 1192.124,198.4844 L1192.124,201.2031 Q1191.499,200.625 1190.9053,200.3594 Q1190.3115,200.0781 1189.6865,200.0781 Q1188.3428,200.0781 1187.6553,201.1563 Q1186.9678,202.2188 1186.9678,204.3125 Q1186.9678,206.4063 1187.6553,207.4844 Q1188.3428,208.5469 1189.6865,208.5469 Q1190.3115,208.5469 1190.9053,208.2813 Q1191.499,208 1192.124,207.4219 L1192.124,210.1406 Z " fill="#000000"/><text fill="#000000" font-family="sans-serif" font-size="14" lengthAdjust="spacing" textLength="61.9199" x="1209.6553" y="209.3467">Payment</text><line style="stroke:#181818;stroke-width:0.5;" x1="1136.5" x2="1312.2305" y1="220.5" y2="220.5"/><text fill="#000000" font-family="sans-serif" font-size="14" lengthAdjust="spacing" textLength="63.082" x="1141.5" y="237.4951">+Long id</text><text fill="#000000" font-family="sans-serif" font-size="14" lengthAdjust="spacing" textLength="116.6143" x="1141.5" y="253.792">+Money amount</text><text fill="#000000" font-family="sans-serif" font-size="14" lengthAdjust="spacing" textLength="165.7305" x="1141.5" y="270.0889">+PaymentStatus status</text><line style="stroke:#181818;stroke-width:1;" x1="1136.5" x2="1312.2305" y1="277.3906" y2="277.3906"/><text fill="#000000" font-family="sans-serif" font-size="14" lengthAdjust="spacing" textLength="71.3672" x="1141.5" y="294.3857">+initiate()</text><text fill="#000000" font-family="sans-serif" font-size="14" lengthAdjust="spacing" textLength="76.002" x="1141.5" y="310.6826">+confirm()</text><text fill="#000000" font-family="sans-serif" font-size="14" lengthAdjust="spacing" textLength="68.585" x="1141.5" y="326.9795">+refund()</text></g><!--class Review--><g class="entity" data-entity="Review" data-source-line="77" data-uid="ent0008" id="entity_Review"><rect fill="#F1F1F1" height="113.1875" rx="2.5" ry="2.5" style="stroke:#181818;stroke-width:0.5;" width="136.4756" x="964.5" y="205"/><ellipse cx="1003.7534" cy="221" fill="#ADD1B2" rx="11" ry="11" style="stroke:#181818;stroke-width:1;"/><path d="M1006.7222,226.6406 Q1006.144,226.9375 1005.5034,227.0781 Q1004.8628,227.2344 1004.1597,227.2344 Q1001.6597,227.2344 1000.3315,225.5938 Q999.019,223.9375 999.019,220.8125 Q999.019,217.6875 1000.3315,216.0313 Q1001.6597,214.375 1004.1597,214.375 Q1004.8628,214.375 1005.5034,214.5313 Q1006.1597,214.6875 1006.7222,214.9844 L1006.7222,217.7031 Q1006.0972,217.125 1005.5034,216.8594 Q1004.9097,216.5781 1004.2847,216.5781 Q1002.9409,216.5781 1002.2534,217.6563 Q1001.5659,218.7188 1001.5659,220.8125 Q1001.5659,222.9063 1002.2534,223.9844 Q1002.9409,225.0469 1004.2847,225.0469 Q1004.9097,225.0469 1005.5034,224.7813 Q1006.0972,224.5 1006.7222,223.9219 L1006.7222,226.6406 Z " fill="#000000"/><text fill="#000000" font-family="sans-serif" font-size="14" lengthAdjust="spacing" textLength="50.5791" x="1023.1431" y="225.8467">Review</text><line style="stroke:#181818;stroke-width:0.5;" x1="965.5" x2="1099.9756" y1="237" y2="237"/><text fill="#000000" font-family="sans-serif" font-size="14" lengthAdjust="spacing" textLength="63.082" x="970.5" y="253.9951">+Long id</text><text fill="#000000" font-family="sans-serif" font-size="14" lengthAdjust="spacing" textLength="75.9063" x="970.5" y="270.292">+int rating</text><text fill="#000000" font-family="sans-serif" font-size="14" lengthAdjust="spacing" textLength="124.4756" x="970.5" y="286.5889">+String comment</text><line style="stroke:#181818;stroke-width:1;" x1="965.5" x2="1099.9756" y1="293.8906" y2="293.8906"/><text fill="#000000" font-family="sans-serif" font-size="14" lengthAdjust="spacing" textLength="60.6348" x="970.5" y="310.8857">+leave()</text></g><!--class Message--><g class="entity" data-entity="Message" data-source-line="85" data-uid="ent0009" id="entity_Message"><rect fill="#F1F1F1" height="113.1875" rx="2.5" ry="2.5" style="stroke:#181818;stroke-width:0.5;" width="123.5625" x="236.5" y="205"/><ellipse cx="265.0914" cy="221" fill="#ADD1B2" rx="11" ry="11" style="stroke:#181818;stroke-width:1;"/><path d="M268.0602,226.6406 Q267.482,226.9375 266.8414,227.0781 Q266.2008,227.2344 265.4977,227.2344 Q262.9977,227.2344 261.6695,225.5938 Q260.357,223.9375 260.357,220.8125 Q260.357,217.6875 261.6695,216.0313 Q262.9977,214.375 265.4977,214.375 Q266.2008,214.375 266.8414,214.5313 Q267.4977,214.6875 268.0602,214.9844 L268.0602,217.7031 Q267.4352,217.125 266.8414,216.8594 Q266.2477,216.5781 265.6227,216.5781 Q264.2789,216.5781 263.5914,217.6563 Q262.9039,218.7188 262.9039,220.8125 Q262.9039,222.9063 263.5914,223.9844 Q264.2789,225.0469 265.6227,225.0469 Q266.2477,225.0469 266.8414,224.7813 Q267.4352,224.5 268.0602,223.9219 L268.0602,226.6406 Z " fill="#000000"/><text fill="#000000" font-family="sans-serif" font-size="14" lengthAdjust="spacing" textLength="61.3594" x="282.1117" y="225.8467">Message</text><line style="stroke:#181818;stroke-width:0.5;" x1="237.5" x2="359.0625" y1="237" y2="237"/><text fill="#000000" font-family="sans-serif" font-size="14" lengthAdjust="spacing" textLength="63.082" x="242.5" y="253.9951">+Long id</text><text fill="#000000" font-family="sans-serif" font-size="14" lengthAdjust="spacing" textLength="111.5625" x="242.5" y="270.292">+String content</text><text fill="#000000" font-family="sans-serif" font-size="14" lengthAdjust="spacing" textLength="94.9785" x="242.5" y="286.5889">+Date sentAt</text><line style="stroke:#181818;stroke-width:1;" x1="237.5" x2="359.0625" y1="293.8906" y2="293.8906"/><text fill="#000000" font-family="sans-serif" font-size="14" lengthAdjust="spacing" textLength="56.3213" x="242.5" y="310.8857">+send()</text></g><!--class Category--><g class="entity" data-entity="Category" data-source-line="93" data-uid="ent0010" id="entity_Category"><rect fill="#F1F1F1" height="80.5938" rx="2.5" ry="2.5" style="stroke:#181818;stroke-width:0.5;" width="109.665" x="417.5" y="7"/><ellipse cx="438.6717" cy="23" fill="#ADD1B2" rx="11" ry="11" style="stroke:#181818;stroke-width:1;"/><path d="M441.6404,28.6406 Q441.0623,28.9375 440.4217,29.0781 Q439.7811,29.2344 439.0779,29.2344 Q436.5779,29.2344 435.2498,27.5938 Q433.9373,25.9375 433.9373,22.8125 Q433.9373,19.6875 435.2498,18.0313 Q436.5779,16.375 439.0779,16.375 Q439.7811,16.375 440.4217,16.5313 Q441.0779,16.6875 441.6404,16.9844 L441.6404,19.7031 Q441.0154,19.125 440.4217,18.8594 Q439.8279,18.5781 439.2029,18.5781 Q437.8592,18.5781 437.1717,19.6563 Q436.4842,20.7188 436.4842,22.8125 Q436.4842,24.9063 437.1717,25.9844 Q437.8592,27.0469 439.2029,27.0469 Q439.8279,27.0469 440.4217,26.7813 Q441.0154,26.5 441.6404,25.9219 L441.6404,28.6406 Z " fill="#000000"/><text fill="#000000" font-family="sans-serif" font-size="14" lengthAdjust="spacing" textLength="63.9502" x="454.0432" y="27.8467">Category</text><line style="stroke:#181818;stroke-width:0.5;" x1="418.5" x2="526.165" y1="39" y2="39"/><text fill="#000000" font-family="sans-serif" font-size="14" lengthAdjust="spacing" textLength="63.082" x="423.5" y="55.9951">+Long id</text><text fill="#000000" font-family="sans-serif" font-size="14" lengthAdjust="spacing" textLength="97.665" x="423.5" y="72.292">+String name</text><line style="stroke:#181818;stroke-width:0.5;" x1="418.5" x2="526.165" y1="79.5938" y2="79.5938"/></g><!--class Attachment--><g class="entity" data-entity="Attachment" data-source-line="98" data-uid="ent0011" id="entity_Attachment"><rect fill="#F1F1F1" height="96.8906" rx="2.5" ry="2.5" style="stroke:#181818;stroke-width:0.5;" width="114.3184" x="58.5" y="657"/><ellipse cx="73.5" cy="673" fill="#ADD1B2" rx="11" ry="11" style="stroke:#181818;stroke-width:1;"/><path d="M76.4688,678.6406 Q75.8906,678.9375 75.25,679.0781 Q74.6094,679.2344 73.9063,679.2344 Q71.4063,679.2344 70.0781,677.5938 Q68.7656,675.9375 68.7656,672.8125 Q68.7656,669.6875 70.0781,668.0313 Q71.4063,666.375 73.9063,666.375 Q74.6094,666.375 75.25,666.5313 Q75.9063,666.6875 76.4688,666.9844 L76.4688,669.7031 Q75.8438,669.125 75.25,668.8594 Q74.6563,668.5781 74.0313,668.5781 Q72.6875,668.5781 72,669.6563 Q71.3125,670.7188 71.3125,672.8125 Q71.3125,674.9063 72,675.9844 Q72.6875,677.0469 74.0313,677.0469 Q74.6563,677.0469 75.25,676.7813 Q75.8438,676.5 76.4688,675.9219 L76.4688,678.6406 Z " fill="#000000"/><text fill="#000000" font-family="sans-serif" font-size="14" lengthAdjust="spacing" textLength="82.3184" x="87.5" y="677.8467">Attachment</text><line style="stroke:#181818;stroke-width:0.5;" x1="59.5" x2="171.8184" y1="689" y2="689"/><text fill="#000000" font-family="sans-serif" font-size="14" lengthAdjust="spacing" textLength="63.082" x="64.5" y="705.9951">+Long id</text><text fill="#000000" font-family="sans-serif" font-size="14" lengthAdjust="spacing" textLength="76.4805" x="64.5" y="722.292">+String url</text><text fill="#000000" font-family="sans-serif" font-size="14" lengthAdjust="spacing" textLength="89.2363" x="64.5" y="738.5889">+String type</text><line style="stroke:#181818;stroke-width:0.5;" x1="59.5" x2="171.8184" y1="745.8906" y2="745.8906"/></g><!--link User to Profile--><g class="link" data-entity-1="User" data-entity-2="Profile" data-source-line="112" data-uid="lnk12" id="link_User_Profile"><path codeLine="112" d="M63.9,367.22 C63.9,389.75 63.9,401.22 63.9,422.67" fill="none" id="User-to-Profile" style="stroke:#181818;stroke-width:1;"/><polygon fill="#181818" points="63.9,434.67,67.9,428.67,63.9,422.67,59.9,428.67,63.9,434.67" style="stroke:#181818;stroke-width:1;"/></g><!--link User to Offer--><g class="link" data-entity-1="User" data-entity-2="Offer" data-source-line="115" data-uid="lnk13" id="link_User_Offer"><path codeLine="115" d="M167.1,367.03 C167.1,380.66 167.1,390 167.1,390 C167.1,390 660.5,390 660.5,390 C660.5,390 660.5,378.67 660.5,356.75" fill="none" id="User-to-Offer" style="stroke:#181818;stroke-width:1;"/><polygon fill="#181818" points="660.5,350.75,656.5,359.75,660.5,355.75,664.5,359.75,660.5,350.75" style="stroke:#181818;stroke-width:1;"/></g><!--link User to JobPost--><g class="link" data-entity-1="User" data-entity-2="JobPost" data-source-line="116" data-uid="lnk14" id="link_User_JobPost"><path codeLine="116" d="M201.92,181 C260.94,181 332.45,181 389.38,181" fill="none" id="User-to-JobPost" style="stroke:#181818;stroke-width:1;"/><polygon fill="#181818" points="395.38,181,386.38,177,390.38,181,386.38,185,395.38,181" style="stroke:#181818;stroke-width:1;"/></g><!--reverse link JobPost to Offer--><g class="link" data-entity-1="JobPost" data-entity-2="Offer" data-source-line="119" data-uid="lnk15" id="link_JobPost_Offer"><path codeLine="119" d="M555.51,262 C567.17,262 573.19,262 584.83,262" fill="none" id="JobPost-backto-Offer" style="stroke:#181818;stroke-width:1;"/><polygon fill="#181818" points="549.51,262,558.51,266,554.51,262,558.51,258,549.51,262" style="stroke:#181818;stroke-width:1;"/></g><!--link Offer to Order--><g class="link" data-entity-1="Offer" data-entity-2="Order" data-source-line="122" data-uid="lnk16" id="link_Offer_Order"><path codeLine="122" d="M736.14,262 C747.73,262 753.72,262 765.38,262" fill="none" id="Offer-to-Order" style="stroke:#181818;stroke-width:1;"/><polygon fill="#181818" points="771.38,262,762.38,258,766.38,262,762.38,266,771.38,262" style="stroke:#181818;stroke-width:1;"/></g><!--link Order to Payment--><g class="link" data-entity-1="Order" data-entity-2="Payment" data-source-line="125" data-uid="lnk17" id="link_Order_Payment"><path codeLine="125" d="M929.82,197 C990.07,197 1066.95,197 1129.47,197" fill="none" id="Order-to-Payment" style="stroke:#181818;stroke-width:1;"/><polygon fill="#181818" points="1135.47,197,1126.47,193,1130.47,197,1126.47,201,1135.47,197" style="stroke:#181818;stroke-width:1;"/></g><!--link Order to Review--><g class="link" data-entity-1="Order" data-entity-2="Review" data-source-line="126" data-uid="lnk18" id="link_Order_Review"><path codeLine="126" d="M929.53,262 C941.14,262 947.01,262 958.38,262" fill="none" id="Order-to-Review" style="stroke:#181818;stroke-width:1;"/><polygon fill="#181818" points="964.38,262,955.38,258,959.38,262,955.38,266,964.38,262" style="stroke:#181818;stroke-width:1;"/></g><!--link User to Order--><g class="link" data-entity-1="User" data-entity-2="Order" data-source-line="129" data-uid="lnk19" id="link_User_Order"><path codeLine="129" d="M132.7,367.3 C132.7,388.81 132.7,405 132.7,405 C132.7,405 850.5,405 850.5,405 C850.5,405 850.5,381.28 850.5,348.89" fill="none" id="User-to-Order" style="stroke:#181818;stroke-width:1;"/><polygon fill="#181818" points="850.5,342.89,846.5,351.89,850.5,347.89,854.5,351.89,850.5,342.89" style="stroke:#181818;stroke-width:1;"/></g><!--link User to Review--><g class="link" data-entity-1="User" data-entity-2="Review" data-source-line="130" data-uid="lnk20" id="link_User_Review"><path codeLine="130" d="M98.3,367.22 C98.3,396.3 98.3,420 98.3,420 C98.3,420 1032.5,420 1032.5,420 C1032.5,420 1032.5,369.75 1032.5,324.27" fill="none" id="User-to-Review" style="stroke:#181818;stroke-width:1;"/><polygon fill="#181818" points="1032.5,318.27,1028.5,327.27,1032.5,323.27,1036.5,327.27,1032.5,318.27" style="stroke:#181818;stroke-width:1;"/></g><!--link User to Message--><g class="link" data-entity-1="User" data-entity-2="Message" data-source-line="133" data-uid="lnk21" id="link_User_Message"><path codeLine="133" d="M207.64,262 C219.32,262 219.12,262 230.27,262" fill="none" id="User-Message" style="stroke:#181818;stroke-width:1;"/><polygon fill="#181818" points="201.64,262,210.64,266,206.64,262,210.64,258,201.64,262" style="stroke:#181818;stroke-width:1;"/><polygon fill="#181818" points="236.27,262,227.27,258,231.27,262,227.27,266,236.27,262" style="stroke:#181818;stroke-width:1;"/></g><!--reverse link Category to JobPost--><g class="link" data-entity-1="Category" data-entity-2="JobPost" data-source-line="136" data-uid="lnk22" id="link_Category_JobPost"><path codeLine="136" d="M472.5,100 C472.5,117.21 472.5,126.22 472.5,147.59" fill="none" id="Category-backto-JobPost" style="stroke:#181818;stroke-width:1;"/><polygon fill="none" points="472.5,88,468.5,94,472.5,100,476.5,94,472.5,88" style="stroke:#181818;stroke-width:1;"/></g><!--reverse link Profile to Attachment--><g class="link" data-entity-1="Profile" data-entity-2="Attachment" data-source-line="139" data-uid="lnk23" id="link_Profile_Attachment"><path codeLine="139" d="M115.5,609.19 C115.5,629.48 115.5,638.62 115.5,656.78" fill="none" id="Profile-backto-Attachment" style="stroke:#181818;stroke-width:1;"/><polygon fill="#181818" points="115.5,597.19,111.5,603.19,115.5,609.19,119.5,603.19,115.5,597.19" style="stroke:#181818;stroke-width:1;"/></g><!--SRC=[fLNDZXj54BxxAVg67JI1ND6oqf8b8MWNLcj5dDlJvN6nFTr3_zWOn9bZde4t02IKNE0PPj-8wkdk-R5thIYnP8-hkkgRhtxRtg5gkE4rAoMtzi8vWollu5MfrH9_0VRvpFOc4XMuVGDC6xVHincBJkor1SD-9P6nJw-qgXYAA2m9ZKJ5QvWeeEOe9vg6S7RQY6-utSI3Mos16Vg9ej1-5HJSaNcdAefuOg12wy3C5r6Mka8r4hHtMVADu0vkZ5wZX4xvsn15KfyAP8Kw7T8RpwBod562fBIZ0yeYBpSrA7VE6ihLMilac3c3GFSLwioB2x4C82Fv9lkzSb0VKlrMhswqTQUeEdHocdG1jZJOEDGgwg-rWZrRUL61Ynh2NJhkl6MsUqJj9UMCug0SYmit2QCqG6UPTGWg_s-eMcWtMIobjhqTHO2LUc4095TbAjmekk_NwqVwAJ9k39RJq4gz1NC5ZheWwZk8ur0oR-jNzS2r32o6t9SbDFsPWH-XT4SCZJZ9a5SKdBWPU7OEZ_EPvf4CZFj1cxkUeAuR2OE1uMZX4ctZtN4Nytrel5FaQkrLAdYoVfmPAdGuuaPhOOsc7jApzaeSShY5BSBkGGf8r4OpF1Im3ZmchvR0jqVXNOErl3evf4JHPQpOkvR4WyubrH7jvsHRQRD_ZrKsyXg6_PIVDzDz5zPenFc4VVcX7_AzfHaA4sqts5WsVtrznRxJhbCjs6Ui_QFz-_vD-xPzn-RjV-rVz7tR_jl-UVzx-myztzs_OUIo8A3dr6FQOd1aynUqYq2mIwHUKMBn1NMLSOpcH6d7u6VQSMo7T0Lunzm6s6v3Q_efWLnKrFWLZo1VrutRFu2H0509QAWAb3YvPtfzW6IjBZ4XBJ7qFximHky8w2KeC5moCuhzwKVbaPoxEumhqLy3ysVCQVQC5UFKB6QTNL4yoNQzRytl8Eqksm6b9KrL6GMJ0SwZPIybuu0MrnzQGXGGEF1-tq-HilQiI63alFIqlgnTUvbm35WlYGGg8fKMrnGcsWL6uR1Zq5aP-CaZkUUL4gEgkkGxo5D-65xq9RJaDIYYVSuNeHaWLbijjzHgcBZ5bpmCtMUkuvcbAMoOTT6lYIa2bJAqtmhe7Yy4XLO6BPS9-Op0abz0ozbTWQHvjh4G_OgOZrfzCUlLkYZ6fSozXAgKdkxVqR8WQkEHArX_uIzcsUq9eGqU_mC0]--></g></svg>