<svg xmlns="http://www.w3.org/2000/svg" xmlns:xlink="http://www.w3.org/1999/xlink" contentStyleType="text/css" data-diagram-type="DESCRIPTION" height="949px" preserveAspectRatio="none" style="width:1094px;height:949px;background:#FFFFFF;" version="1.1" viewBox="0 0 1094 949" width="1094px" zoomAndPan="magnify"><title>Deployment Diagram - Freelance Marketplace</title><defs/><g><g class="title" data-source-line="1"><text fill="#000000" font-family="sans-serif" font-size="14" font-weight="bold" lengthAdjust="spacing" textLength="362.8652" x="358.5674" y="22.9951">Deployment Diagram - Freelance Marketplace</text></g><!--cluster userDevice--><g class="cluster" data-entity="userDevice" data-source-line="8" data-uid="ent0002" id="cluster_userDevice"><polygon fill="none" points="211,53.2969,221,43.2969,455,43.2969,455,256.2969,445,266.2969,211,266.2969,211,53.2969" style="stroke:#181818;stroke-width:1;"/><line style="stroke:#181818;stroke-width:1;" x1="445" x2="455" y1="53.2969" y2="43.2969"/><line style="stroke:#181818;stroke-width:1;" x1="211" x2="445" y1="53.2969" y2="53.2969"/><line style="stroke:#181818;stroke-width:1;" x1="445" x2="445" y1="53.2969" y2="266.2969"/><text fill="#000000" font-family="sans-serif" font-size="14" font-weight="bold" lengthAdjust="spacing" textLength="93.8096" x="282.0952" y="69.292">User Device</text></g><!--cluster browser--><g class="cluster" data-entity="browser" data-source-line="9" data-uid="ent0003" id="cluster_browser"><polygon fill="none" points="243,109.2969,253,99.2969,423,99.2969,423,224.2969,413,234.2969,243,234.2969,243,109.2969" style="stroke:#181818;stroke-width:1;"/><line style="stroke:#181818;stroke-width:1;" x1="413" x2="423" y1="109.2969" y2="99.2969"/><line style="stroke:#181818;stroke-width:1;" x1="243" x2="413" y1="109.2969" y2="109.2969"/><line style="stroke:#181818;stroke-width:1;" x1="413" x2="413" y1="109.2969" y2="234.2969"/><text fill="#000000" font-family="sans-serif" font-size="14" font-weight="bold" lengthAdjust="spacing" textLength="104.6924" x="276.6538" y="125.292">Web Browser</text></g><!--cluster cloud--><g class="cluster" data-entity="cloud" data-source-line="14" data-uid="ent0005" id="cluster_cloud"><polygon fill="none" points="50,300.2969,60,290.2969,642,290.2969,642,922.2969,632,932.2969,50,932.2969,50,300.2969" style="stroke:#181818;stroke-width:1;"/><line style="stroke:#181818;stroke-width:1;" x1="632" x2="642" y1="300.2969" y2="290.2969"/><line style="stroke:#181818;stroke-width:1;" x1="50" x2="632" y1="300.2969" y2="300.2969"/><line style="stroke:#181818;stroke-width:1;" x1="632" x2="632" y1="300.2969" y2="932.2969"/><text fill="#000000" font-family="sans-serif" font-size="14" font-weight="bold" lengthAdjust="spacing" textLength="160.4258" x="261.7871" y="316.292">Cloud Infrastructure</text></g><!--cluster host--><g class="cluster" data-entity="host" data-source-line="15" data-uid="ent0006" id="cluster_host"><polygon fill="none" points="74,348.2969,84,338.2969,618,338.2969,618,898.2969,608,908.2969,74,908.2969,74,348.2969" style="stroke:#181818;stroke-width:1;"/><line style="stroke:#181818;stroke-width:1;" x1="608" x2="618" y1="348.2969" y2="338.2969"/><line style="stroke:#181818;stroke-width:1;" x1="74" x2="608" y1="348.2969" y2="348.2969"/><line style="stroke:#181818;stroke-width:1;" x1="608" x2="608" y1="348.2969" y2="908.2969"/><text fill="#000000" font-family="sans-serif" font-size="14" font-weight="bold" lengthAdjust="spacing" textLength="136.1104" x="273.9448" y="364.292">Docker Host / VM</text></g><!--cluster nginx--><g class="cluster" data-entity="nginx" data-source-line="16" data-uid="ent0007" id="cluster_nginx"><polygon fill="none" points="244,404.2969,254,394.2969,447,394.2969,447,518.2969,437,528.2969,244,528.2969,244,404.2969" style="stroke:#181818;stroke-width:1;"/><line style="stroke:#181818;stroke-width:1;" x1="437" x2="447" y1="404.2969" y2="394.2969"/><line style="stroke:#181818;stroke-width:1;" x1="244" x2="437" y1="404.2969" y2="404.2969"/><line style="stroke:#181818;stroke-width:1;" x1="437" x2="437" y1="404.2969" y2="528.2969"/><text fill="#000000" font-family="sans-serif" font-size="14" font-style="italic" lengthAdjust="spacing" textLength="117.9678" x="282.5161" y="420.292">&#171;Reverse Proxy&#187;</text><text fill="#000000" font-family="sans-serif" font-size="14" font-weight="bold" lengthAdjust="spacing" textLength="127.5723" x="277.7139" y="436.5889">Nginx Container</text></g><!--cluster react--><g class="cluster" data-entity="react" data-source-line="19" data-uid="ent0009" id="cluster_react"><polygon fill="none" points="106,578.2969,116,568.2969,321,568.2969,321,692.2969,311,702.2969,106,702.2969,106,578.2969" style="stroke:#181818;stroke-width:1;"/><line style="stroke:#181818;stroke-width:1;" x1="311" x2="321" y1="578.2969" y2="568.2969"/><line style="stroke:#181818;stroke-width:1;" x1="106" x2="311" y1="578.2969" y2="578.2969"/><line style="stroke:#181818;stroke-width:1;" x1="311" x2="311" y1="578.2969" y2="702.2969"/><text fill="#000000" font-family="sans-serif" font-size="14" font-style="italic" lengthAdjust="spacing" textLength="93.502" x="162.749" y="594.292">&#171;Static Files&#187;</text><text fill="#000000" font-family="sans-serif" font-size="14" font-weight="bold" lengthAdjust="spacing" textLength="126.752" x="146.124" y="610.5889">React Container</text></g><!--cluster backend--><g class="cluster" data-entity="backend" data-source-line="22" data-uid="ent0011" id="cluster_backend"><polygon fill="none" points="361,578.2969,371,568.2969,586,568.2969,586,692.2969,576,702.2969,361,702.2969,361,578.2969" style="stroke:#181818;stroke-width:1;"/><line style="stroke:#181818;stroke-width:1;" x1="576" x2="586" y1="578.2969" y2="568.2969"/><line style="stroke:#181818;stroke-width:1;" x1="361" x2="576" y1="578.2969" y2="578.2969"/><line style="stroke:#181818;stroke-width:1;" x1="576" x2="576" y1="578.2969" y2="702.2969"/><text fill="#000000" font-family="sans-serif" font-size="14" font-style="italic" lengthAdjust="spacing" textLength="99.1348" x="419.9326" y="594.292">&#171;Spring Boot&#187;</text><text fill="#000000" font-family="sans-serif" font-size="14" font-weight="bold" lengthAdjust="spacing" textLength="149.249" x="394.8755" y="610.5889">Backend Container</text></g><!--cluster db--><g class="cluster" data-entity="db" data-source-line="25" data-uid="ent0013" id="cluster_db"><polygon fill="none" points="354,752.2969,364,742.2969,586,742.2969,586,866.2969,576,876.2969,354,876.2969,354,752.2969" style="stroke:#181818;stroke-width:1;"/><line style="stroke:#181818;stroke-width:1;" x1="576" x2="586" y1="752.2969" y2="742.2969"/><line style="stroke:#181818;stroke-width:1;" x1="354" x2="576" y1="752.2969" y2="752.2969"/><line style="stroke:#181818;stroke-width:1;" x1="576" x2="576" y1="752.2969" y2="876.2969"/><text fill="#000000" font-family="sans-serif" font-size="14" font-style="italic" lengthAdjust="spacing" textLength="98.0342" x="416.9829" y="768.292">&#171;PostgreSQL&#187;</text><text fill="#000000" font-family="sans-serif" font-size="14" font-weight="bold" lengthAdjust="spacing" textLength="156.543" x="387.7285" y="784.5889">Database Container</text></g><!--cluster ext--><g class="cluster" data-entity="ext" data-source-line="31" data-uid="ent0015" id="cluster_ext"><polygon fill="none" points="666,767.7969,676,757.7969,1077,757.7969,1077,866.7969,1067,876.7969,666,876.7969,666,767.7969" style="stroke:#181818;stroke-width:1;"/><line style="stroke:#181818;stroke-width:1;" x1="1067" x2="1077" y1="767.7969" y2="757.7969"/><line style="stroke:#181818;stroke-width:1;" x1="666" x2="1067" y1="767.7969" y2="767.7969"/><line style="stroke:#181818;stroke-width:1;" x1="1067" x2="1067" y1="767.7969" y2="876.7969"/><text fill="#000000" font-family="sans-serif" font-size="14" font-weight="bold" lengthAdjust="spacing" textLength="137.3066" x="798.8467" y="783.792">External Services</text></g><!--entity ReactApp--><g class="entity" data-entity="ReactApp" data-source-line="10" data-uid="ent0004" id="entity_ReactApp"><rect fill="#F1F1F1" height="62.5938" rx="2.5" ry="2.5" style="stroke:#181818;stroke-width:0.5;" width="109.4502" x="288.5" y="147.2969"/><rect fill="#F1F1F1" height="10" style="stroke:#181818;stroke-width:0.5;" width="15" x="377.9502" y="152.2969"/><rect fill="#F1F1F1" height="2" style="stroke:#181818;stroke-width:0.5;" width="4" x="375.9502" y="154.2969"/><rect fill="#F1F1F1" height="2" style="stroke:#181818;stroke-width:0.5;" width="4" x="375.9502" y="158.2969"/><text fill="#000000" font-family="sans-serif" font-size="14" font-style="italic" lengthAdjust="spacing" textLength="67.4502" x="304.5" y="180.292">&#171;Web UI&#187;</text><text fill="#000000" font-family="sans-serif" font-size="14" lengthAdjust="spacing" textLength="67.457" x="304.4966" y="196.5889">ReactApp</text></g><!--entity Nginx--><g class="entity" data-entity="Nginx" data-source-line="17" data-uid="ent0008" id="entity_Nginx"><rect fill="#F1F1F1" height="46.2969" rx="2.5" ry="2.5" style="stroke:#181818;stroke-width:0.5;" width="80.4072" x="315" y="458.2969"/><rect fill="#F1F1F1" height="10" style="stroke:#181818;stroke-width:0.5;" width="15" x="375.4072" y="463.2969"/><rect fill="#F1F1F1" height="2" style="stroke:#181818;stroke-width:0.5;" width="4" x="373.4072" y="465.2969"/><rect fill="#F1F1F1" height="2" style="stroke:#181818;stroke-width:0.5;" width="4" x="373.4072" y="469.2969"/><text fill="#000000" font-family="sans-serif" font-size="14" lengthAdjust="spacing" textLength="40.4072" x="330" y="491.292">Nginx</text></g><!--entity ReactApp Build--><g class="entity" data-entity="ReactApp Build" data-source-line="20" data-uid="ent0010" id="entity_ReactApp Build"><rect fill="#F1F1F1" height="46.2969" rx="2.5" ry="2.5" style="stroke:#181818;stroke-width:0.5;" width="147.0508" x="149.5" y="632.2969"/><rect fill="#F1F1F1" height="10" style="stroke:#181818;stroke-width:0.5;" width="15" x="276.5508" y="637.2969"/><rect fill="#F1F1F1" height="2" style="stroke:#181818;stroke-width:0.5;" width="4" x="274.5508" y="639.2969"/><rect fill="#F1F1F1" height="2" style="stroke:#181818;stroke-width:0.5;" width="4" x="274.5508" y="643.2969"/><text fill="#000000" font-family="sans-serif" font-size="14" lengthAdjust="spacing" textLength="67.457" x="164.5" y="665.292">ReactApp</text><text fill="#000000" font-family="sans-serif" font-size="14" lengthAdjust="spacing" textLength="4.4502" x="231.957" y="665.292">&#160;</text><text fill="#000000" font-family="sans-serif" font-size="14" lengthAdjust="spacing" textLength="35.1436" x="236.4072" y="665.292">Build</text></g><!--entity Backend API--><g class="entity" data-entity="Backend API" data-source-line="23" data-uid="ent0012" id="entity_Backend API"><rect fill="#F1F1F1" height="46.2969" rx="2.5" ry="2.5" style="stroke:#181818;stroke-width:0.5;" width="126.96" x="429.5" y="632.2969"/><rect fill="#F1F1F1" height="10" style="stroke:#181818;stroke-width:0.5;" width="15" x="536.46" y="637.2969"/><rect fill="#F1F1F1" height="2" style="stroke:#181818;stroke-width:0.5;" width="4" x="534.46" y="639.2969"/><rect fill="#F1F1F1" height="2" style="stroke:#181818;stroke-width:0.5;" width="4" x="534.46" y="643.2969"/><text fill="#000000" font-family="sans-serif" font-size="14" lengthAdjust="spacing" textLength="60.3613" x="444.5" y="665.292">Backend</text><text fill="#000000" font-family="sans-serif" font-size="14" lengthAdjust="spacing" textLength="4.4502" x="504.8613" y="665.292">&#160;</text><text fill="#000000" font-family="sans-serif" font-size="14" lengthAdjust="spacing" textLength="22.1484" x="509.3115" y="665.292">API</text></g><!--entity PostgreSQL DB--><g class="entity" data-entity="PostgreSQL DB" data-source-line="26" data-uid="ent0014" id="entity_PostgreSQL DB"><rect fill="#F1F1F1" height="46.2969" rx="2.5" ry="2.5" style="stroke:#181818;stroke-width:0.5;" width="145.5879" x="416" y="806.2969"/><rect fill="#F1F1F1" height="10" style="stroke:#181818;stroke-width:0.5;" width="15" x="541.5879" y="811.2969"/><rect fill="#F1F1F1" height="2" style="stroke:#181818;stroke-width:0.5;" width="4" x="539.5879" y="813.2969"/><rect fill="#F1F1F1" height="2" style="stroke:#181818;stroke-width:0.5;" width="4" x="539.5879" y="817.2969"/><text fill="#000000" font-family="sans-serif" font-size="14" lengthAdjust="spacing" textLength="80.7529" x="431" y="839.292">PostgreSQL</text><text fill="#000000" font-family="sans-serif" font-size="14" lengthAdjust="spacing" textLength="4.4502" x="511.7529" y="839.292">&#160;</text><text fill="#000000" font-family="sans-serif" font-size="14" lengthAdjust="spacing" textLength="20.3848" x="516.2031" y="839.292">DB</text></g><!--entity Payment Gateway--><g class="entity" data-entity="Payment Gateway" data-source-line="32" data-uid="ent0016" id="entity_Payment Gateway"><rect fill="#F1F1F1" height="62.5938" rx="2.5" ry="2.5" style="stroke:#181818;stroke-width:0.5;" width="168.2148" x="893" y="797.7969"/><rect fill="#F1F1F1" height="10" style="stroke:#181818;stroke-width:0.5;" width="15" x="1041.2148" y="802.7969"/><rect fill="#F1F1F1" height="2" style="stroke:#181818;stroke-width:0.5;" width="4" x="1039.2148" y="804.7969"/><rect fill="#F1F1F1" height="2" style="stroke:#181818;stroke-width:0.5;" width="4" x="1039.2148" y="808.7969"/><text fill="#000000" font-family="sans-serif" font-size="14" font-style="italic" lengthAdjust="spacing" textLength="88.8398" x="927.6875" y="830.792">&#171;HTTPS API&#187;</text><text fill="#000000" font-family="sans-serif" font-size="14" lengthAdjust="spacing" textLength="61.9199" x="908" y="847.0889">Payment</text><text fill="#000000" font-family="sans-serif" font-size="14" lengthAdjust="spacing" textLength="4.4502" x="969.9199" y="847.0889">&#160;</text><text fill="#000000" font-family="sans-serif" font-size="14" lengthAdjust="spacing" textLength="61.8447" x="974.3701" y="847.0889">Gateway</text></g><!--entity Email Provider--><g class="entity" data-entity="Email Provider" data-source-line="33" data-uid="ent0017" id="entity_Email Provider"><rect fill="#F1F1F1" height="62.5938" rx="2.5" ry="2.5" style="stroke:#181818;stroke-width:0.5;" width="175.499" x="682.5" y="797.7969"/><rect fill="#F1F1F1" height="10" style="stroke:#181818;stroke-width:0.5;" width="15" x="837.999" y="802.7969"/><rect fill="#F1F1F1" height="2" style="stroke:#181818;stroke-width:0.5;" width="4" x="835.999" y="804.7969"/><rect fill="#F1F1F1" height="2" style="stroke:#181818;stroke-width:0.5;" width="4" x="835.999" y="808.7969"/><text fill="#000000" font-family="sans-serif" font-size="14" font-style="italic" lengthAdjust="spacing" textLength="133.499" x="698.5" y="830.792">&#171;SMTP / SendGrid&#187;</text><text fill="#000000" font-family="sans-serif" font-size="14" lengthAdjust="spacing" textLength="38.8418" x="714.5063" y="847.0889">Email</text><text fill="#000000" font-family="sans-serif" font-size="14" lengthAdjust="spacing" textLength="4.4502" x="753.3481" y="847.0889">&#160;</text><text fill="#000000" font-family="sans-serif" font-size="14" lengthAdjust="spacing" textLength="58.1943" x="757.7983" y="847.0889">Provider</text></g><!--link browser to nginx--><g class="link" data-entity-1="browser" data-entity-2="nginx" data-source-line="37" data-uid="lnk18" id="link_browser_nginx"><path d="M252,235.483 C252,237.2875 252,239.1221 252,240.9846 C252,244.7096 252,248.5465 252,252.4794 C252,260.3452 252,268.5947 252,277.0998 C252,294.1101 252,312.1428 252,330.1731 C252,348.2034 252,366.2313 252,383.2319 C252,385.357 252,387.466 252,389.5569 C252,390.6024 252,391.6434 252,392.6796 C252,393.1977 252,387.7146 252,388.2303" fill="none" id="browser-to-nginx" style="stroke:#181818;stroke-width:1;"/><polygon fill="#181818" points="252,394.2303,256,385.2303,252,389.2303,248,385.2303,252,394.2303" style="stroke:#181818;stroke-width:1;"/><text fill="#000000" font-family="sans-serif" font-size="13" lengthAdjust="spacing" textLength="80.8374" x="171" y="326.1238">HTTPS (443)</text></g><!--link nginx to react--><g class="link" data-entity-1="nginx" data-entity-2="react" data-source-line="38" data-uid="lnk19" id="link_nginx_react"><path d="M243.7652,481.2969 C243.6331,481.2969 243.4996,481.2969 243.3648,481.2969 C239.0493,481.2969 233.3266,481.2969 226.687,481.2969 C213.4078,481.2969 196.4606,481.2969 179.7663,481.2969 C146.3775,481.2969 114,481.2969 114,481.2969 C114,481.2969 114,522.1194 114,564.2181 C114,565.5337 114,560.8505 114,562.1674" fill="none" id="nginx-to-react" style="stroke:#181818;stroke-width:1;"/><polygon fill="#181818" points="114,568.1674,118,559.1674,114,563.1674,110,559.1674,114,568.1674" style="stroke:#181818;stroke-width:1;"/><text fill="#000000" font-family="sans-serif" font-size="13" lengthAdjust="spacing" textLength="106.3359" x="7" y="495.3138">serve static files</text></g><!--link nginx to backend--><g class="link" data-entity-1="nginx" data-entity-2="backend" data-source-line="39" data-uid="lnk20" id="link_nginx_backend"><path d="M252,528.3402 C252,528.5017 252,528.6631 252,528.8244 C252,529.1471 252,529.4694 252,529.7914 C252,530.4354 252,531.0779 252,531.7184 C252,532.9993 252,534.272 252,535.5318 C252,538.0516 252,540.5201 252,542.9005 C252,547.6614 252,552.0702 252,555.8327 C252,563.3575 252,568.2969 252,568.2969 C252,568.2969 286.5,568.2969 321,568.2969 C329.625,568.2969 338.25,568.2969 346.3359,568.2969 C350.3789,568.2969 354.2871,568.2969 357.9932,568.2969 C358.9197,568.2969 353.8336,568.2969 354.7337,568.2969" fill="none" id="nginx-to-backend" style="stroke:#181818;stroke-width:1;"/><polygon fill="#181818" points="360.7337,568.2969,351.7337,564.2969,355.7337,568.2969,351.7337,572.2969,360.7337,568.2969" style="stroke:#181818;stroke-width:1;"/><text fill="#000000" font-family="sans-serif" font-size="13" lengthAdjust="spacing" textLength="76.1592" x="244" y="564.3638">proxy /api/*</text></g><!--link backend to db--><g class="link" data-entity-1="backend" data-entity-2="db" data-source-line="40" data-uid="lnk21" id="link_backend_db"><path d="M381,702.9857 C381,703.283 381,703.5811 381,703.88 C381,705.0754 381,706.2829 381,707.5013 C381,717.2485 381,727.6934 381,738.2181 C381,739.5337 381,734.8505 381,736.1674" fill="none" id="backend-to-db" style="stroke:#181818;stroke-width:1;"/><polygon fill="#181818" points="381,742.1674,385,733.1674,381,737.1674,377,733.1674,381,742.1674" style="stroke:#181818;stroke-width:1;"/><text fill="#000000" font-family="sans-serif" font-size="13" lengthAdjust="spacing" textLength="79.1997" x="301" y="733.8038">JDBC (5432)</text></g><!--link backend to Payment Gateway--><g class="link" data-entity-1="backend" data-entity-2="Payment Gateway" data-source-line="41" data-uid="lnk22" id="link_backend_Payment Gateway"><path d="M422.75,702.6157 C422.75,703.2585 422.75,703.8993 422.75,704.5376 C422.75,707.0908 422.75,709.6035 422.75,712.0352 C422.75,716.8984 422.75,721.4375 422.75,725.3281 C422.75,733.1094 422.75,738.2969 422.75,738.2969 C422.75,738.2969 977,738.2969 977,738.2969 C977,738.2969 977,765.4469 977,791.7269" fill="none" id="backend-to-Payment Gateway" style="stroke:#181818;stroke-width:1;"/><polygon fill="#181818" points="977,797.7269,981,788.7269,977,792.7269,973,788.7269,977,797.7269" style="stroke:#181818;stroke-width:1;"/><text fill="#000000" font-family="sans-serif" font-size="13" lengthAdjust="spacing" textLength="99.6899" x="571.9" y="734.3638">HTTPS API calls</text></g><!--link backend to Email Provider--><g class="link" data-entity-1="backend" data-entity-2="Email Provider" data-source-line="42" data-uid="lnk23" id="link_backend_Email Provider"><path d="M390,702.7169 C390,703.7648 390,704.8207 390,705.8838 C390,714.3883 390,723.3475 390,732.2394 C390,767.8069 390,802.2969 390,802.2969 C390,802.2969 564.12,802.2969 676.34,802.2969" fill="none" id="backend-to-Email Provider" style="stroke:#181818;stroke-width:1;"/><polygon fill="#181818" points="682.34,802.2969,673.34,798.2969,677.34,802.2969,673.34,806.2969,682.34,802.2969" style="stroke:#181818;stroke-width:1;"/><text fill="#000000" font-family="sans-serif" font-size="13" lengthAdjust="spacing" textLength="73.0679" x="388.88" y="798.3638">SMTP/REST</text></g><!--SRC=[PL9DR-8m4BtdLunwsNQbYgfbBoX2QWXjMIshBA7R0-8mE0DO63kopPTM_FUrOo82t3mpRzxCcsVBhI18gHJgi2Pf8UMuqBY6HtZJH08b8nYYNf4j1JAA8hFYiaGFaQgWt1vSloPcKIu4DQexZUKNB-mIdf-U6dcpn4Bjk5p078LfTWWkoHvA0gNjKaMHvuUxJqFQBRZbZEu03MnS74Bu5m44q1VD8D5gvseLQ1RU5G9WCY9azhKifn377levw7PTvHWTwoazeJO53EHSex5wm-n6Xt6iAfmdfOgj7F67CXPQy7TOWPO-2hC2wlU2optqbBJeH8MTP9MBun5jIHk2JAlzeTizzRajgwOfLE6nGLPjVqMcgrmSvnOjP_361PacLwqOaWqNnVI6Cq4dGnPNhBDJrl6MsbkKA6MRj7NRQpQuvKpHuWoTialIOkRuCdUXXQRypwyctJaBQN8cRFZItrlI4WNafBtdfgAaVJZt9CFmQz_HqWuFtj-FyJZB_OALnPF-6hdmjzxoWhG7vCDnvgpBdOvtpGi7SzE-0LDIkc_CbJHH_NqU7xidspeGUE_RxPU7AEHyDVZG0OVU4fZWnjoxqG3LP-r0wJs75fQyzJsgqnxYZjI1dsdIW_iVxPVdXulYhSnw7ISJ60fXBl7NeZlWHRT6_Npy7m00]--></g></svg>