<svg xmlns="http://www.w3.org/2000/svg" xmlns:xlink="http://www.w3.org/1999/xlink" contentStyleType="text/css" data-diagram-type="SEQUENCE" height="531px" preserveAspectRatio="none" style="width:1269px;height:531px;background:#FFFFFF;" version="1.1" viewBox="0 0 1269 531" width="1269px" zoomAndPan="magnify"><defs/><g><g><title>&#1047;&#1072;&#1082;&#1072;&#1079;&#1095;&#1080;&#1082;</title><rect fill="#000000" fill-opacity="0.00000" height="369.5938" width="8" x="37.9302" y="81.2969"/><line style="stroke:#181818;stroke-width:0.5;stroke-dasharray:5.0,5.0;" x1="41" x2="41" y1="81.2969" y2="450.8906"/></g><g><title>&#1042;&#1077;&#1073;-&#1080;&#1085;&#1090;&#1077;&#1088;&#1092;&#1077;&#1081;&#1089;</title><rect fill="#000000" fill-opacity="0.00000" height="369.5938" width="8" x="316.2427" y="81.2969"/><line style="stroke:#181818;stroke-width:0.5;stroke-dasharray:5.0,5.0;" x1="319.6479" x2="319.6479" y1="81.2969" y2="450.8906"/></g><g><title>&#1057;&#1077;&#1088;&#1074;&#1080;&#1089; &#1072;&#1091;&#1090;&#1077;&#1085;&#1090;&#1080;&#1092;&#1080;&#1082;&#1072;&#1094;&#1080;&#1080;</title><rect fill="#000000" fill-opacity="0.00000" height="369.5938" width="8" x="488.1587" y="81.2969"/><line style="stroke:#181818;stroke-width:0.5;stroke-dasharray:5.0,5.0;" x1="491.8374" x2="491.8374" y1="81.2969" y2="450.8906"/></g><g><title>&#1057;&#1077;&#1088;&#1074;&#1080;&#1089; &#1079;&#1072;&#1082;&#1072;&#1079;&#1086;&#1074;</title><rect fill="#000000" fill-opacity="0.00000" height="369.5938" width="8" x="660.5259" y="81.2969"/><line style="stroke:#181818;stroke-width:0.5;stroke-dasharray:5.0,5.0;" x1="664.48" x2="664.48" y1="81.2969" y2="450.8906"/></g><g><title>&#1057;&#1077;&#1088;&#1074;&#1080;&#1089; &#1087;&#1083;&#1072;&#1090;&#1077;&#1078;&#1077;&#1081;</title><rect fill="#000000" fill-opacity="0.00000" height="369.5938" width="8" x="844.3789" y="81.2969"/><line style="stroke:#181818;stroke-width:0.5;stroke-dasharray:5.0,5.0;" x1="848.106" x2="848.106" y1="81.2969" y2="450.8906"/></g><g><title>&#1041;&#1072;&#1079;&#1072; &#1076;&#1072;&#1085;&#1085;&#1099;&#1093;</title><rect fill="#000000" fill-opacity="0.00000" height="369.5938" width="8" x="1052.8354" y="81.2969"/><line style="stroke:#181818;stroke-width:0.5;stroke-dasharray:5.0,5.0;" x1="1056.5547" x2="1056.5547" y1="81.2969" y2="450.8906"/></g><g><title>&#1055;&#1083;&#1072;&#1090;&#1105;&#1078;&#1085;&#1099;&#1081; &#1096;&#1083;&#1102;&#1079;</title><rect fill="#000000" fill-opacity="0.00000" height="369.5938" width="8" x="1186.2061" y="81.2969"/><line style="stroke:#181818;stroke-width:0.5;stroke-dasharray:5.0,5.0;" x1="1190.1162" x2="1190.1162" y1="81.2969" y2="450.8906"/></g><g class="participant participant-head" data-participant="&#1047;&#1072;&#1082;&#1072;&#1079;&#1095;&#1080;&#1082;"><text fill="#000000" font-family="sans-serif" font-size="14" lengthAdjust="spacing" textLength="67.8604" x="5" y="77.9951">&#1047;&#1072;&#1082;&#1072;&#1079;&#1095;&#1080;&#1082;</text><ellipse cx="41.9302" cy="13.5" fill="#E2E2F0" rx="8" ry="8" style="stroke:#181818;stroke-width:0.5;"/><path d="M41.9302,21.5 L41.9302,48.5 M28.9302,29.5 L54.9302,29.5 M41.9302,48.5 L28.9302,63.5 M41.9302,48.5 L54.9302,63.5" fill="none" style="stroke:#181818;stroke-width:0.5;"/></g><g class="participant participant-tail" data-participant="&#1047;&#1072;&#1082;&#1072;&#1079;&#1095;&#1080;&#1082;"><text fill="#000000" font-family="sans-serif" font-size="14" lengthAdjust="spacing" textLength="67.8604" x="5" y="462.8857">&#1047;&#1072;&#1082;&#1072;&#1079;&#1095;&#1080;&#1082;</text><ellipse cx="41.9302" cy="474.6875" fill="#E2E2F0" rx="8" ry="8" style="stroke:#181818;stroke-width:0.5;"/><path d="M41.9302,482.6875 L41.9302,509.6875 M28.9302,490.6875 L54.9302,490.6875 M41.9302,509.6875 L28.9302,524.6875 M41.9302,509.6875 L54.9302,524.6875" fill="none" style="stroke:#181818;stroke-width:0.5;"/></g><g class="participant participant-head" data-participant="UI"><rect fill="#E2E2F0" height="30.2969" rx="2.5" ry="2.5" style="stroke:#181818;stroke-width:0.5;" width="127.1895" x="256.6479" y="50"/><text fill="#000000" font-family="sans-serif" font-size="14" lengthAdjust="spacing" textLength="113.1895" x="263.6479" y="69.9951">&#1042;&#1077;&#1073;-&#1080;&#1085;&#1090;&#1077;&#1088;&#1092;&#1077;&#1081;&#1089;</text></g><g class="participant participant-tail" data-participant="UI"><rect fill="#E2E2F0" height="30.2969" rx="2.5" ry="2.5" style="stroke:#181818;stroke-width:0.5;" width="127.1895" x="256.6479" y="449.8906"/><text fill="#000000" font-family="sans-serif" font-size="14" lengthAdjust="spacing" textLength="113.1895" x="263.6479" y="469.8857">&#1042;&#1077;&#1073;-&#1080;&#1085;&#1090;&#1077;&#1088;&#1092;&#1077;&#1081;&#1089;</text></g><g class="participant participant-head" data-participant="Auth"><rect fill="#E2E2F0" height="30.2969" rx="2.5" ry="2.5" style="stroke:#181818;stroke-width:0.5;" width="196.6426" x="393.8374" y="50"/><text fill="#000000" font-family="sans-serif" font-size="14" lengthAdjust="spacing" textLength="182.6426" x="400.8374" y="69.9951">&#1057;&#1077;&#1088;&#1074;&#1080;&#1089; &#1072;&#1091;&#1090;&#1077;&#1085;&#1090;&#1080;&#1092;&#1080;&#1082;&#1072;&#1094;&#1080;&#1080;</text></g><g class="participant participant-tail" data-participant="Auth"><rect fill="#E2E2F0" height="30.2969" rx="2.5" ry="2.5" style="stroke:#181818;stroke-width:0.5;" width="196.6426" x="393.8374" y="449.8906"/><text fill="#000000" font-family="sans-serif" font-size="14" lengthAdjust="spacing" textLength="182.6426" x="400.8374" y="469.8857">&#1057;&#1077;&#1088;&#1074;&#1080;&#1089; &#1072;&#1091;&#1090;&#1077;&#1085;&#1090;&#1080;&#1092;&#1080;&#1082;&#1072;&#1094;&#1080;&#1080;</text></g><g class="participant participant-head" data-participant="Order"><rect fill="#E2E2F0" height="30.2969" rx="2.5" ry="2.5" style="stroke:#181818;stroke-width:0.5;" width="128.0918" x="600.48" y="50"/><text fill="#000000" font-family="sans-serif" font-size="14" lengthAdjust="spacing" textLength="114.0918" x="607.48" y="69.9951">&#1057;&#1077;&#1088;&#1074;&#1080;&#1089; &#1079;&#1072;&#1082;&#1072;&#1079;&#1086;&#1074;</text></g><g class="participant participant-tail" data-participant="Order"><rect fill="#E2E2F0" height="30.2969" rx="2.5" ry="2.5" style="stroke:#181818;stroke-width:0.5;" width="128.0918" x="600.48" y="449.8906"/><text fill="#000000" font-family="sans-serif" font-size="14" lengthAdjust="spacing" textLength="114.0918" x="607.48" y="469.8857">&#1057;&#1077;&#1088;&#1074;&#1080;&#1089; &#1079;&#1072;&#1082;&#1072;&#1079;&#1086;&#1074;</text></g><g class="participant participant-head" data-participant="Payment"><rect fill="#E2E2F0" height="30.2969" rx="2.5" ry="2.5" style="stroke:#181818;stroke-width:0.5;" width="144.5459" x="776.106" y="50"/><text fill="#000000" font-family="sans-serif" font-size="14" lengthAdjust="spacing" textLength="130.5459" x="783.106" y="69.9951">&#1057;&#1077;&#1088;&#1074;&#1080;&#1089; &#1087;&#1083;&#1072;&#1090;&#1077;&#1078;&#1077;&#1081;</text></g><g class="participant participant-tail" data-participant="Payment"><rect fill="#E2E2F0" height="30.2969" rx="2.5" ry="2.5" style="stroke:#181818;stroke-width:0.5;" width="144.5459" x="776.106" y="449.8906"/><text fill="#000000" font-family="sans-serif" font-size="14" lengthAdjust="spacing" textLength="130.5459" x="783.106" y="469.8857">&#1057;&#1077;&#1088;&#1074;&#1080;&#1089; &#1087;&#1083;&#1072;&#1090;&#1077;&#1078;&#1077;&#1081;</text></g><g class="participant participant-head" data-participant="DB"><text fill="#000000" font-family="sans-serif" font-size="14" lengthAdjust="spacing" textLength="94.5615" x="1006.5547" y="77.9951">&#1041;&#1072;&#1079;&#1072; &#1076;&#1072;&#1085;&#1085;&#1099;&#1093;</text><path d="M1038.8354,29 C1038.8354,19 1056.8354,19 1056.8354,19 C1056.8354,19 1074.8354,19 1074.8354,29 L1074.8354,55 C1074.8354,65 1056.8354,65 1056.8354,65 C1056.8354,65 1038.8354,65 1038.8354,55 L1038.8354,29" fill="#E2E2F0" style="stroke:#181818;stroke-width:1.5;"/><path d="M1038.8354,29 C1038.8354,39 1056.8354,39 1056.8354,39 C1056.8354,39 1074.8354,39 1074.8354,29" fill="none" style="stroke:#181818;stroke-width:1.5;"/></g><g class="participant participant-tail" data-participant="DB"><text fill="#000000" font-family="sans-serif" font-size="14" lengthAdjust="spacing" textLength="94.5615" x="1006.5547" y="462.8857">&#1041;&#1072;&#1079;&#1072; &#1076;&#1072;&#1085;&#1085;&#1099;&#1093;</text><path d="M1038.8354,476.1875 C1038.8354,466.1875 1056.8354,466.1875 1056.8354,466.1875 C1056.8354,466.1875 1074.8354,466.1875 1074.8354,476.1875 L1074.8354,502.1875 C1074.8354,512.1875 1056.8354,512.1875 1056.8354,512.1875 C1056.8354,512.1875 1038.8354,512.1875 1038.8354,502.1875 L1038.8354,476.1875" fill="#E2E2F0" style="stroke:#181818;stroke-width:1.5;"/><path d="M1038.8354,476.1875 C1038.8354,486.1875 1056.8354,486.1875 1056.8354,486.1875 C1056.8354,486.1875 1074.8354,486.1875 1074.8354,476.1875" fill="none" style="stroke:#181818;stroke-width:1.5;"/></g><g class="participant participant-head" data-participant="Gateway"><rect fill="#E2E2F0" height="30.2969" rx="2.5" ry="2.5" style="stroke:#181818;stroke-width:0.5;" width="146.1797" x="1117.1162" y="50"/><text fill="#000000" font-family="sans-serif" font-size="14" lengthAdjust="spacing" textLength="132.1797" x="1124.1162" y="69.9951">&#1055;&#1083;&#1072;&#1090;&#1105;&#1078;&#1085;&#1099;&#1081; &#1096;&#1083;&#1102;&#1079;</text></g><g class="participant participant-tail" data-participant="Gateway"><rect fill="#E2E2F0" height="30.2969" rx="2.5" ry="2.5" style="stroke:#181818;stroke-width:0.5;" width="146.1797" x="1117.1162" y="449.8906"/><text fill="#000000" font-family="sans-serif" font-size="14" lengthAdjust="spacing" textLength="132.1797" x="1124.1162" y="469.8857">&#1055;&#1083;&#1072;&#1090;&#1105;&#1078;&#1085;&#1099;&#1081; &#1096;&#1083;&#1102;&#1079;</text></g><g class="message" data-participant-1="&#1047;&#1072;&#1082;&#1072;&#1079;&#1095;&#1080;&#1082;" data-participant-2="UI"><polygon fill="#181818" points="308.2427,108.4297,318.2427,112.4297,308.2427,116.4297,312.2427,112.4297" style="stroke:#181818;stroke-width:1;"/><line style="stroke:#181818;stroke-width:1;" x1="41.9302" x2="314.2427" y1="112.4297" y2="112.4297"/><text fill="#000000" font-family="sans-serif" font-size="13" lengthAdjust="spacing" textLength="254.3125" x="48.9302" y="107.3638">&#1042;&#1099;&#1073;&#1080;&#1088;&#1072;&#1077;&#1090; &#1087;&#1088;&#1077;&#1076;&#1083;&#1086;&#1078;&#1077;&#1085;&#1080;&#1077; &#1092;&#1088;&#1080;&#1083;&#1072;&#1085;&#1089;&#1077;&#1088;&#1072;</text></g><g class="message" data-participant-1="UI" data-participant-2="Auth"><polygon fill="#181818" points="480.1587,137.5625,490.1587,141.5625,480.1587,145.5625,484.1587,141.5625" style="stroke:#181818;stroke-width:1;"/><line style="stroke:#181818;stroke-width:1;" x1="320.2427" x2="486.1587" y1="141.5625" y2="141.5625"/><text fill="#000000" font-family="sans-serif" font-size="13" lengthAdjust="spacing" textLength="94.4722" x="327.2427" y="136.4966">&#1055;&#1088;&#1086;&#1074;&#1077;&#1088;&#1082;&#1072; JWT</text></g><g class="message" data-participant-1="Auth" data-participant-2="UI"><polygon fill="#181818" points="331.2427,166.6953,321.2427,170.6953,331.2427,174.6953,327.2427,170.6953" style="stroke:#181818;stroke-width:1;"/><line style="stroke:#181818;stroke-width:1;stroke-dasharray:2.0,2.0;" x1="325.2427" x2="491.1587" y1="170.6953" y2="170.6953"/><text fill="#000000" font-family="sans-serif" font-size="13" lengthAdjust="spacing" textLength="141.0195" x="337.2427" y="165.6294">&#1058;&#1086;&#1082;&#1077;&#1085; &#1076;&#1077;&#1081;&#1089;&#1090;&#1074;&#1080;&#1090;&#1077;&#1083;&#1077;&#1085;</text></g><g class="message" data-participant-1="UI" data-participant-2="Order"><polygon fill="#181818" points="652.5259,195.8281,662.5259,199.8281,652.5259,203.8281,656.5259,199.8281" style="stroke:#181818;stroke-width:1;"/><line style="stroke:#181818;stroke-width:1;" x1="320.2427" x2="658.5259" y1="199.8281" y2="199.8281"/><text fill="#000000" font-family="sans-serif" font-size="13" lengthAdjust="spacing" textLength="218.8735" x="327.2427" y="194.7622">POST /api/orders (&#1089;&#1086;&#1079;&#1076;&#1072;&#1090;&#1100; &#1079;&#1072;&#1082;&#1072;&#1079;)</text></g><g class="message" data-participant-1="Order" data-participant-2="DB"><polygon fill="#181818" points="1044.8354,224.9609,1054.8354,228.9609,1044.8354,232.9609,1048.8354,228.9609" style="stroke:#181818;stroke-width:1;"/><line style="stroke:#181818;stroke-width:1;" x1="664.5259" x2="1050.8354" y1="228.9609" y2="228.9609"/><text fill="#000000" font-family="sans-serif" font-size="13" lengthAdjust="spacing" textLength="192.9116" x="671.5259" y="223.895">INSERT &#1085;&#1086;&#1074;&#1086;&#1081; &#1079;&#1072;&#1087;&#1080;&#1089;&#1080; &#1079;&#1072;&#1082;&#1072;&#1079;&#1072;</text></g><g class="message" data-participant-1="DB" data-participant-2="Order"><polygon fill="#181818" points="675.5259,254.0938,665.5259,258.0938,675.5259,262.0938,671.5259,258.0938" style="stroke:#181818;stroke-width:1;"/><line style="stroke:#181818;stroke-width:1;stroke-dasharray:2.0,2.0;" x1="669.5259" x2="1055.8354" y1="258.0938" y2="258.0938"/><text fill="#000000" font-family="sans-serif" font-size="13" lengthAdjust="spacing" textLength="18.7573" x="681.5259" y="253.0278">OK</text></g><g class="message" data-participant-1="Order" data-participant-2="Payment"><polygon fill="#181818" points="836.3789,283.2266,846.3789,287.2266,836.3789,291.2266,840.3789,287.2266" style="stroke:#181818;stroke-width:1;"/><line style="stroke:#181818;stroke-width:1;" x1="664.5259" x2="842.3789" y1="287.2266" y2="287.2266"/><text fill="#000000" font-family="sans-serif" font-size="13" lengthAdjust="spacing" textLength="159.853" x="671.5259" y="282.1606">initiatePayment(orderId)</text></g><g class="message" data-participant-1="Payment" data-participant-2="Gateway"><polygon fill="#181818" points="1178.2061,312.3594,1188.2061,316.3594,1178.2061,320.3594,1182.2061,316.3594" style="stroke:#181818;stroke-width:1;"/><line style="stroke:#181818;stroke-width:1;" x1="848.3789" x2="1184.2061" y1="316.3594" y2="316.3594"/><text fill="#000000" font-family="sans-serif" font-size="13" lengthAdjust="spacing" textLength="165.896" x="855.3789" y="311.2935">HTTPS-&#1079;&#1072;&#1087;&#1088;&#1086;&#1089; &#1085;&#1072; &#1086;&#1087;&#1083;&#1072;&#1090;&#1091;</text></g><g class="message" data-participant-1="Gateway" data-participant-2="Payment"><polygon fill="#181818" points="859.3789,341.4922,849.3789,345.4922,859.3789,349.4922,855.3789,345.4922" style="stroke:#181818;stroke-width:1;"/><line style="stroke:#181818;stroke-width:1;stroke-dasharray:2.0,2.0;" x1="853.3789" x2="1189.2061" y1="345.4922" y2="345.4922"/><text fill="#000000" font-family="sans-serif" font-size="13" lengthAdjust="spacing" textLength="39.2603" x="865.3789" y="340.4263">&#1059;&#1089;&#1087;&#1077;&#1093;</text></g><g class="message" data-participant-1="Payment" data-participant-2="DB"><polygon fill="#181818" points="1044.8354,370.625,1054.8354,374.625,1044.8354,378.625,1048.8354,374.625" style="stroke:#181818;stroke-width:1;"/><line style="stroke:#181818;stroke-width:1;" x1="848.3789" x2="1050.8354" y1="374.625" y2="374.625"/><text fill="#000000" font-family="sans-serif" font-size="13" lengthAdjust="spacing" textLength="184.4565" x="855.3789" y="369.5591">UPDATE &#1079;&#1072;&#1082;&#1072;&#1079; = "&#1054;&#1087;&#1083;&#1072;&#1095;&#1077;&#1085;"</text></g><g class="message" data-participant-1="Payment" data-participant-2="UI"><polygon fill="#181818" points="331.2427,399.7578,321.2427,403.7578,331.2427,407.7578,327.2427,403.7578" style="stroke:#181818;stroke-width:1;"/><line style="stroke:#181818;stroke-width:1;stroke-dasharray:2.0,2.0;" x1="325.2427" x2="847.3789" y1="403.7578" y2="403.7578"/><text fill="#000000" font-family="sans-serif" font-size="13" lengthAdjust="spacing" textLength="158.4185" x="337.2427" y="398.6919">JSON (&#1086;&#1087;&#1083;&#1072;&#1090;&#1072; &#1091;&#1089;&#1087;&#1077;&#1096;&#1085;&#1072;)</text></g><g class="message" data-participant-1="UI" data-participant-2="&#1047;&#1072;&#1082;&#1072;&#1079;&#1095;&#1080;&#1082;"><polygon fill="#181818" points="52.9302,428.8906,42.9302,432.8906,52.9302,436.8906,48.9302,432.8906" style="stroke:#181818;stroke-width:1;"/><line style="stroke:#181818;stroke-width:1;stroke-dasharray:2.0,2.0;" x1="46.9302" x2="319.2427" y1="432.8906" y2="432.8906"/><text fill="#000000" font-family="sans-serif" font-size="13" lengthAdjust="spacing" textLength="210.082" x="58.9302" y="427.8247">&#171;&#1060;&#1088;&#1080;&#1083;&#1072;&#1085;&#1089;&#1077;&#1088; &#1085;&#1072;&#1085;&#1103;&#1090; &#1080; &#1086;&#1087;&#1083;&#1072;&#1095;&#1077;&#1085;&#187;</text></g><!--SRC=[VL9DInjH5Ds_Nt79AbaCxeKMb8YD1HEQaQwV9j1PD8PaId5d_AY2Kj6DEqNRNJUZECsO8Gdu2-xxHpttPgQPfk0Y97dlVDrpdzq9Ttl4rnpn29-XE-64HwPhUs6m4tHj9wGINt7C3nuknkw0OxVlZd3mx0ObidtQgYsWxmJ2Zvou0N7a3eMZp0IyH6pSDtmdobxv4dvwZJ_CW_647vLHxxNQlTSeKqvX8QQ_9QQI6dRlSxiJcfODxRRjjy6vLDM8-0a_nWXuveuLMrrTKB-T2RfB20B6p-HEENNVUQZuTHkslzezOnPR9Eyjsg5buYkm7f1k7vUnEq16_8pXd68iIJa6FYPtXED4tE0pq9aY0mNeI4-YT8ipDA5tiAADZxxHE- -lsJq08z6KqNHFA4EwaKfIkSWqjKam6lMcJqks6opjoacVoZ2Ve9md7Vkyi8MAcP70hgw2Mjjihdtm2Vabr0JLA7Ogc-2akBx8WE0LNEllvrhPUd0QT88mGA7PILaJrLeLaqE0pWe7-ftlDvhUp5AAaVMFPQUJ_1MuGvF3lN-C-0SIJj7ZSL5QXzfgL5VyjK9uUeDNS9D9daY3fJafxtsZMT-ayjmPCV3sPnwdaggYjGF-tpjPffTV_7DnzpeA_bp8WqdcCsc0b_GF]--></g></svg>