<svg xmlns="http://www.w3.org/2000/svg" xmlns:xlink="http://www.w3.org/1999/xlink" contentStyleType="text/css" data-diagram-type="SEQUENCE" height="531px" preserveAspectRatio="none" style="width:1116px;height:531px;background:#FFFFFF;" version="1.1" viewBox="0 0 1116 531" width="1116px" zoomAndPan="magnify"><defs/><g><g><title>&#1060;&#1088;&#1080;&#1083;&#1072;&#1085;&#1089;&#1077;&#1088;</title><rect fill="#000000" fill-opacity="0.00000" height="369.5938" width="8" x="44.9575" y="81.2969"/><line style="stroke:#181818;stroke-width:0.5;stroke-dasharray:5.0,5.0;" x1="48" x2="48" y1="81.2969" y2="450.8906"/></g><g><title>&#1042;&#1077;&#1073;-&#1080;&#1085;&#1090;&#1077;&#1088;&#1092;&#1077;&#1081;&#1089;</title><rect fill="#000000" fill-opacity="0.00000" height="369.5938" width="8" x="275.7959" y="81.2969"/><line style="stroke:#181818;stroke-width:0.5;stroke-dasharray:5.0,5.0;" x1="279.2012" x2="279.2012" y1="81.2969" y2="450.8906"/></g><g><title>&#1057;&#1077;&#1088;&#1074;&#1080;&#1089; &#1072;&#1091;&#1090;&#1077;&#1085;&#1090;&#1080;&#1092;&#1080;&#1082;&#1072;&#1094;&#1080;&#1080;</title><rect fill="#000000" fill-opacity="0.00000" height="369.5938" width="8" x="447.7119" y="81.2969"/><line style="stroke:#181818;stroke-width:0.5;stroke-dasharray:5.0,5.0;" x1="451.3906" x2="451.3906" y1="81.2969" y2="450.8906"/></g><g><title>&#1057;&#1077;&#1088;&#1074;&#1080;&#1089; &#1086;&#1090;&#1082;&#1083;&#1080;&#1082;&#1086;&#1074;</title><rect fill="#000000" fill-opacity="0.00000" height="369.5938" width="8" x="677.4839" y="81.2969"/><line style="stroke:#181818;stroke-width:0.5;stroke-dasharray:5.0,5.0;" x1="680.8496" x2="680.8496" y1="81.2969" y2="450.8906"/></g><g><title>&#1057;&#1077;&#1088;&#1074;&#1080;&#1089; &#1079;&#1072;&#1076;&#1072;&#1085;&#1080;&#1081;</title><rect fill="#000000" fill-opacity="0.00000" height="369.5938" width="8" x="823.3208" y="81.2969"/><line style="stroke:#181818;stroke-width:0.5;stroke-dasharray:5.0,5.0;" x1="827.1182" x2="827.1182" y1="81.2969" y2="450.8906"/></g><g><title>&#1041;&#1072;&#1079;&#1072; &#1076;&#1072;&#1085;&#1085;&#1099;&#1093;</title><rect fill="#000000" fill-opacity="0.00000" height="369.5938" width="8" x="1061.002" y="81.2969"/><line style="stroke:#181818;stroke-width:0.5;stroke-dasharray:5.0,5.0;" x1="1064.7212" x2="1064.7212" y1="81.2969" y2="450.8906"/></g><g class="participant participant-head" data-participant="&#1060;&#1088;&#1080;&#1083;&#1072;&#1085;&#1089;&#1077;&#1088;"><text fill="#000000" font-family="sans-serif" font-size="14" lengthAdjust="spacing" textLength="81.915" x="5" y="77.9951">&#1060;&#1088;&#1080;&#1083;&#1072;&#1085;&#1089;&#1077;&#1088;</text><ellipse cx="48.9575" cy="13.5" fill="#E2E2F0" rx="8" ry="8" style="stroke:#181818;stroke-width:0.5;"/><path d="M48.9575,21.5 L48.9575,48.5 M35.9575,29.5 L61.9575,29.5 M48.9575,48.5 L35.9575,63.5 M48.9575,48.5 L61.9575,63.5" fill="none" style="stroke:#181818;stroke-width:0.5;"/></g><g class="participant participant-tail" data-participant="&#1060;&#1088;&#1080;&#1083;&#1072;&#1085;&#1089;&#1077;&#1088;"><text fill="#000000" font-family="sans-serif" font-size="14" lengthAdjust="spacing" textLength="81.915" x="5" y="462.8857">&#1060;&#1088;&#1080;&#1083;&#1072;&#1085;&#1089;&#1077;&#1088;</text><ellipse cx="48.9575" cy="474.6875" fill="#E2E2F0" rx="8" ry="8" style="stroke:#181818;stroke-width:0.5;"/><path d="M48.9575,482.6875 L48.9575,509.6875 M35.9575,490.6875 L61.9575,490.6875 M48.9575,509.6875 L35.9575,524.6875 M48.9575,509.6875 L61.9575,524.6875" fill="none" style="stroke:#181818;stroke-width:0.5;"/></g><g class="participant participant-head" data-participant="UI"><rect fill="#E2E2F0" height="30.2969" rx="2.5" ry="2.5" style="stroke:#181818;stroke-width:0.5;" width="127.1895" x="216.2012" y="50"/><text fill="#000000" font-family="sans-serif" font-size="14" lengthAdjust="spacing" textLength="113.1895" x="223.2012" y="69.9951">&#1042;&#1077;&#1073;-&#1080;&#1085;&#1090;&#1077;&#1088;&#1092;&#1077;&#1081;&#1089;</text></g><g class="participant participant-tail" data-participant="UI"><rect fill="#E2E2F0" height="30.2969" rx="2.5" ry="2.5" style="stroke:#181818;stroke-width:0.5;" width="127.1895" x="216.2012" y="449.8906"/><text fill="#000000" font-family="sans-serif" font-size="14" lengthAdjust="spacing" textLength="113.1895" x="223.2012" y="469.8857">&#1042;&#1077;&#1073;-&#1080;&#1085;&#1090;&#1077;&#1088;&#1092;&#1077;&#1081;&#1089;</text></g><g class="participant participant-head" data-participant="Auth"><rect fill="#E2E2F0" height="30.2969" rx="2.5" ry="2.5" style="stroke:#181818;stroke-width:0.5;" width="196.6426" x="353.3906" y="50"/><text fill="#000000" font-family="sans-serif" font-size="14" lengthAdjust="spacing" textLength="182.6426" x="360.3906" y="69.9951">&#1057;&#1077;&#1088;&#1074;&#1080;&#1089; &#1072;&#1091;&#1090;&#1077;&#1085;&#1090;&#1080;&#1092;&#1080;&#1082;&#1072;&#1094;&#1080;&#1080;</text></g><g class="participant participant-tail" data-participant="Auth"><rect fill="#E2E2F0" height="30.2969" rx="2.5" ry="2.5" style="stroke:#181818;stroke-width:0.5;" width="196.6426" x="353.3906" y="449.8906"/><text fill="#000000" font-family="sans-serif" font-size="14" lengthAdjust="spacing" textLength="182.6426" x="360.3906" y="469.8857">&#1057;&#1077;&#1088;&#1074;&#1080;&#1089; &#1072;&#1091;&#1090;&#1077;&#1085;&#1090;&#1080;&#1092;&#1080;&#1082;&#1072;&#1094;&#1080;&#1080;</text></g><g class="participant participant-head" data-participant="Offer"><rect fill="#E2E2F0" height="30.2969" rx="2.5" ry="2.5" style="stroke:#181818;stroke-width:0.5;" width="139.2686" x="611.8496" y="50"/><text fill="#000000" font-family="sans-serif" font-size="14" lengthAdjust="spacing" textLength="125.2686" x="618.8496" y="69.9951">&#1057;&#1077;&#1088;&#1074;&#1080;&#1089; &#1086;&#1090;&#1082;&#1083;&#1080;&#1082;&#1086;&#1074;</text></g><g class="participant participant-tail" data-participant="Offer"><rect fill="#E2E2F0" height="30.2969" rx="2.5" ry="2.5" style="stroke:#181818;stroke-width:0.5;" width="139.2686" x="611.8496" y="449.8906"/><text fill="#000000" font-family="sans-serif" font-size="14" lengthAdjust="spacing" textLength="125.2686" x="618.8496" y="469.8857">&#1057;&#1077;&#1088;&#1074;&#1080;&#1089; &#1086;&#1090;&#1082;&#1083;&#1080;&#1082;&#1086;&#1074;</text></g><g class="participant participant-head" data-participant="Job"><rect fill="#E2E2F0" height="30.2969" rx="2.5" ry="2.5" style="stroke:#181818;stroke-width:0.5;" width="132.4053" x="761.1182" y="50"/><text fill="#000000" font-family="sans-serif" font-size="14" lengthAdjust="spacing" textLength="118.4053" x="768.1182" y="69.9951">&#1057;&#1077;&#1088;&#1074;&#1080;&#1089; &#1079;&#1072;&#1076;&#1072;&#1085;&#1080;&#1081;</text></g><g class="participant participant-tail" data-participant="Job"><rect fill="#E2E2F0" height="30.2969" rx="2.5" ry="2.5" style="stroke:#181818;stroke-width:0.5;" width="132.4053" x="761.1182" y="449.8906"/><text fill="#000000" font-family="sans-serif" font-size="14" lengthAdjust="spacing" textLength="118.4053" x="768.1182" y="469.8857">&#1057;&#1077;&#1088;&#1074;&#1080;&#1089; &#1079;&#1072;&#1076;&#1072;&#1085;&#1080;&#1081;</text></g><g class="participant participant-head" data-participant="DB"><text fill="#000000" font-family="sans-serif" font-size="14" lengthAdjust="spacing" textLength="94.5615" x="1014.7212" y="77.9951">&#1041;&#1072;&#1079;&#1072; &#1076;&#1072;&#1085;&#1085;&#1099;&#1093;</text><path d="M1047.002,29 C1047.002,19 1065.002,19 1065.002,19 C1065.002,19 1083.002,19 1083.002,29 L1083.002,55 C1083.002,65 1065.002,65 1065.002,65 C1065.002,65 1047.002,65 1047.002,55 L1047.002,29" fill="#E2E2F0" style="stroke:#181818;stroke-width:1.5;"/><path d="M1047.002,29 C1047.002,39 1065.002,39 1065.002,39 C1065.002,39 1083.002,39 1083.002,29" fill="none" style="stroke:#181818;stroke-width:1.5;"/></g><g class="participant participant-tail" data-participant="DB"><text fill="#000000" font-family="sans-serif" font-size="14" lengthAdjust="spacing" textLength="94.5615" x="1014.7212" y="462.8857">&#1041;&#1072;&#1079;&#1072; &#1076;&#1072;&#1085;&#1085;&#1099;&#1093;</text><path d="M1047.002,476.1875 C1047.002,466.1875 1065.002,466.1875 1065.002,466.1875 C1065.002,466.1875 1083.002,466.1875 1083.002,476.1875 L1083.002,502.1875 C1083.002,512.1875 1065.002,512.1875 1065.002,512.1875 C1065.002,512.1875 1047.002,512.1875 1047.002,502.1875 L1047.002,476.1875" fill="#E2E2F0" style="stroke:#181818;stroke-width:1.5;"/><path d="M1047.002,476.1875 C1047.002,486.1875 1065.002,486.1875 1065.002,486.1875 C1065.002,486.1875 1083.002,486.1875 1083.002,476.1875" fill="none" style="stroke:#181818;stroke-width:1.5;"/></g><g class="message" data-participant-1="&#1060;&#1088;&#1080;&#1083;&#1072;&#1085;&#1089;&#1077;&#1088;" data-participant-2="UI"><polygon fill="#181818" points="267.7959,108.4297,277.7959,112.4297,267.7959,116.4297,271.7959,112.4297" style="stroke:#181818;stroke-width:1;"/><line style="stroke:#181818;stroke-width:1;" x1="48.9575" x2="273.7959" y1="112.4297" y2="112.4297"/><text fill="#000000" font-family="sans-serif" font-size="13" lengthAdjust="spacing" textLength="204.6675" x="55.9575" y="107.3638">&#1054;&#1090;&#1082;&#1088;&#1099;&#1074;&#1072;&#1077;&#1090; &#1089;&#1090;&#1088;&#1072;&#1085;&#1080;&#1094;&#1091; &#1079;&#1072;&#1076;&#1072;&#1085;&#1080;&#1103;</text></g><g class="message" data-participant-1="UI" data-participant-2="Job"><polygon fill="#181818" points="815.3208,137.5625,825.3208,141.5625,815.3208,145.5625,819.3208,141.5625" style="stroke:#181818;stroke-width:1;"/><line style="stroke:#181818;stroke-width:1;" x1="279.7959" x2="821.3208" y1="141.5625" y2="141.5625"/><text fill="#000000" font-family="sans-serif" font-size="13" lengthAdjust="spacing" textLength="118.3267" x="286.7959" y="136.4966">GET /api/jobs/{id}</text></g><g class="message" data-participant-1="Job" data-participant-2="DB"><polygon fill="#181818" points="1053.002,166.6953,1063.002,170.6953,1053.002,174.6953,1057.002,170.6953" style="stroke:#181818;stroke-width:1;"/><line style="stroke:#181818;stroke-width:1;" x1="827.3208" x2="1059.002" y1="170.6953" y2="170.6953"/><text fill="#000000" font-family="sans-serif" font-size="13" lengthAdjust="spacing" textLength="213.6812" x="834.3208" y="165.6294">SELECT &#1080;&#1085;&#1092;&#1086;&#1088;&#1084;&#1072;&#1094;&#1080;&#1103; &#1086; &#1079;&#1072;&#1076;&#1072;&#1085;&#1080;&#1080;</text></g><g class="message" data-participant-1="DB" data-participant-2="Job"><polygon fill="#181818" points="838.3208,195.8281,828.3208,199.8281,838.3208,203.8281,834.3208,199.8281" style="stroke:#181818;stroke-width:1;"/><line style="stroke:#181818;stroke-width:1;stroke-dasharray:2.0,2.0;" x1="832.3208" x2="1064.002" y1="199.8281" y2="199.8281"/><text fill="#000000" font-family="sans-serif" font-size="13" lengthAdjust="spacing" textLength="114.1182" x="844.3208" y="194.7622">&#1044;&#1072;&#1085;&#1085;&#1099;&#1077; &#1079;&#1072;&#1076;&#1072;&#1085;&#1080;&#1103;</text></g><g class="message" data-participant-1="Job" data-participant-2="UI"><polygon fill="#181818" points="290.7959,224.9609,280.7959,228.9609,290.7959,232.9609,286.7959,228.9609" style="stroke:#181818;stroke-width:1;"/><line style="stroke:#181818;stroke-width:1;stroke-dasharray:2.0,2.0;" x1="284.7959" x2="826.3208" y1="228.9609" y2="228.9609"/><text fill="#000000" font-family="sans-serif" font-size="13" lengthAdjust="spacing" textLength="122.2241" x="296.7959" y="223.895">JSON &#1089; &#1086;&#1087;&#1080;&#1089;&#1072;&#1085;&#1080;&#1077;&#1084;</text></g><g class="message" data-participant-1="UI" data-participant-2="Offer"><polygon fill="#181818" points="669.4839,254.0938,679.4839,258.0938,669.4839,262.0938,673.4839,258.0938" style="stroke:#181818;stroke-width:1;"/><line style="stroke:#181818;stroke-width:1;" x1="279.7959" x2="675.4839" y1="258.0938" y2="258.0938"/><text fill="#000000" font-family="sans-serif" font-size="13" lengthAdjust="spacing" textLength="230.7881" x="286.7959" y="253.0278">POST /api/offers (&#1076;&#1072;&#1085;&#1085;&#1099;&#1077; &#1086;&#1090;&#1082;&#1083;&#1080;&#1082;&#1072;)</text></g><g class="message" data-participant-1="Offer" data-participant-2="Auth"><polygon fill="#181818" points="462.7119,283.2266,452.7119,287.2266,462.7119,291.2266,458.7119,287.2266" style="stroke:#181818;stroke-width:1;"/><line style="stroke:#181818;stroke-width:1;" x1="456.7119" x2="680.4839" y1="287.2266" y2="287.2266"/><text fill="#000000" font-family="sans-serif" font-size="13" lengthAdjust="spacing" textLength="205.772" x="468.7119" y="282.1606">&#1055;&#1088;&#1086;&#1074;&#1077;&#1088;&#1082;&#1072; &#1090;&#1086;&#1082;&#1077;&#1085;&#1072; &#1092;&#1088;&#1080;&#1083;&#1072;&#1085;&#1089;&#1077;&#1088;&#1072;</text></g><g class="message" data-participant-1="Auth" data-participant-2="Offer"><polygon fill="#181818" points="669.4839,312.3594,679.4839,316.3594,669.4839,320.3594,673.4839,316.3594" style="stroke:#181818;stroke-width:1;"/><line style="stroke:#181818;stroke-width:1;stroke-dasharray:2.0,2.0;" x1="451.7119" x2="675.4839" y1="316.3594" y2="316.3594"/><text fill="#000000" font-family="sans-serif" font-size="13" lengthAdjust="spacing" textLength="141.0195" x="458.7119" y="311.2935">&#1058;&#1086;&#1082;&#1077;&#1085; &#1076;&#1077;&#1081;&#1089;&#1090;&#1074;&#1080;&#1090;&#1077;&#1083;&#1077;&#1085;</text></g><g class="message" data-participant-1="Offer" data-participant-2="DB"><polygon fill="#181818" points="1053.002,341.4922,1063.002,345.4922,1053.002,349.4922,1057.002,345.4922" style="stroke:#181818;stroke-width:1;"/><line style="stroke:#181818;stroke-width:1;" x1="681.4839" x2="1059.002" y1="345.4922" y2="345.4922"/><text fill="#000000" font-family="sans-serif" font-size="13" lengthAdjust="spacing" textLength="107.085" x="688.4839" y="340.4263">INSERT &#1086;&#1090;&#1082;&#1083;&#1080;&#1082;&#1072;</text></g><g class="message" data-participant-1="DB" data-participant-2="Offer"><polygon fill="#181818" points="692.4839,370.625,682.4839,374.625,692.4839,378.625,688.4839,374.625" style="stroke:#181818;stroke-width:1;"/><line style="stroke:#181818;stroke-width:1;stroke-dasharray:2.0,2.0;" x1="686.4839" x2="1064.002" y1="374.625" y2="374.625"/><text fill="#000000" font-family="sans-serif" font-size="13" lengthAdjust="spacing" textLength="19.4619" x="698.4839" y="369.5591">&#1054;&#1050;</text></g><g class="message" data-participant-1="Offer" data-participant-2="UI"><polygon fill="#181818" points="290.7959,399.7578,280.7959,403.7578,290.7959,407.7578,286.7959,403.7578" style="stroke:#181818;stroke-width:1;"/><line style="stroke:#181818;stroke-width:1;stroke-dasharray:2.0,2.0;" x1="284.7959" x2="680.4839" y1="403.7578" y2="403.7578"/><text fill="#000000" font-family="sans-serif" font-size="13" lengthAdjust="spacing" textLength="112.3027" x="296.7959" y="398.6919">&#1054;&#1090;&#1074;&#1077;&#1090; &#1086;&#1073; &#1091;&#1089;&#1087;&#1077;&#1093;&#1077;</text></g><g class="message" data-participant-1="UI" data-participant-2="&#1060;&#1088;&#1080;&#1083;&#1072;&#1085;&#1089;&#1077;&#1088;"><polygon fill="#181818" points="59.9575,428.8906,49.9575,432.8906,59.9575,436.8906,55.9575,432.8906" style="stroke:#181818;stroke-width:1;"/><line style="stroke:#181818;stroke-width:1;stroke-dasharray:2.0,2.0;" x1="53.9575" x2="278.7959" y1="432.8906" y2="432.8906"/><text fill="#000000" font-family="sans-serif" font-size="13" lengthAdjust="spacing" textLength="206.8384" x="65.9575" y="427.8247">&#171;&#1054;&#1090;&#1082;&#1083;&#1080;&#1082; &#1086;&#1090;&#1087;&#1088;&#1072;&#1074;&#1083;&#1077;&#1085; &#1091;&#1089;&#1087;&#1077;&#1096;&#1085;&#1086;&#187;</text></g><!--SRC=[VLAzIWDX4Eo_frYij0ZfBGH_WYXYnCG7kFY3iJ0XEIiHSZ6AO26AbOMYsDbSWeUdCH5yWjqtSdOlPqmKgro-dTcPdLrlqw_KY1-bmJ5tEUIU11n9mrMzcb_UB5UzVPyc-8eZRcS0wKbJozB2mwi44-JLQMDf37sl4EvmB05nACVACMOCNinlU3l5RspisGD_zpz-7xmtM5DUdpl6oU_iRDV-8xrWacUT1hHNeonNIcxByxsILzy6-X95W6Y0wicvd1XkOSwvtt5GPWPZqZJnhTf10EUG2b5gaWJI1Dx4v5IEHzJbme47DlH1NymLAUjLozczIgcUFInl7JajeBumXt8XjvARBvBbtCBa3NvFif8B134wLkn0oNntvkjq48x67PX4Ei5o8RzA5Yn_Q5Y3TX6_3vnQk02kvGi3inLzgTFaC2pL-BcOSCebDF1reMhe3lQnC5iB40Hu7n-u1FtJ6e-OGsVCp0yB_91IT55sSUYYEzQBwcfXg6i9BgqMSkl5CNDfKjzjR_acvOqijcCBXMQRSBK10ehaX2CB1i0_xcAQFf-IcqZ44kKFkuTEud3OwWoZzp-xNm00]--></g></svg>