<svg xmlns="http://www.w3.org/2000/svg" xmlns:xlink="http://www.w3.org/1999/xlink" contentStyleType="text/css" data-diagram-type="SEQUENCE" height="415px" preserveAspectRatio="none" style="width:981px;height:415px;background:#FFFFFF;" version="1.1" viewBox="0 0 981 415" width="981px" zoomAndPan="magnify"><defs/><g><g><title>&#1047;&#1072;&#1082;&#1072;&#1079;&#1095;&#1080;&#1082;</title><rect fill="#000000" fill-opacity="0.00000" height="253.0625" width="8" x="37.9302" y="81.2969"/><line style="stroke:#181818;stroke-width:0.5;stroke-dasharray:5.0,5.0;" x1="41" x2="41" y1="81.2969" y2="334.3594"/></g><g><title>&#1042;&#1077;&#1073;-&#1080;&#1085;&#1090;&#1077;&#1088;&#1092;&#1077;&#1081;&#1089;</title><rect fill="#000000" fill-opacity="0.00000" height="253.0625" width="8" x="383.1216" y="81.2969"/><line style="stroke:#181818;stroke-width:0.5;stroke-dasharray:5.0,5.0;" x1="386.5269" x2="386.5269" y1="81.2969" y2="334.3594"/></g><g><title>&#1057;&#1077;&#1088;&#1074;&#1080;&#1089; &#1072;&#1091;&#1090;&#1077;&#1085;&#1090;&#1080;&#1092;&#1080;&#1082;&#1072;&#1094;&#1080;&#1080;</title><rect fill="#000000" fill-opacity="0.00000" height="253.0625" width="8" x="584.7607" y="81.2969"/><line style="stroke:#181818;stroke-width:0.5;stroke-dasharray:5.0,5.0;" x1="588.4395" x2="588.4395" y1="81.2969" y2="334.3594"/></g><g><title>&#1057;&#1077;&#1088;&#1074;&#1080;&#1089; &#1079;&#1072;&#1076;&#1072;&#1085;&#1080;&#1081;</title><rect fill="#000000" fill-opacity="0.00000" height="253.0625" width="8" x="759.2847" y="81.2969"/><line style="stroke:#181818;stroke-width:0.5;stroke-dasharray:5.0,5.0;" x1="763.082" x2="763.082" y1="81.2969" y2="334.3594"/></g><g><title>&#1041;&#1072;&#1079;&#1072; &#1076;&#1072;&#1085;&#1085;&#1099;&#1093;</title><rect fill="#000000" fill-opacity="0.00000" height="253.0625" width="8" x="926.4878" y="81.2969"/><line style="stroke:#181818;stroke-width:0.5;stroke-dasharray:5.0,5.0;" x1="930.207" x2="930.207" y1="81.2969" y2="334.3594"/></g><g class="participant participant-head" data-participant="&#1047;&#1072;&#1082;&#1072;&#1079;&#1095;&#1080;&#1082;"><text fill="#000000" font-family="sans-serif" font-size="14" lengthAdjust="spacing" textLength="67.8604" x="5" y="77.9951">&#1047;&#1072;&#1082;&#1072;&#1079;&#1095;&#1080;&#1082;</text><ellipse cx="41.9302" cy="13.5" fill="#E2E2F0" rx="8" ry="8" style="stroke:#181818;stroke-width:0.5;"/><path d="M41.9302,21.5 L41.9302,48.5 M28.9302,29.5 L54.9302,29.5 M41.9302,48.5 L28.9302,63.5 M41.9302,48.5 L54.9302,63.5" fill="none" style="stroke:#181818;stroke-width:0.5;"/></g><g class="participant participant-tail" data-participant="&#1047;&#1072;&#1082;&#1072;&#1079;&#1095;&#1080;&#1082;"><text fill="#000000" font-family="sans-serif" font-size="14" lengthAdjust="spacing" textLength="67.8604" x="5" y="346.3545">&#1047;&#1072;&#1082;&#1072;&#1079;&#1095;&#1080;&#1082;</text><ellipse cx="41.9302" cy="358.1563" fill="#E2E2F0" rx="8" ry="8" style="stroke:#181818;stroke-width:0.5;"/><path d="M41.9302,366.1563 L41.9302,393.1563 M28.9302,374.1563 L54.9302,374.1563 M41.9302,393.1563 L28.9302,408.1563 M41.9302,393.1563 L54.9302,408.1563" fill="none" style="stroke:#181818;stroke-width:0.5;"/></g><g class="participant participant-head" data-participant="UI"><rect fill="#E2E2F0" height="30.2969" rx="2.5" ry="2.5" style="stroke:#181818;stroke-width:0.5;" width="127.1895" x="323.5269" y="50"/><text fill="#000000" font-family="sans-serif" font-size="14" lengthAdjust="spacing" textLength="113.1895" x="330.5269" y="69.9951">&#1042;&#1077;&#1073;-&#1080;&#1085;&#1090;&#1077;&#1088;&#1092;&#1077;&#1081;&#1089;</text></g><g class="participant participant-tail" data-participant="UI"><rect fill="#E2E2F0" height="30.2969" rx="2.5" ry="2.5" style="stroke:#181818;stroke-width:0.5;" width="127.1895" x="323.5269" y="333.3594"/><text fill="#000000" font-family="sans-serif" font-size="14" lengthAdjust="spacing" textLength="113.1895" x="330.5269" y="353.3545">&#1042;&#1077;&#1073;-&#1080;&#1085;&#1090;&#1077;&#1088;&#1092;&#1077;&#1081;&#1089;</text></g><g class="participant participant-head" data-participant="Auth"><rect fill="#E2E2F0" height="30.2969" rx="2.5" ry="2.5" style="stroke:#181818;stroke-width:0.5;" width="196.6426" x="490.4395" y="50"/><text fill="#000000" font-family="sans-serif" font-size="14" lengthAdjust="spacing" textLength="182.6426" x="497.4395" y="69.9951">&#1057;&#1077;&#1088;&#1074;&#1080;&#1089; &#1072;&#1091;&#1090;&#1077;&#1085;&#1090;&#1080;&#1092;&#1080;&#1082;&#1072;&#1094;&#1080;&#1080;</text></g><g class="participant participant-tail" data-participant="Auth"><rect fill="#E2E2F0" height="30.2969" rx="2.5" ry="2.5" style="stroke:#181818;stroke-width:0.5;" width="196.6426" x="490.4395" y="333.3594"/><text fill="#000000" font-family="sans-serif" font-size="14" lengthAdjust="spacing" textLength="182.6426" x="497.4395" y="353.3545">&#1057;&#1077;&#1088;&#1074;&#1080;&#1089; &#1072;&#1091;&#1090;&#1077;&#1085;&#1090;&#1080;&#1092;&#1080;&#1082;&#1072;&#1094;&#1080;&#1080;</text></g><g class="participant participant-head" data-participant="Job"><rect fill="#E2E2F0" height="30.2969" rx="2.5" ry="2.5" style="stroke:#181818;stroke-width:0.5;" width="132.4053" x="697.082" y="50"/><text fill="#000000" font-family="sans-serif" font-size="14" lengthAdjust="spacing" textLength="118.4053" x="704.082" y="69.9951">&#1057;&#1077;&#1088;&#1074;&#1080;&#1089; &#1079;&#1072;&#1076;&#1072;&#1085;&#1080;&#1081;</text></g><g class="participant participant-tail" data-participant="Job"><rect fill="#E2E2F0" height="30.2969" rx="2.5" ry="2.5" style="stroke:#181818;stroke-width:0.5;" width="132.4053" x="697.082" y="333.3594"/><text fill="#000000" font-family="sans-serif" font-size="14" lengthAdjust="spacing" textLength="118.4053" x="704.082" y="353.3545">&#1057;&#1077;&#1088;&#1074;&#1080;&#1089; &#1079;&#1072;&#1076;&#1072;&#1085;&#1080;&#1081;</text></g><g class="participant participant-head" data-participant="DB"><text fill="#000000" font-family="sans-serif" font-size="14" lengthAdjust="spacing" textLength="94.5615" x="880.207" y="77.9951">&#1041;&#1072;&#1079;&#1072; &#1076;&#1072;&#1085;&#1085;&#1099;&#1093;</text><path d="M912.4878,29 C912.4878,19 930.4878,19 930.4878,19 C930.4878,19 948.4878,19 948.4878,29 L948.4878,55 C948.4878,65 930.4878,65 930.4878,65 C930.4878,65 912.4878,65 912.4878,55 L912.4878,29" fill="#E2E2F0" style="stroke:#181818;stroke-width:1.5;"/><path d="M912.4878,29 C912.4878,39 930.4878,39 930.4878,39 C930.4878,39 948.4878,39 948.4878,29" fill="none" style="stroke:#181818;stroke-width:1.5;"/></g><g class="participant participant-tail" data-participant="DB"><text fill="#000000" font-family="sans-serif" font-size="14" lengthAdjust="spacing" textLength="94.5615" x="880.207" y="346.3545">&#1041;&#1072;&#1079;&#1072; &#1076;&#1072;&#1085;&#1085;&#1099;&#1093;</text><path d="M912.4878,359.6563 C912.4878,349.6563 930.4878,349.6563 930.4878,349.6563 C930.4878,349.6563 948.4878,349.6563 948.4878,359.6563 L948.4878,385.6563 C948.4878,395.6563 930.4878,395.6563 930.4878,395.6563 C930.4878,395.6563 912.4878,395.6563 912.4878,385.6563 L912.4878,359.6563" fill="#E2E2F0" style="stroke:#181818;stroke-width:1.5;"/><path d="M912.4878,359.6563 C912.4878,369.6563 930.4878,369.6563 930.4878,369.6563 C930.4878,369.6563 948.4878,369.6563 948.4878,359.6563" fill="none" style="stroke:#181818;stroke-width:1.5;"/></g><g class="message" data-participant-1="&#1047;&#1072;&#1082;&#1072;&#1079;&#1095;&#1080;&#1082;" data-participant-2="UI"><polygon fill="#181818" points="375.1216,108.4297,385.1216,112.4297,375.1216,116.4297,379.1216,112.4297" style="stroke:#181818;stroke-width:1;"/><line style="stroke:#181818;stroke-width:1;" x1="41.9302" x2="381.1216" y1="112.4297" y2="112.4297"/><text fill="#000000" font-family="sans-serif" font-size="13" lengthAdjust="spacing" textLength="182.6411" x="48.9302" y="107.3638">&#1047;&#1072;&#1087;&#1086;&#1083;&#1085;&#1103;&#1077;&#1090; &#1092;&#1086;&#1088;&#1084;&#1091; &#1079;&#1072;&#1076;&#1072;&#1085;&#1080;&#1103;</text></g><g class="message" data-participant-1="UI" data-participant-2="Auth"><polygon fill="#181818" points="576.7607,137.5625,586.7607,141.5625,576.7607,145.5625,580.7607,141.5625" style="stroke:#181818;stroke-width:1;"/><line style="stroke:#181818;stroke-width:1;" x1="387.1216" x2="582.7607" y1="141.5625" y2="141.5625"/><text fill="#000000" font-family="sans-serif" font-size="13" lengthAdjust="spacing" textLength="177.6392" x="394.1216" y="136.4966">&#1055;&#1088;&#1086;&#1074;&#1077;&#1088;&#1082;&#1072; &#1090;&#1086;&#1082;&#1077;&#1085;&#1072; &#1076;&#1086;&#1089;&#1090;&#1091;&#1087;&#1072;</text></g><g class="message" data-participant-1="Auth" data-participant-2="UI"><polygon fill="#181818" points="398.1216,166.6953,388.1216,170.6953,398.1216,174.6953,394.1216,170.6953" style="stroke:#181818;stroke-width:1;"/><line style="stroke:#181818;stroke-width:1;stroke-dasharray:2.0,2.0;" x1="392.1216" x2="587.7607" y1="170.6953" y2="170.6953"/><text fill="#000000" font-family="sans-serif" font-size="13" lengthAdjust="spacing" textLength="141.0195" x="404.1216" y="165.6294">&#1058;&#1086;&#1082;&#1077;&#1085; &#1076;&#1077;&#1081;&#1089;&#1090;&#1074;&#1080;&#1090;&#1077;&#1083;&#1077;&#1085;</text></g><g class="message" data-participant-1="UI" data-participant-2="Job"><polygon fill="#181818" points="751.2847,195.8281,761.2847,199.8281,751.2847,203.8281,755.2847,199.8281" style="stroke:#181818;stroke-width:1;"/><line style="stroke:#181818;stroke-width:1;" x1="387.1216" x2="757.2847" y1="199.8281" y2="199.8281"/><text fill="#000000" font-family="sans-serif" font-size="13" lengthAdjust="spacing" textLength="220.8032" x="394.1216" y="194.7622">POST /api/jobs (&#1076;&#1072;&#1085;&#1085;&#1099;&#1077; &#1079;&#1072;&#1076;&#1072;&#1085;&#1080;&#1103;)</text></g><g class="message" data-participant-1="Job" data-participant-2="DB"><polygon fill="#181818" points="918.4878,224.9609,928.4878,228.9609,918.4878,232.9609,922.4878,228.9609" style="stroke:#181818;stroke-width:1;"/><line style="stroke:#181818;stroke-width:1;" x1="763.2847" x2="924.4878" y1="228.9609" y2="228.9609"/><text fill="#000000" font-family="sans-serif" font-size="13" lengthAdjust="spacing" textLength="143.2031" x="770.2847" y="223.895">INSERT &#1085;&#1086;&#1074;&#1086;&#1081; &#1079;&#1072;&#1087;&#1080;&#1089;&#1080;</text></g><g class="message" data-participant-1="DB" data-participant-2="Job"><polygon fill="#181818" points="774.2847,254.0938,764.2847,258.0938,774.2847,262.0938,770.2847,258.0938" style="stroke:#181818;stroke-width:1;"/><line style="stroke:#181818;stroke-width:1;stroke-dasharray:2.0,2.0;" x1="768.2847" x2="929.4878" y1="258.0938" y2="258.0938"/><text fill="#000000" font-family="sans-serif" font-size="13" lengthAdjust="spacing" textLength="111.8457" x="780.2847" y="253.0278">&#1055;&#1086;&#1076;&#1090;&#1074;&#1077;&#1088;&#1078;&#1076;&#1077;&#1085;&#1080;&#1077;</text></g><g class="message" data-participant-1="Job" data-participant-2="UI"><polygon fill="#181818" points="398.1216,283.2266,388.1216,287.2266,398.1216,291.2266,394.1216,287.2266" style="stroke:#181818;stroke-width:1;"/><line style="stroke:#181818;stroke-width:1;stroke-dasharray:2.0,2.0;" x1="392.1216" x2="762.2847" y1="287.2266" y2="287.2266"/><text fill="#000000" font-family="sans-serif" font-size="13" lengthAdjust="spacing" textLength="85.3506" x="404.1216" y="282.1606">JSON (&#1091;&#1089;&#1087;&#1077;&#1093;)</text></g><g class="message" data-participant-1="UI" data-participant-2="&#1047;&#1072;&#1082;&#1072;&#1079;&#1095;&#1080;&#1082;"><polygon fill="#181818" points="52.9302,312.3594,42.9302,316.3594,52.9302,320.3594,48.9302,316.3594" style="stroke:#181818;stroke-width:1;"/><line style="stroke:#181818;stroke-width:1;stroke-dasharray:2.0,2.0;" x1="46.9302" x2="386.1216" y1="316.3594" y2="316.3594"/><text fill="#000000" font-family="sans-serif" font-size="13" lengthAdjust="spacing" textLength="321.1914" x="58.9302" y="311.2935">&#1057;&#1086;&#1086;&#1073;&#1097;&#1077;&#1085;&#1080;&#1077; &#171;&#1047;&#1072;&#1076;&#1072;&#1085;&#1080;&#1077; &#1086;&#1087;&#1091;&#1073;&#1083;&#1080;&#1082;&#1086;&#1074;&#1072;&#1085;&#1086; &#1091;&#1089;&#1087;&#1077;&#1096;&#1085;&#1086;&#187;</text></g><!--SRC=[VPAzJW9H48Nx-nGtL51ix2rC95X00KRm0Ive8XP2OErT47zYGRIn9DZQW65b0RaaFC7C6tdcBeiH4ulD_ipvPiwPkwRcDrgQNcb4SrnJlgU8vgffMdwzLc-QAr-dw8L26dieBBb38T_mBJxCE4XfqzQd-HtrK2JqGH47caRS5SQH4RX8nl0Txf6Z3w_zY__uAKnDS2r1p1nHQ5JLcV5DrRJFeNuMrpJI6zMIdxZdTBciKhkvj7S0lte_3hmYImiGVGpiQ9YpcFl5tLzJkQz0W1EdGWuWih0d9j5Q8vZ50oB6BYm7tE4kke-KOxpjqBT4AJgtGS0IL3QqaC9c5Z92VrmgL_IUQTRtBXlLjax_HAHmnsD62G8obmMOBvQFJYeQ9J5gQHQhLx9IYXGqtdO83I2OE1-IwDCvass7SSl4VA5SAkeqJZD0dv1x6MSLrJyxHiyXUbeQysFIIw_VdIuvIlYtjCAMniWj_uGObPBLsn4FyhfUV0C0]--></g></svg>