<svg xmlns="http://www.w3.org/2000/svg" xmlns:xlink="http://www.w3.org/1999/xlink" contentStyleType="text/css" data-diagram-type="DESCRIPTION" height="524px" preserveAspectRatio="none" style="width:1830px;height:524px;background:#FFFFFF;" version="1.1" viewBox="0 0 1830 524" width="1830px" zoomAndPan="magnify"><defs/><g><!--cluster System--><g class="cluster" data-entity="System" data-source-line="13" data-uid="ent0006" id="cluster_System"><rect fill="none" height="372" rx="2.5" ry="2.5" style="stroke:#181818;stroke-width:1;" width="1244" x="352.7" y="146.5"/><text fill="#000000" font-family="sans-serif" font-size="14" font-weight="bold" lengthAdjust="spacing" textLength="263.9629" x="842.7186" y="161.4951">&#1057;&#1080;&#1089;&#1090;&#1077;&#1084;&#1072; &#1092;&#1088;&#1080;&#1083;&#1072;&#1085;&#1089;-&#1084;&#1072;&#1088;&#1082;&#1077;&#1090;&#1087;&#1083;&#1077;&#1081;&#1089;&#1072;</text></g><!--entity UC_ViewJobs--><g class="entity" data-entity="UC_ViewJobs" data-source-line="15" data-uid="ent0007" id="entity_UC_ViewJobs"><ellipse cx="1166.8" cy="213.52" fill="#F9F9F9" rx="83.1" ry="19.02" style="stroke:#333333;stroke-width:0.5;"/><text fill="#000000" font-family="sans-serif" font-size="14" lengthAdjust="spacing" textLength="137.9287" x="1097.8356" y="218.1684">&#1055;&#1088;&#1086;&#1089;&#1084;&#1086;&#1090;&#1088; &#1079;&#1072;&#1076;&#1072;&#1085;&#1080;&#1081;</text></g><!--entity UC_ViewReviews--><g class="entity" data-entity="UC_ViewReviews" data-source-line="16" data-uid="ent0008" id="entity_UC_ViewReviews"><ellipse cx="965.721" cy="213.4042" fill="#F9F9F9" rx="82.521" ry="18.9042" style="stroke:#333333;stroke-width:0.5;"/><text fill="#000000" font-family="sans-serif" font-size="14" lengthAdjust="spacing" textLength="136.582" x="897.43" y="218.0526">&#1055;&#1088;&#1086;&#1089;&#1084;&#1086;&#1090;&#1088; &#1086;&#1090;&#1079;&#1099;&#1074;&#1086;&#1074;</text></g><!--entity UC_Login--><g class="entity" data-entity="UC_Login" data-source-line="17" data-uid="ent0009" id="entity_UC_Login"><ellipse cx="1080.9199" cy="476.044" fill="#F9F9F9" rx="120.7199" ry="26.544" style="stroke:#333333;stroke-width:0.5;"/><text fill="#000000" font-family="sans-serif" font-size="14" lengthAdjust="spacing" textLength="220.8896" x="970.4751" y="480.6924">&#1056;&#1077;&#1075;&#1080;&#1089;&#1090;&#1088;&#1072;&#1094;&#1080;&#1103; / &#1042;&#1093;&#1086;&#1076; &#1074; &#1089;&#1080;&#1089;&#1090;&#1077;&#1084;&#1091;</text></g><!--entity UC_PostJob--><g class="entity" data-entity="UC_PostJob" data-source-line="18" data-uid="ent0010" id="entity_UC_PostJob"><ellipse cx="971.7498" cy="347.51" fill="#F9F9F9" rx="90.5498" ry="20.51" style="stroke:#333333;stroke-width:0.5;"/><text fill="#000000" font-family="sans-serif" font-size="14" lengthAdjust="spacing" textLength="154.9844" x="894.2576" y="352.1584">&#1055;&#1091;&#1073;&#1083;&#1080;&#1082;&#1072;&#1094;&#1080;&#1103; &#1079;&#1072;&#1076;&#1072;&#1085;&#1080;&#1103;</text></g><!--entity UC_ViewOffers--><g class="entity" data-entity="UC_ViewOffers" data-source-line="19" data-uid="ent0011" id="entity_UC_ViewOffers"><ellipse cx="483.4803" cy="213.3561" fill="#F9F9F9" rx="114.7803" ry="25.3561" style="stroke:#333333;stroke-width:0.5;"/><text fill="#000000" font-family="sans-serif" font-size="14" lengthAdjust="spacing" textLength="208.1816" x="379.3894" y="218.0045">&#1055;&#1088;&#1086;&#1089;&#1084;&#1086;&#1090;&#1088; &#1080; &#1074;&#1099;&#1073;&#1086;&#1088; &#1086;&#1090;&#1082;&#1083;&#1080;&#1082;&#1086;&#1074;</text></g><!--entity UC_SubmitProposal--><g class="entity" data-entity="UC_SubmitProposal" data-source-line="20" data-uid="ent0012" id="entity_UC_SubmitProposal"><ellipse cx="1189.5508" cy="347.327" fill="#F9F9F9" rx="91.8508" ry="24.327" style="stroke:#333333;stroke-width:0.5;"/><text fill="#000000" font-family="sans-serif" font-size="14" lengthAdjust="spacing" textLength="135.7891" x="1121.6562" y="346.3669">&#1054;&#1090;&#1087;&#1088;&#1072;&#1074;&#1082;&#1072; &#1086;&#1090;&#1082;&#1083;&#1080;&#1082;&#1072;</text><text fill="#000000" font-family="sans-serif" font-size="14" lengthAdjust="spacing" textLength="83.3301" x="1147.8857" y="362.6638">&#1085;&#1072; &#1079;&#1072;&#1076;&#1072;&#1085;&#1080;&#1077;</text></g><!--entity UC_HirePay--><g class="entity" data-entity="UC_HirePay" data-source-line="21" data-uid="ent0013" id="entity_UC_HirePay"><ellipse cx="481.8541" cy="347.4308" fill="#F9F9F9" rx="112.6541" ry="24.9308" style="stroke:#333333;stroke-width:0.5;"/><text fill="#000000" font-family="sans-serif" font-size="14" lengthAdjust="spacing" textLength="203.6084" x="380.0499" y="352.0793">&#1053;&#1072;&#1081;&#1084; &#1080; &#1086;&#1087;&#1083;&#1072;&#1090;&#1072; &#1092;&#1088;&#1080;&#1083;&#1072;&#1085;&#1089;&#1077;&#1088;&#1072;</text></g><!--entity UC_Chat--><g class="entity" data-entity="UC_Chat" data-source-line="22" data-uid="ent0014" id="entity_UC_Chat"><ellipse cx="737.5967" cy="347.5793" fill="#F9F9F9" rx="108.3967" ry="24.0793" style="stroke:#333333;stroke-width:0.5;"/><text fill="#000000" font-family="sans-serif" font-size="14" lengthAdjust="spacing" textLength="194.4072" x="640.3931" y="352.2278">&#1054;&#1073;&#1084;&#1077;&#1085; &#1089;&#1086;&#1086;&#1073;&#1097;&#1077;&#1085;&#1080;&#1103;&#1084;&#1080; (&#1095;&#1072;&#1090;)</text></g><!--entity UC_EditProfile--><g class="entity" data-entity="UC_EditProfile" data-source-line="23" data-uid="ent0015" id="entity_UC_EditProfile"><ellipse cx="740.834" cy="213.3268" fill="#F9F9F9" rx="107.134" ry="23.8268" style="stroke:#333333;stroke-width:0.5;"/><text fill="#000000" font-family="sans-serif" font-size="14" lengthAdjust="spacing" textLength="191.666" x="645.001" y="217.9752">&#1056;&#1077;&#1076;&#1072;&#1082;&#1090;&#1080;&#1088;&#1086;&#1074;&#1072;&#1085;&#1080;&#1077; &#1087;&#1088;&#1086;&#1092;&#1080;&#1083;&#1103;</text></g><!--entity UC_AdminModeration--><g class="entity" data-entity="UC_AdminModeration" data-source-line="24" data-uid="ent0016" id="entity_UC_AdminModeration"><ellipse cx="1432.8942" cy="213.5388" fill="#F9F9F9" rx="148.1942" ry="32.0388" style="stroke:#333333;stroke-width:0.5;"/><text fill="#000000" font-family="sans-serif" font-size="14" lengthAdjust="spacing" textLength="278.7217" x="1293.5334" y="218.1873">&#1052;&#1086;&#1076;&#1077;&#1088;&#1072;&#1094;&#1080;&#1103; &#1087;&#1086;&#1083;&#1100;&#1079;&#1086;&#1074;&#1072;&#1090;&#1077;&#1083;&#1077;&#1081; &#1080; &#1079;&#1072;&#1076;&#1072;&#1085;&#1080;&#1081;</text></g><!--entity Guest--><g class="entity" data-entity="Guest" data-source-line="8" data-uid="ent0002" id="entity_Guest"><ellipse cx="1166.5486" cy="22" fill="#F1F1F1" rx="16" ry="16" style="stroke:#181818;stroke-width:0.5;"/><path d="M1166.5486,42 C1170.5486,42 1173.5486,42 1177.5486,38 C1185.5486,38 1193.5486,46 1193.5486,54 L1193.5486,58 C1193.5486,62 1189.5486,66 1185.5486,66 L1147.5486,66 C1143.5486,66 1139.5486,62 1139.5486,58 L1139.5486,54 C1139.5486,46 1147.5486,38 1155.5486,38 C1159.5486,42 1162.5486,42 1166.5486,42" fill="#F1F1F1" style="stroke:#181818;stroke-width:0.5;"/><text fill="#000000" font-family="sans-serif" font-size="14" lengthAdjust="spacing" textLength="175.6973" x="1078.7" y="79.4951">&#1053;&#1077;&#1079;&#1072;&#1088;&#1077;&#1075;&#1080;&#1089;&#1090;&#1088;&#1080;&#1088;&#1086;&#1074;&#1072;&#1085;&#1085;&#1099;&#1081;</text><text fill="#000000" font-family="sans-serif" font-size="14" lengthAdjust="spacing" textLength="101.7256" x="1078.7" y="95.792">&#1087;&#1086;&#1083;&#1100;&#1079;&#1086;&#1074;&#1072;&#1090;&#1077;&#1083;&#1100;</text></g><!--entity Client--><g class="entity" data-entity="Client" data-source-line="9" data-uid="ent0003" id="entity_Client"><ellipse cx="138.6302" cy="30.5" fill="#F1F1F1" rx="16" ry="16" style="stroke:#181818;stroke-width:0.5;"/><path d="M138.6302,50.5 C142.6302,50.5 145.6302,50.5 149.6302,46.5 C157.6302,46.5 165.6302,54.5 165.6302,62.5 L165.6302,66.5 C165.6302,70.5 161.6302,74.5 157.6302,74.5 L119.6302,74.5 C115.6302,74.5 111.6302,70.5 111.6302,66.5 L111.6302,62.5 C111.6302,54.5 119.6302,46.5 127.6302,46.5 C131.6302,50.5 134.6302,50.5 138.6302,50.5" fill="#F1F1F1" style="stroke:#181818;stroke-width:0.5;"/><text fill="#000000" font-family="sans-serif" font-size="14" lengthAdjust="spacing" textLength="67.8604" x="104.7" y="87.9951">&#1047;&#1072;&#1082;&#1072;&#1079;&#1095;&#1080;&#1082;</text></g><!--entity Freelancer--><g class="entity" data-entity="Freelancer" data-source-line="10" data-uid="ent0004" id="entity_Freelancer"><ellipse cx="470.6575" cy="30.5" fill="#F1F1F1" rx="16" ry="16" style="stroke:#181818;stroke-width:0.5;"/><path d="M470.6575,50.5 C474.6575,50.5 477.6575,50.5 481.6575,46.5 C489.6575,46.5 497.6575,54.5 497.6575,62.5 L497.6575,66.5 C497.6575,70.5 493.6575,74.5 489.6575,74.5 L451.6575,74.5 C447.6575,74.5 443.6575,70.5 443.6575,66.5 L443.6575,62.5 C443.6575,54.5 451.6575,46.5 459.6575,46.5 C463.6575,50.5 466.6575,50.5 470.6575,50.5" fill="#F1F1F1" style="stroke:#181818;stroke-width:0.5;"/><text fill="#000000" font-family="sans-serif" font-size="14" lengthAdjust="spacing" textLength="81.915" x="429.7" y="87.9951">&#1060;&#1088;&#1080;&#1083;&#1072;&#1085;&#1089;&#1077;&#1088;</text></g><!--entity Admin--><g class="entity" data-entity="Admin" data-source-line="11" data-uid="ent0005" id="entity_Admin"><ellipse cx="1765.7474" cy="30.5" fill="#F1F1F1" rx="16" ry="16" style="stroke:#181818;stroke-width:0.5;"/><path d="M1765.7474,50.5 C1769.7474,50.5 1772.7474,50.5 1776.7474,46.5 C1784.7474,46.5 1792.7474,54.5 1792.7474,62.5 L1792.7474,66.5 C1792.7474,70.5 1788.7474,74.5 1784.7474,74.5 L1746.7474,74.5 C1742.7474,74.5 1738.7474,70.5 1738.7474,66.5 L1738.7474,62.5 C1738.7474,54.5 1746.7474,46.5 1754.7474,46.5 C1758.7474,50.5 1761.7474,50.5 1765.7474,50.5" fill="#F1F1F1" style="stroke:#181818;stroke-width:0.5;"/><text fill="#000000" font-family="sans-serif" font-size="14" lengthAdjust="spacing" textLength="116.0947" x="1707.7" y="87.9951">&#1040;&#1076;&#1084;&#1080;&#1085;&#1080;&#1089;&#1090;&#1088;&#1072;&#1090;&#1086;&#1088;</text></g><!--link Guest to UC_ViewJobs--><g class="link" data-entity-1="Guest" data-entity-2="UC_ViewJobs" data-source-line="28" data-uid="lnk17" id="link_Guest_UC_ViewJobs"><path d="M1166.7,99.92 C1166.7,131.45 1166.7,165.43 1166.7,188.28" fill="none" id="Guest-to-UC_ViewJobs" style="stroke:#555555;stroke-width:1;"/><polygon fill="#555555" points="1166.7,194.28,1170.7,185.28,1166.7,189.28,1162.7,185.28,1166.7,194.28" style="stroke:#555555;stroke-width:1;"/></g><!--link Guest to UC_ViewReviews--><g class="link" data-entity-1="Guest" data-entity-2="UC_ViewReviews" data-source-line="29" data-uid="lnk18" id="link_Guest_UC_ViewReviews"><path d="M1108.3,99.7 C1067.96,131.61 1021.2848,168.5264 992.5148,191.2964" fill="none" id="Guest-to-UC_ViewReviews" style="stroke:#555555;stroke-width:1;"/><polygon fill="#555555" points="987.81,195.02,997.3496,192.5711,991.7306,191.917,992.3848,186.2981,987.81,195.02" style="stroke:#555555;stroke-width:1;"/></g><!--link Guest to UC_Login--><g class="link" data-entity-1="Guest" data-entity-2="UC_Login" data-source-line="30" data-uid="lnk19" id="link_Guest_UC_Login"><path d="M1254.92,53.91 C1382.43,56.59 1608.58,69.89 1659.7,129.5 C1743.61,227.34 1746.38,324.11 1659.7,419.5 C1629.44,452.8 1366.6067,466.4409 1206.1067,471.7709" fill="none" id="Guest-to-UC_Login" style="stroke:#555555;stroke-width:1;"/><polygon fill="#555555" points="1200.11,471.97,1209.2378,475.6691,1205.1072,471.804,1208.9723,467.6735,1200.11,471.97" style="stroke:#555555;stroke-width:1;"/></g><!--link Client to UC_Login--><g class="link" data-entity-1="Client" data-entity-2="UC_Login" data-source-line="32" data-uid="lnk20" id="link_Client_UC_Login"><path d="M104.64,72.37 C81.88,87.08 53.8,109.82 40.7,138.5 C12.15,201.06 6,244.98 55.7,292.5 C184.39,415.53 716.0183,456.964 956.9783,469.674" fill="none" id="Client-to-UC_Login" style="stroke:#555555;stroke-width:1;"/><polygon fill="#555555" points="962.97,469.99,954.1932,465.5215,957.9769,469.7266,953.7718,473.5104,962.97,469.99" style="stroke:#555555;stroke-width:1;"/></g><!--link Client to UC_PostJob--><g class="link" data-entity-1="Client" data-entity-2="UC_PostJob" data-source-line="33" data-uid="lnk21" id="link_Client_UC_PostJob"><path d="M162.18,91.07 C200.58,148.33 282.92,254.77 385.7,292.5 C485.62,329.18 758.32,307.58 863.7,322.5 C879.96,324.8 891.5535,326.9357 907.5835,330.5057" fill="none" id="Client-to-UC_PostJob" style="stroke:#555555;stroke-width:1;"/><polygon fill="#555555" points="913.44,331.81,905.5247,325.9492,908.5596,330.7231,903.7857,333.7579,913.44,331.81" style="stroke:#555555;stroke-width:1;"/></g><!--link Client to UC_ViewOffers--><g class="link" data-entity-1="Client" data-entity-2="UC_ViewOffers" data-source-line="34" data-uid="lnk22" id="link_Client_UC_ViewOffers"><path d="M172.73,69.18 C234.35,97.58 359.1507,155.0989 429.9607,187.7289" fill="none" id="Client-to-UC_ViewOffers" style="stroke:#555555;stroke-width:1;"/><polygon fill="#555555" points="435.41,190.24,428.9102,182.8405,430.8689,188.1474,425.5621,190.1062,435.41,190.24" style="stroke:#555555;stroke-width:1;"/></g><!--link Client to UC_HirePay--><g class="link" data-entity-1="Client" data-entity-2="UC_HirePay" data-source-line="35" data-uid="lnk23" id="link_Client_UC_HirePay"><path d="M104.39,85.53 C93.34,98.05 82.47,113.3 76.7,129.5 C52.4,197.75 28.98,237.99 76.7,292.5 C96.15,314.72 255.6371,330.427 368.9571,339.007" fill="none" id="Client-to-UC_HirePay" style="stroke:#555555;stroke-width:1;"/><polygon fill="#555555" points="374.94,339.46,366.2677,334.7919,369.9543,339.0825,365.6637,342.7691,374.94,339.46" style="stroke:#555555;stroke-width:1;"/></g><!--link Client to UC_Chat--><g class="link" data-entity-1="Client" data-entity-2="UC_Chat" data-source-line="36" data-uid="lnk24" id="link_Client_UC_Chat"><path d="M126.46,91.35 C112.03,144.15 96.01,239.39 147.7,292.5 C183.74,329.52 560.45,315.99 611.7,322.5 C627.83,324.55 639.0989,326.2952 655.4189,329.2952" fill="none" id="Client-to-UC_Chat" style="stroke:#555555;stroke-width:1;"/><polygon fill="#555555" points="661.32,330.38,653.1915,324.8188,656.4024,329.476,651.7451,332.6869,661.32,330.38" style="stroke:#555555;stroke-width:1;"/></g><!--link Client to UC_EditProfile--><g class="link" data-entity-1="Client" data-entity-2="UC_EditProfile" data-source-line="37" data-uid="lnk25" id="link_Client_UC_EditProfile"><path d="M172.85,59.22 C278.73,77.02 595.68,130.66 616.7,138.5 C651,151.29 681.5807,170.1392 705.7607,186.9192" fill="none" id="Client-to-UC_EditProfile" style="stroke:#555555;stroke-width:1;"/><polygon fill="#555555" points="710.69,190.34,705.5765,181.9226,706.5822,187.4894,701.0155,188.4951,710.69,190.34" style="stroke:#555555;stroke-width:1;"/></g><!--link Freelancer to UC_Login--><g class="link" data-entity-1="Freelancer" data-entity-2="UC_Login" data-source-line="39" data-uid="lnk26" id="link_Freelancer_UC_Login"><path d="M511.9,56.78 C608.12,64.43 855.17,83.96 1061.7,99.5 C1121.36,103.99 1557.96,94.69 1598.7,138.5 C1745.22,296.05 1349.7839,411.9282 1169.3339,455.2882" fill="none" id="Freelancer-to-UC_Login" style="stroke:#555555;stroke-width:1;"/><polygon fill="#555555" points="1163.5,456.69,1173.1855,458.4766,1168.3616,455.5218,1171.3164,450.698,1163.5,456.69" style="stroke:#555555;stroke-width:1;"/></g><!--link Freelancer to UC_SubmitProposal--><g class="link" data-entity-1="Freelancer" data-entity-2="UC_SubmitProposal" data-source-line="40" data-uid="lnk27" id="link_Freelancer_UC_SubmitProposal"><path d="M429.56,70.57 C402.03,84.44 367.97,106.9 351.7,138.5 C329.94,180.78 320.37,209.72 351.7,245.5 C458.88,367.89 918.79,298.62 1079.7,322.5 C1093.91,324.61 1103.1588,326.2535 1117.4988,329.2735" fill="none" id="Freelancer-to-UC_SubmitProposal" style="stroke:#555555;stroke-width:1;"/><polygon fill="#555555" points="1123.37,330.51,1115.3875,324.7411,1118.4773,329.4796,1113.7389,332.5694,1123.37,330.51" style="stroke:#555555;stroke-width:1;"/></g><!--link Freelancer to UC_Chat--><g class="link" data-entity-1="Freelancer" data-entity-2="UC_Chat" data-source-line="41" data-uid="lnk28" id="link_Freelancer_UC_Chat"><path d="M429.6,59.84 C386.33,68.94 320.32,90.29 289.7,138.5 C253.01,196.28 243.61,241.91 289.7,292.5 C313.9,319.06 576.13,317.47 611.7,322.5 C627.58,324.75 638.5901,326.5386 654.7001,329.5186" fill="none" id="Freelancer-to-UC_Chat" style="stroke:#555555;stroke-width:1;"/><polygon fill="#555555" points="660.6,330.61,652.4777,325.0397,655.6834,329.7005,651.0226,332.9062,660.6,330.61" style="stroke:#555555;stroke-width:1;"/></g><!--link Freelancer to UC_EditProfile--><g class="link" data-entity-1="Freelancer" data-entity-2="UC_EditProfile" data-source-line="42" data-uid="lnk29" id="link_Freelancer_UC_EditProfile"><path d="M511.99,77.38 C541.27,94.35 581.46,117.72 616.7,138.5 C646.4,156 674.8236,172.9655 699.5336,187.7755" fill="none" id="Freelancer-to-UC_EditProfile" style="stroke:#555555;stroke-width:1;"/><polygon fill="#555555" points="704.68,190.86,699.0167,182.8023,700.3913,188.2896,694.904,189.6642,704.68,190.86" style="stroke:#555555;stroke-width:1;"/></g><!--link Admin to UC_Login--><g class="link" data-entity-1="Admin" data-entity-2="UC_Login" data-source-line="44" data-uid="lnk30" id="link_Admin_UC_Login"><path d="M1773.37,91.03 C1787.42,171.91 1806.24,360.14 1691.7,419.5 C1609.07,462.32 1360.5494,472.4547 1207.3094,474.6347" fill="none" id="Admin-to-UC_Login" style="stroke:#555555;stroke-width:1;"/><polygon fill="#555555" points="1201.31,474.72,1210.366,478.5916,1206.3095,474.6489,1210.2522,470.5924,1201.31,474.72" style="stroke:#555555;stroke-width:1;"/></g><!--link Admin to UC_AdminModeration--><g class="link" data-entity-1="Admin" data-entity-2="UC_AdminModeration" data-source-line="45" data-uid="lnk31" id="link_Admin_UC_AdminModeration"><path d="M1707.7,81.2 C1647.33,110.02 1558.6545,152.3649 1497.7045,181.4649" fill="none" id="Admin-to-UC_AdminModeration" style="stroke:#555555;stroke-width:1;"/><polygon fill="#555555" points="1492.29,184.05,1502.1352,183.782,1496.8021,181.8957,1498.6884,176.5626,1492.29,184.05" style="stroke:#555555;stroke-width:1;"/></g><!--link UC_PostJob to UC_Login--><g class="link" data-entity-1="UC_PostJob" data-entity-2="UC_Login" data-source-line="48" data-uid="lnk32" id="link_UC_PostJob_UC_Login"><path d="M985.49,368.02 C996.03,382.59 1011.18,402.79 1025.7,419.5 C1034.69,429.84 1040.8938,436.431 1050.2638,445.741" fill="none" id="UC_PostJob-to-UC_Login" style="stroke:#555555;stroke-width:1;"/><polygon fill="#555555" points="1054.52,449.97,1050.955,440.789,1050.9731,446.4458,1045.3163,446.464,1054.52,449.97" style="stroke:#555555;stroke-width:1;"/><text fill="#000000" font-family="sans-serif" font-size="13" lengthAdjust="spacing" textLength="63.0068" x="1026.7" y="415.5669">&#171;include&#187;</text></g><!--link UC_SubmitProposal to UC_Login--><g class="link" data-entity-1="UC_SubmitProposal" data-entity-2="UC_Login" data-source-line="49" data-uid="lnk33" id="link_UC_SubmitProposal_UC_Login"><path d="M1169.71,371.7 C1150.66,393.81 1125.9664,422.4745 1106.3564,445.2345" fill="none" id="UC_SubmitProposal-to-UC_Login" style="stroke:#555555;stroke-width:1;"/><polygon fill="#555555" points="1102.44,449.78,1111.345,445.5727,1105.7037,445.9921,1105.2843,440.3508,1102.44,449.78" style="stroke:#555555;stroke-width:1;"/><text fill="#000000" font-family="sans-serif" font-size="13" lengthAdjust="spacing" textLength="63.0068" x="1142.7" y="415.5669">&#171;include&#187;</text></g><!--link UC_Chat to UC_Login--><g class="link" data-entity-1="UC_Chat" data-entity-2="UC_Login" data-source-line="50" data-uid="lnk34" id="link_UC_Chat_UC_Login"><path d="M791.67,368.4 C854.03,391.4 950.6807,427.0437 1015.3707,450.9037" fill="none" id="UC_Chat-to-UC_Login" style="stroke:#555555;stroke-width:1;"/><polygon fill="#555555" points="1021,452.98,1013.9402,446.1127,1016.3089,451.2498,1011.1719,453.6184,1021,452.98" style="stroke:#555555;stroke-width:1;"/><text fill="#000000" font-family="sans-serif" font-size="13" lengthAdjust="spacing" textLength="63.0068" x="930.7" y="415.5669">&#171;include&#187;</text></g><!--link UC_HirePay to UC_Login--><g class="link" data-entity-1="UC_HirePay" data-entity-2="UC_Login" data-source-line="51" data-uid="lnk35" id="link_UC_HirePay_UC_Login"><path d="M560.4,365.38 C627.87,379.83 727.66,401.14 814.7,419.5 C875.06,432.23 937.2759,445.2074 989.4559,456.0674" fill="none" id="UC_HirePay-to-UC_Login" style="stroke:#555555;stroke-width:1;"/><polygon fill="#555555" points="995.33,457.29,987.3338,451.5401,990.4349,456.2712,985.7038,459.3722,995.33,457.29" style="stroke:#555555;stroke-width:1;"/><text fill="#000000" font-family="sans-serif" font-size="13" lengthAdjust="spacing" textLength="63.0068" x="815.7" y="415.5669">&#171;include&#187;</text></g><!--link UC_ViewOffers to UC_PostJob--><g class="link" data-entity-1="UC_ViewOffers" data-entity-2="UC_PostJob" data-source-line="52" data-uid="lnk36" id="link_UC_ViewOffers_UC_PostJob"><path d="M554.4,233.62 C652.14,260.06 820.748,305.6737 909.978,329.8037" fill="none" id="UC_ViewOffers-to-UC_PostJob" style="stroke:#555555;stroke-width:1;"/><polygon fill="#555555" points="915.77,331.37,908.1263,325.1593,910.9434,330.0648,906.0379,332.8819,915.77,331.37" style="stroke:#555555;stroke-width:1;"/><text fill="#000000" font-family="sans-serif" font-size="13" lengthAdjust="spacing" textLength="61.1851" x="771.7" y="288.5669">&#171;extend&#187;</text></g><!--SRC=[XLJBRjD05DtxAqPX0ImY5bKNe2fIYIW8WQYeO8M4t6HQh3gUQknGAeJK9mWLgT0D6yf3uWFIqb8dJS8ltFaZpftOYIUfMaMExJltTSwvr_5A4Atwscy8lvOelP2iXrBuQp9M3Ud5myDcB6j-BCLRJuYxVcrbMQjcLA-gK6bnRUus__X4wRhKcNLgQWgcMQtLMcQPdfxstdcUBIHAT4YdT4Ojiu7x7qhDfjd2SughJyVKeXxrp1wrNqJq3vPpymdUziHi8GBl9U77udvJniamvrV4TN2TcG-KKiTwLCD0HYENtro4phc0sQHJis6TvhIKeH_Lf1uwVgOJwiArD-oDA_UpWDbw8uWyJyjQuaVB8Ar4lmQEQAvBBM5sYeNAR8EXWufR07GEhpRgjsooXVKuaGsm2yPogalqWwc0JnV_A2-OBVJ4pAJKje7FgY-V1tBjeLgCBm_53QJiWJvGM0nzAb_Ztut-wIZICk_nl2zk2JemkuW_4NGia7o8rcpd6H-fPR3YTh9DHu2RiYvPfY8Giv_7pgiu0P3BSQIe3HX7hCC0LITBFeRhoTAIr2wixymy0m8BQCODRs7EUcmiadoQPrneBZQ2P5whLHNxePFr4BvjwjhM-bPP7fDn_NdGCh6Hxa6WvRo_xdO7K5smsMDg-_WTcO_yoXJn78eRc6calfadgRxoamdPkFCEwXVN23Y41TutEzpHYF9xTGjgAGYba-aRgpneEPVimXta8RR0BvnCkoAF5Ju9VXAeY7V_kYYNomARSWnGPnnfspLV1ktogMSt6ayLPxedhFdWEWU3-VC6A-yQNLi-RAwrC3ZkGIwOQxKAkAOYezxee-AsCcaVcwz91rjgqkoKitoxbHpJk1wv6WTMljGksUP86Hx6ltHYjdamX9qCbcT4dbDAt14pCq5K2vjrMQbu4vYkS6PyLxXa6bpXDP9mJ6hhAjyaCgfNAly1]--></g></svg>